<svg width="397" height="107" viewBox="0 0 397 107" fill="none" xmlns="http://www.w3.org/2000/svg">
<rect width="397" height="107" rx="16" fill="#0A0A0A"/>
<rect x="1" y="1" width="395" height="105" rx="15" stroke="white" stroke-opacity="0.04" stroke-width="2"/>
<g filter="url(#filter0_d_179_35211)">
<rect x="24" y="24" width="44" height="44" rx="12" fill="url(#paint0_radial_179_35211)" shape-rendering="crispEdges"/>
<rect x="24.5" y="24.5" width="43" height="43" rx="11.5" stroke="url(#paint1_linear_179_35211)" shape-rendering="crispEdges"/>
<path fill-rule="evenodd" clip-rule="evenodd" d="M56.7499 36.6429L53.3871 40.0058L51.9941 38.6128L55.357 35.25L56.7499 36.6429Z" fill="#0CFF85"/>
<path fill-rule="evenodd" clip-rule="evenodd" d="M40.0058 53.3872L36.6429 56.75L35.25 55.3571L38.6128 51.9943L40.0058 53.3872Z" fill="#0CFF85"/>
<path d="M41.0759 44.207L47.7942 50.9252L44.2461 54.4732L39.7347 54.8833L37.1179 52.2666L37.5279 47.7552L41.0759 44.207Z" fill="#0CFF85"/>
<path d="M52.2665 37.1172L54.8833 39.7339L54.4734 44.2453L50.9254 47.7935L44.207 41.0753L47.7552 37.5273L52.2665 37.1172Z" fill="#0CFF85"/>
<path fill-rule="evenodd" clip-rule="evenodd" d="M45.508 44.9305L42.5531 47.8853L41.1602 46.4924L44.115 43.5376L45.508 44.9305ZM48.4628 47.8854L45.508 50.8402L44.115 49.4473L47.0699 46.4925L48.4628 47.8854Z" fill="#0CFF85"/>
</g>
<path d="M103.92 22.96C106.107 22.96 107.96 23.4533 109.48 24.44C111.027 25.4267 112.187 26.8667 112.96 28.76C113.76 30.6533 114.16 32.96 114.16 35.68C114.16 38.0267 113.96 40.2267 113.56 42.28C113.16 44.3333 112.52 46.1333 111.64 47.68C110.76 49.2267 109.6 50.44 108.16 51.32C106.72 52.2 104.947 52.64 102.84 52.64C101.08 52.64 99.6 52.36 98.4 51.8C97.2267 51.2133 96.2667 50.4 95.52 49.36C94.8 48.32 94.2533 47.1333 93.88 45.8L98.2 45.44C98.4933 46.4267 98.9867 47.2267 99.68 47.84C100.4 48.4267 101.453 48.72 102.84 48.72C104.28 48.72 105.52 48.3067 106.56 47.48C107.6 46.6533 108.4 45.4 108.96 43.72C109.547 42.04 109.867 39.8933 109.92 37.28L110.96 37.44C110.693 38.3733 110.2 39.24 109.48 40.04C108.76 40.84 107.867 41.4933 106.8 42C105.733 42.48 104.507 42.72 103.12 42.72C101.253 42.72 99.6267 42.3333 98.24 41.56C96.8533 40.76 95.7733 39.64 95 38.2C94.2267 36.7333 93.84 35.04 93.84 33.12C93.84 31.0133 94.2667 29.2133 95.12 27.72C95.9733 26.2 97.1467 25.0267 98.64 24.2C100.16 23.3733 101.92 22.96 103.92 22.96ZM103.92 26.92C102.16 26.92 100.76 27.4533 99.72 28.52C98.7067 29.5867 98.2 31.0933 98.2 33.04C98.2 34.8267 98.68 36.2533 99.64 37.32C100.627 38.3867 101.947 38.92 103.6 38.92C104.8 38.92 105.853 38.68 106.76 38.2C107.693 37.72 108.413 37.04 108.92 36.16C109.453 35.28 109.72 34.24 109.72 33.04C109.72 31.8667 109.48 30.8133 109 29.88C108.547 28.9467 107.88 28.2267 107 27.72C106.147 27.1867 105.12 26.92 103.92 26.92ZM120.944 47.76L131.824 27.64L135.024 27.84L124.144 47.96L120.944 47.76ZM127.984 52.64C125.904 52.64 124.104 52.04 122.584 50.84C121.064 49.64 119.904 47.9333 119.104 45.72C118.304 43.5067 117.904 40.88 117.904 37.84C117.904 34.7733 118.304 32.1333 119.104 29.92C119.904 27.7067 121.064 26 122.584 24.8C124.104 23.5733 125.904 22.96 127.984 22.96C130.091 22.96 131.891 23.5733 133.384 24.8C134.904 26 136.064 27.7067 136.864 29.92C137.664 32.1333 138.064 34.7733 138.064 37.84C138.064 40.88 137.664 43.5067 136.864 45.72C136.064 47.9333 134.904 49.64 133.384 50.84C131.891 52.04 130.091 52.64 127.984 52.64ZM127.984 48.72C129.184 48.72 130.198 48.2933 131.024 47.44C131.878 46.56 132.531 45.3067 132.984 43.68C133.464 42.0533 133.704 40.1067 133.704 37.84C133.704 35.52 133.464 33.5467 132.984 31.92C132.531 30.2933 131.878 29.0533 131.024 28.2C130.198 27.32 129.184 26.88 127.984 26.88C126.811 26.88 125.798 27.32 124.944 28.2C124.091 29.0533 123.424 30.2933 122.944 31.92C122.491 33.5467 122.264 35.52 122.264 37.84C122.264 40.1067 122.491 42.0533 122.944 43.68C123.424 45.3067 124.091 46.56 124.944 47.44C125.798 48.2933 126.811 48.72 127.984 48.72ZM144.929 47.76L155.809 27.64L159.009 27.84L148.129 47.96L144.929 47.76ZM151.969 52.64C149.889 52.64 148.089 52.04 146.569 50.84C145.049 49.64 143.889 47.9333 143.089 45.72C142.289 43.5067 141.889 40.88 141.889 37.84C141.889 34.7733 142.289 32.1333 143.089 29.92C143.889 27.7067 145.049 26 146.569 24.8C148.089 23.5733 149.889 22.96 151.969 22.96C154.075 22.96 155.875 23.5733 157.369 24.8C158.889 26 160.049 27.7067 160.849 29.92C161.649 32.1333 162.049 34.7733 162.049 37.84C162.049 40.88 161.649 43.5067 160.849 45.72C160.049 47.9333 158.889 49.64 157.369 50.84C155.875 52.04 154.075 52.64 151.969 52.64ZM151.969 48.72C153.169 48.72 154.182 48.2933 155.009 47.44C155.862 46.56 156.515 45.3067 156.969 43.68C157.449 42.0533 157.689 40.1067 157.689 37.84C157.689 35.52 157.449 33.5467 156.969 31.92C156.515 30.2933 155.862 29.0533 155.009 28.2C154.182 27.32 153.169 26.88 151.969 26.88C150.795 26.88 149.782 27.32 148.929 28.2C148.075 29.0533 147.409 30.2933 146.929 31.92C146.475 33.5467 146.249 35.52 146.249 37.84C146.249 40.1067 146.475 42.0533 146.929 43.68C147.409 45.3067 148.075 46.56 148.929 47.44C149.782 48.2933 150.795 48.72 151.969 48.72ZM168.913 47.76L179.793 27.64L182.993 27.84L172.113 47.96L168.913 47.76ZM175.953 52.64C173.873 52.64 172.073 52.04 170.553 50.84C169.033 49.64 167.873 47.9333 167.073 45.72C166.273 43.5067 165.873 40.88 165.873 37.84C165.873 34.7733 166.273 32.1333 167.073 29.92C167.873 27.7067 169.033 26 170.553 24.8C172.073 23.5733 173.873 22.96 175.953 22.96C178.06 22.96 179.86 23.5733 181.353 24.8C182.873 26 184.033 27.7067 184.833 29.92C185.633 32.1333 186.033 34.7733 186.033 37.84C186.033 40.88 185.633 43.5067 184.833 45.72C184.033 47.9333 182.873 49.64 181.353 50.84C179.86 52.04 178.06 52.64 175.953 52.64ZM175.953 48.72C177.153 48.72 178.166 48.2933 178.993 47.44C179.846 46.56 180.5 45.3067 180.953 43.68C181.433 42.0533 181.673 40.1067 181.673 37.84C181.673 35.52 181.433 33.5467 180.953 31.92C180.5 30.2933 179.846 29.0533 178.993 28.2C178.166 27.32 177.153 26.88 175.953 26.88C174.78 26.88 173.766 27.32 172.913 28.2C172.06 29.0533 171.393 30.2933 170.913 31.92C170.46 33.5467 170.233 35.52 170.233 37.84C170.233 40.1067 170.46 42.0533 170.913 43.68C171.393 45.3067 172.06 46.56 172.913 47.44C173.766 48.2933 174.78 48.72 175.953 48.72Z" fill="white"/>
<path d="M93.472 83V71.64H95.392L99.024 81.496L102.64 71.64H104.56V83H103.184V74.2L99.936 83H98.096L94.848 74.2V83H93.472ZM109.443 83.192C108.568 83.192 107.87 82.9893 107.347 82.584C106.835 82.1787 106.579 81.6133 106.579 80.888C106.579 80.1627 106.792 79.592 107.219 79.176C107.646 78.76 108.323 78.4667 109.251 78.296L112.259 77.736C112.259 77.0213 112.088 76.488 111.747 76.136C111.416 75.784 110.915 75.608 110.243 75.608C109.656 75.608 109.192 75.7413 108.851 76.008C108.51 76.264 108.275 76.6373 108.147 77.128L106.723 77.016C106.883 76.216 107.267 75.5707 107.875 75.08C108.494 74.5787 109.283 74.328 110.243 74.328C111.331 74.328 112.163 74.6373 112.739 75.256C113.315 75.864 113.603 76.7067 113.603 77.784V81.288C113.603 81.48 113.635 81.6187 113.699 81.704C113.774 81.7787 113.891 81.816 114.051 81.816H114.387V83C114.344 83.0107 114.275 83.016 114.179 83.016C114.083 83.0267 113.982 83.032 113.875 83.032C113.491 83.032 113.176 82.9733 112.931 82.856C112.696 82.728 112.526 82.536 112.419 82.28C112.312 82.0133 112.259 81.6667 112.259 81.24L112.419 81.272C112.344 81.6347 112.163 81.9653 111.875 82.264C111.587 82.552 111.23 82.7813 110.803 82.952C110.376 83.112 109.923 83.192 109.443 83.192ZM109.571 82.008C110.136 82.008 110.616 81.9013 111.011 81.688C111.416 81.464 111.726 81.1653 111.939 80.792C112.152 80.408 112.259 79.9813 112.259 79.512V78.904L109.507 79.416C108.931 79.5227 108.531 79.688 108.307 79.912C108.094 80.1253 107.987 80.408 107.987 80.76C107.987 81.1547 108.126 81.464 108.403 81.688C108.691 81.9013 109.08 82.008 109.571 82.008ZM115.843 83V71.64H117.187V79.08L121.315 74.52H123.107L119.763 78.12L123.251 83H121.619L118.851 79.032L117.187 80.792V83H115.843ZM127.795 83.192C126.995 83.192 126.302 83.0107 125.715 82.648C125.139 82.2853 124.691 81.7733 124.371 81.112C124.062 80.44 123.907 79.656 123.907 78.76C123.907 77.864 124.062 77.0853 124.371 76.424C124.691 75.7627 125.134 75.2507 125.699 74.888C126.275 74.5147 126.952 74.328 127.731 74.328C128.467 74.328 129.118 74.504 129.683 74.856C130.248 75.1973 130.686 75.6987 130.995 76.36C131.315 77.0213 131.475 77.8267 131.475 78.776V79.176H125.315C125.368 80.0827 125.608 80.7653 126.035 81.224C126.472 81.6827 127.059 81.912 127.795 81.912C128.35 81.912 128.803 81.784 129.155 81.528C129.518 81.2613 129.768 80.9147 129.907 80.488L131.347 80.6C131.123 81.3573 130.696 81.9813 130.067 82.472C129.448 82.952 128.691 83.192 127.795 83.192ZM125.315 77.992H130.003C129.939 77.1707 129.699 76.568 129.283 76.184C128.878 75.8 128.36 75.608 127.731 75.608C127.08 75.608 126.542 75.8107 126.115 76.216C125.699 76.6107 125.432 77.2027 125.315 77.992ZM136.384 83.192C135.626 83.192 134.981 83.0693 134.448 82.824C133.925 82.5787 133.514 82.2427 133.216 81.816C132.928 81.3787 132.762 80.8827 132.72 80.328L134.128 80.232C134.213 80.744 134.432 81.1547 134.784 81.464C135.136 81.7627 135.669 81.912 136.384 81.912C136.96 81.912 137.418 81.8213 137.76 81.64C138.112 81.448 138.288 81.144 138.288 80.728C138.288 80.504 138.234 80.3173 138.128 80.168C138.021 80.0187 137.813 79.8907 137.504 79.784C137.194 79.6667 136.736 79.5547 136.128 79.448C135.317 79.2987 134.677 79.1173 134.208 78.904C133.749 78.68 133.418 78.408 133.216 78.088C133.024 77.7573 132.928 77.368 132.928 76.92C132.928 76.1627 133.205 75.544 133.76 75.064C134.314 74.5733 135.104 74.328 136.128 74.328C136.821 74.328 137.402 74.456 137.872 74.712C138.352 74.9573 138.725 75.288 138.992 75.704C139.269 76.1093 139.45 76.5573 139.536 77.048L138.128 77.144C138.064 76.8453 137.946 76.584 137.776 76.36C137.605 76.1253 137.381 75.944 137.104 75.816C136.826 75.6773 136.496 75.608 136.112 75.608C135.504 75.608 135.056 75.7253 134.768 75.96C134.48 76.1947 134.336 76.4933 134.336 76.856C134.336 77.1333 134.4 77.3627 134.528 77.544C134.666 77.7147 134.885 77.8587 135.184 77.976C135.482 78.0827 135.882 78.1787 136.384 78.264C137.248 78.4133 137.92 78.5947 138.4 78.808C138.88 79.0213 139.216 79.2827 139.408 79.592C139.6 79.9013 139.696 80.28 139.696 80.728C139.696 81.2507 139.546 81.6987 139.248 82.072C138.96 82.4347 138.565 82.712 138.064 82.904C137.573 83.096 137.013 83.192 136.384 83.192ZM148.79 83C148.022 83 147.452 82.824 147.078 82.472C146.716 82.12 146.534 81.5707 146.534 80.824V72.536H147.878V80.792C147.878 81.176 147.964 81.4427 148.134 81.592C148.305 81.7413 148.566 81.816 148.918 81.816H150.134V83H148.79ZM145.286 75.704V74.52H150.134V75.704H145.286ZM152.03 83V74.52H153.214L153.278 76.664L153.15 76.616C153.257 75.8907 153.486 75.3627 153.838 75.032C154.201 74.6907 154.681 74.52 155.278 74.52H156.11V75.8H155.294C154.867 75.8 154.51 75.88 154.222 76.04C153.945 76.1893 153.731 76.4187 153.582 76.728C153.443 77.0267 153.374 77.4107 153.374 77.88V83H152.03ZM160.564 83.192C159.721 83.192 159.044 82.9093 158.532 82.344C158.031 81.768 157.78 80.9787 157.78 79.976V74.52H159.124V79.608C159.124 80.4293 159.268 81.0373 159.556 81.432C159.855 81.816 160.308 82.008 160.916 82.008C161.588 82.008 162.116 81.7947 162.5 81.368C162.884 80.9307 163.076 80.3333 163.076 79.576V74.52H164.42V83H163.14V80.904L163.348 81.016C163.177 81.7093 162.852 82.248 162.372 82.632C161.892 83.0053 161.289 83.192 160.564 83.192ZM169.915 83.192C169.158 83.192 168.512 83.0693 167.979 82.824C167.456 82.5787 167.046 82.2427 166.747 81.816C166.459 81.3787 166.294 80.8827 166.251 80.328L167.659 80.232C167.744 80.744 167.963 81.1547 168.315 81.464C168.667 81.7627 169.2 81.912 169.915 81.912C170.491 81.912 170.95 81.8213 171.291 81.64C171.643 81.448 171.819 81.144 171.819 80.728C171.819 80.504 171.766 80.3173 171.659 80.168C171.552 80.0187 171.344 79.8907 171.035 79.784C170.726 79.6667 170.267 79.5547 169.659 79.448C168.848 79.2987 168.208 79.1173 167.739 78.904C167.28 78.68 166.95 78.408 166.747 78.088C166.555 77.7573 166.459 77.368 166.459 76.92C166.459 76.1627 166.736 75.544 167.291 75.064C167.846 74.5733 168.635 74.328 169.659 74.328C170.352 74.328 170.934 74.456 171.403 74.712C171.883 74.9573 172.256 75.288 172.523 75.704C172.8 76.1093 172.982 76.5573 173.067 77.048L171.659 77.144C171.595 76.8453 171.478 76.584 171.307 76.36C171.136 76.1253 170.912 75.944 170.635 75.816C170.358 75.6773 170.027 75.608 169.643 75.608C169.035 75.608 168.587 75.7253 168.299 75.96C168.011 76.1947 167.867 76.4933 167.867 76.856C167.867 77.1333 167.931 77.3627 168.059 77.544C168.198 77.7147 168.416 77.8587 168.715 77.976C169.014 78.0827 169.414 78.1787 169.915 78.264C170.779 78.4133 171.451 78.5947 171.931 78.808C172.411 79.0213 172.747 79.2827 172.939 79.592C173.131 79.9013 173.227 80.28 173.227 80.728C173.227 81.2507 173.078 81.6987 172.779 82.072C172.491 82.4347 172.096 82.712 171.595 82.904C171.104 83.096 170.544 83.192 169.915 83.192ZM177.837 83C177.069 83 176.498 82.824 176.125 82.472C175.762 82.12 175.581 81.5707 175.581 80.824V72.536H176.925V80.792C176.925 81.176 177.01 81.4427 177.181 81.592C177.352 81.7413 177.613 81.816 177.965 81.816H179.181V83H177.837ZM174.333 75.704V74.52H179.181V75.704H174.333ZM188.087 83.192C187.329 83.192 186.684 83.0693 186.151 82.824C185.628 82.5787 185.217 82.2427 184.919 81.816C184.631 81.3787 184.465 80.8827 184.423 80.328L185.831 80.232C185.916 80.744 186.135 81.1547 186.487 81.464C186.839 81.7627 187.372 81.912 188.087 81.912C188.663 81.912 189.121 81.8213 189.463 81.64C189.815 81.448 189.991 81.144 189.991 80.728C189.991 80.504 189.937 80.3173 189.831 80.168C189.724 80.0187 189.516 79.8907 189.207 79.784C188.897 79.6667 188.439 79.5547 187.831 79.448C187.02 79.2987 186.38 79.1173 185.911 78.904C185.452 78.68 185.121 78.408 184.919 78.088C184.727 77.7573 184.631 77.368 184.631 76.92C184.631 76.1627 184.908 75.544 185.463 75.064C186.017 74.5733 186.807 74.328 187.831 74.328C188.524 74.328 189.105 74.456 189.575 74.712C190.055 74.9573 190.428 75.288 190.695 75.704C190.972 76.1093 191.153 76.5573 191.239 77.048L189.831 77.144C189.767 76.8453 189.649 76.584 189.479 76.36C189.308 76.1253 189.084 75.944 188.807 75.816C188.529 75.6773 188.199 75.608 187.815 75.608C187.207 75.608 186.759 75.7253 186.471 75.96C186.183 76.1947 186.039 76.4933 186.039 76.856C186.039 77.1333 186.103 77.3627 186.231 77.544C186.369 77.7147 186.588 77.8587 186.887 77.976C187.185 78.0827 187.585 78.1787 188.087 78.264C188.951 78.4133 189.623 78.5947 190.103 78.808C190.583 79.0213 190.919 79.2827 191.111 79.592C191.303 79.9013 191.399 80.28 191.399 80.728C191.399 81.2507 191.249 81.6987 190.951 82.072C190.663 82.4347 190.268 82.712 189.767 82.904C189.276 83.096 188.716 83.192 188.087 83.192ZM196.545 83.192C195.756 83.192 195.068 83.0107 194.481 82.648C193.905 82.2853 193.457 81.7733 193.137 81.112C192.817 80.44 192.657 79.656 192.657 78.76C192.657 77.864 192.817 77.0853 193.137 76.424C193.457 75.7627 193.905 75.2507 194.481 74.888C195.068 74.5147 195.756 74.328 196.545 74.328C197.196 74.328 197.772 74.4453 198.273 74.68C198.785 74.904 199.201 75.2347 199.521 75.672C199.841 76.1093 200.049 76.6427 200.145 77.272L198.737 77.368C198.641 76.8027 198.396 76.3707 198.001 76.072C197.606 75.7627 197.121 75.608 196.545 75.608C195.766 75.608 195.158 75.8907 194.721 76.456C194.284 77.0107 194.065 77.7787 194.065 78.76C194.065 79.7413 194.284 80.5147 194.721 81.08C195.158 81.6347 195.766 81.912 196.545 81.912C197.121 81.912 197.606 81.752 198.001 81.432C198.396 81.112 198.641 80.632 198.737 79.992L200.145 80.088C200.049 80.7173 199.841 81.2667 199.521 81.736C199.201 82.1947 198.785 82.552 198.273 82.808C197.772 83.064 197.196 83.192 196.545 83.192ZM205.123 83.192C204.345 83.192 203.662 83.0107 203.075 82.648C202.489 82.2853 202.035 81.7733 201.715 81.112C201.395 80.44 201.235 79.656 201.235 78.76C201.235 77.8533 201.395 77.0693 201.715 76.408C202.035 75.7467 202.489 75.2347 203.075 74.872C203.662 74.5093 204.345 74.328 205.123 74.328C205.902 74.328 206.579 74.5093 207.155 74.872C207.742 75.2347 208.195 75.7467 208.515 76.408C208.835 77.0693 208.995 77.8533 208.995 78.76C208.995 79.656 208.835 80.44 208.515 81.112C208.195 81.7733 207.742 82.2853 207.155 82.648C206.579 83.0107 205.902 83.192 205.123 83.192ZM205.123 81.912C205.902 81.912 206.505 81.6347 206.931 81.08C207.369 80.5147 207.587 79.7413 207.587 78.76C207.587 77.7787 207.369 77.0107 206.931 76.456C206.505 75.8907 205.902 75.608 205.123 75.608C204.345 75.608 203.737 75.8907 203.299 76.456C202.862 77.0107 202.643 77.7787 202.643 78.76C202.643 79.7413 202.862 80.5147 203.299 81.08C203.737 81.6347 204.345 81.912 205.123 81.912ZM210.827 83V74.52H212.011L212.075 76.664L211.947 76.616C212.054 75.8907 212.283 75.3627 212.635 75.032C212.998 74.6907 213.478 74.52 214.075 74.52H214.907V75.8H214.091C213.664 75.8 213.307 75.88 213.019 76.04C212.742 76.1893 212.528 76.4187 212.379 76.728C212.24 77.0267 212.171 77.4107 212.171 77.88V83H210.827ZM219.561 83.192C218.761 83.192 218.067 83.0107 217.481 82.648C216.905 82.2853 216.457 81.7733 216.137 81.112C215.827 80.44 215.673 79.656 215.673 78.76C215.673 77.864 215.827 77.0853 216.137 76.424C216.457 75.7627 216.899 75.2507 217.465 74.888C218.041 74.5147 218.718 74.328 219.497 74.328C220.233 74.328 220.883 74.504 221.449 74.856C222.014 75.1973 222.451 75.6987 222.761 76.36C223.081 77.0213 223.241 77.8267 223.241 78.776V79.176H217.081C217.134 80.0827 217.374 80.7653 217.801 81.224C218.238 81.6827 218.825 81.912 219.561 81.912C220.115 81.912 220.569 81.784 220.921 81.528C221.283 81.2613 221.534 80.9147 221.673 80.488L223.113 80.6C222.889 81.3573 222.462 81.9813 221.833 82.472C221.214 82.952 220.457 83.192 219.561 83.192ZM217.081 77.992H221.769C221.705 77.1707 221.465 76.568 221.049 76.184C220.643 75.8 220.126 75.608 219.497 75.608C218.846 75.608 218.307 75.8107 217.881 76.216C217.465 76.6107 217.198 77.2027 217.081 77.992ZM232.53 83.192C231.73 83.192 231.036 83.0107 230.45 82.648C229.874 82.2853 229.426 81.7733 229.106 81.112C228.796 80.44 228.642 79.656 228.642 78.76C228.642 77.864 228.796 77.0853 229.106 76.424C229.426 75.7627 229.868 75.2507 230.434 74.888C231.01 74.5147 231.687 74.328 232.466 74.328C233.202 74.328 233.852 74.504 234.418 74.856C234.983 75.1973 235.42 75.6987 235.73 76.36C236.05 77.0213 236.21 77.8267 236.21 78.776V79.176H230.049C230.103 80.0827 230.343 80.7653 230.77 81.224C231.207 81.6827 231.794 81.912 232.53 81.912C233.084 81.912 233.538 81.784 233.89 81.528C234.252 81.2613 234.503 80.9147 234.642 80.488L236.082 80.6C235.858 81.3573 235.431 81.9813 234.802 82.472C234.183 82.952 233.426 83.192 232.53 83.192ZM230.049 77.992H234.738C234.674 77.1707 234.434 76.568 234.018 76.184C233.612 75.8 233.095 75.608 232.466 75.608C231.815 75.608 231.276 75.8107 230.85 76.216C230.434 76.6107 230.167 77.2027 230.049 77.992ZM240.537 83.192C239.662 83.192 238.963 82.9893 238.441 82.584C237.929 82.1787 237.673 81.6133 237.673 80.888C237.673 80.1627 237.886 79.592 238.313 79.176C238.739 78.76 239.417 78.4667 240.345 78.296L243.353 77.736C243.353 77.0213 243.182 76.488 242.841 76.136C242.51 75.784 242.009 75.608 241.337 75.608C240.75 75.608 240.286 75.7413 239.945 76.008C239.603 76.264 239.369 76.6373 239.241 77.128L237.817 77.016C237.977 76.216 238.361 75.5707 238.969 75.08C239.587 74.5787 240.377 74.328 241.337 74.328C242.425 74.328 243.257 74.6373 243.833 75.256C244.409 75.864 244.697 76.7067 244.697 77.784V81.288C244.697 81.48 244.729 81.6187 244.793 81.704C244.867 81.7787 244.985 81.816 245.145 81.816H245.481V83C245.438 83.0107 245.369 83.016 245.273 83.016C245.177 83.0267 245.075 83.032 244.969 83.032C244.585 83.032 244.27 82.9733 244.025 82.856C243.79 82.728 243.619 82.536 243.513 82.28C243.406 82.0133 243.353 81.6667 243.353 81.24L243.513 81.272C243.438 81.6347 243.257 81.9653 242.969 82.264C242.681 82.552 242.323 82.7813 241.897 82.952C241.47 83.112 241.017 83.192 240.537 83.192ZM240.665 82.008C241.23 82.008 241.71 81.9013 242.105 81.688C242.51 81.464 242.819 81.1653 243.033 80.792C243.246 80.408 243.353 79.9813 243.353 79.512V78.904L240.601 79.416C240.025 79.5227 239.625 79.688 239.401 79.912C239.187 80.1253 239.081 80.408 239.081 80.76C239.081 81.1547 239.219 81.464 239.497 81.688C239.785 81.9013 240.174 82.008 240.665 82.008ZM250.056 83.192C249.298 83.192 248.653 83.0693 248.12 82.824C247.597 82.5787 247.186 82.2427 246.888 81.816C246.6 81.3787 246.434 80.8827 246.392 80.328L247.799 80.232C247.885 80.744 248.104 81.1547 248.456 81.464C248.808 81.7627 249.341 81.912 250.056 81.912C250.632 81.912 251.09 81.8213 251.432 81.64C251.784 81.448 251.96 81.144 251.96 80.728C251.96 80.504 251.906 80.3173 251.8 80.168C251.693 80.0187 251.485 79.8907 251.176 79.784C250.866 79.6667 250.408 79.5547 249.799 79.448C248.989 79.2987 248.349 79.1173 247.88 78.904C247.421 78.68 247.09 78.408 246.888 78.088C246.696 77.7573 246.6 77.368 246.6 76.92C246.6 76.1627 246.877 75.544 247.432 75.064C247.986 74.5733 248.776 74.328 249.799 74.328C250.493 74.328 251.074 74.456 251.544 74.712C252.024 74.9573 252.397 75.288 252.664 75.704C252.941 76.1093 253.122 76.5573 253.208 77.048L251.8 77.144C251.736 76.8453 251.618 76.584 251.448 76.36C251.277 76.1253 251.053 75.944 250.776 75.816C250.498 75.6773 250.168 75.608 249.784 75.608C249.176 75.608 248.728 75.7253 248.44 75.96C248.152 76.1947 248.008 76.4933 248.008 76.856C248.008 77.1333 248.072 77.3627 248.2 77.544C248.338 77.7147 248.557 77.8587 248.856 77.976C249.154 78.0827 249.554 78.1787 250.056 78.264C250.92 78.4133 251.592 78.5947 252.072 78.808C252.552 79.0213 252.888 79.2827 253.08 79.592C253.272 79.9013 253.368 80.28 253.368 80.728C253.368 81.2507 253.218 81.6987 252.92 82.072C252.632 82.4347 252.237 82.712 251.736 82.904C251.245 83.096 250.685 83.192 250.056 83.192ZM255.32 85.4V84.216H256.296C256.595 84.216 256.813 84.168 256.952 84.072C257.101 83.9867 257.213 83.8427 257.288 83.64L257.592 82.84H257.128L254.024 74.52H255.496L258.024 81.592L260.44 74.52H261.912L258.472 84.072C258.312 84.5307 258.072 84.8667 257.752 85.08C257.432 85.2933 256.989 85.4 256.424 85.4H255.32ZM270.65 83C269.882 83 269.311 82.824 268.938 82.472C268.575 82.12 268.394 81.5707 268.394 80.824V72.536H269.738V80.792C269.738 81.176 269.823 81.4427 269.994 81.592C270.164 81.7413 270.426 81.816 270.778 81.816H271.994V83H270.65ZM267.146 75.704V74.52H271.994V75.704H267.146ZM276.873 83.192C276.095 83.192 275.412 83.0107 274.825 82.648C274.239 82.2853 273.785 81.7733 273.465 81.112C273.145 80.44 272.985 79.656 272.985 78.76C272.985 77.8533 273.145 77.0693 273.465 76.408C273.785 75.7467 274.239 75.2347 274.825 74.872C275.412 74.5093 276.095 74.328 276.873 74.328C277.652 74.328 278.329 74.5093 278.905 74.872C279.492 75.2347 279.945 75.7467 280.265 76.408C280.585 77.0693 280.745 77.8533 280.745 78.76C280.745 79.656 280.585 80.44 280.265 81.112C279.945 81.7733 279.492 82.2853 278.905 82.648C278.329 83.0107 277.652 83.192 276.873 83.192ZM276.873 81.912C277.652 81.912 278.255 81.6347 278.681 81.08C279.119 80.5147 279.337 79.7413 279.337 78.76C279.337 77.7787 279.119 77.0107 278.681 76.456C278.255 75.8907 277.652 75.608 276.873 75.608C276.095 75.608 275.487 75.8907 275.049 76.456C274.612 77.0107 274.393 77.7787 274.393 78.76C274.393 79.7413 274.612 80.5147 275.049 81.08C275.487 81.6347 276.095 81.912 276.873 81.912ZM286.733 83V74.52H288.077V83H286.733ZM286.701 73.192V71.624H288.109V73.192H286.701ZM290.796 83V74.52H292.028L292.076 76.68L291.916 76.536C292.022 76.0347 292.209 75.624 292.476 75.304C292.742 74.9733 293.062 74.728 293.436 74.568C293.82 74.408 294.23 74.328 294.668 74.328C295.318 74.328 295.852 74.472 296.268 74.76C296.694 75.048 297.009 75.4373 297.212 75.928C297.425 76.408 297.532 76.9467 297.532 77.544V83H296.188V77.928C296.188 77.4053 296.124 76.968 295.996 76.616C295.878 76.2533 295.686 75.9813 295.42 75.8C295.153 75.608 294.806 75.512 294.38 75.512C293.729 75.512 293.19 75.72 292.764 76.136C292.348 76.5413 292.14 77.1387 292.14 77.928V83H290.796ZM302.556 83C301.788 83 301.217 82.824 300.844 82.472C300.481 82.12 300.3 81.5707 300.3 80.824V72.536H301.644V80.792C301.644 81.176 301.729 81.4427 301.9 81.592C302.071 81.7413 302.332 81.816 302.684 81.816H303.9V83H302.556ZM299.052 75.704V74.52H303.9V75.704H299.052ZM308.78 83.192C307.98 83.192 307.286 83.0107 306.7 82.648C306.124 82.2853 305.676 81.7733 305.356 81.112C305.046 80.44 304.892 79.656 304.892 78.76C304.892 77.864 305.046 77.0853 305.356 76.424C305.676 75.7627 306.118 75.2507 306.684 74.888C307.26 74.5147 307.937 74.328 308.716 74.328C309.452 74.328 310.102 74.504 310.668 74.856C311.233 75.1973 311.67 75.6987 311.98 76.36C312.3 77.0213 312.46 77.8267 312.46 78.776V79.176H306.299C306.353 80.0827 306.593 80.7653 307.02 81.224C307.457 81.6827 308.044 81.912 308.78 81.912C309.334 81.912 309.788 81.784 310.14 81.528C310.502 81.2613 310.753 80.9147 310.892 80.488L312.332 80.6C312.108 81.3573 311.681 81.9813 311.052 82.472C310.433 82.952 309.676 83.192 308.78 83.192ZM306.299 77.992H310.988C310.924 77.1707 310.684 76.568 310.268 76.184C309.862 75.8 309.345 75.608 308.716 75.608C308.065 75.608 307.526 75.8107 307.1 76.216C306.684 76.6107 306.417 77.2027 306.299 77.992ZM317.496 85.592C316.888 85.592 316.339 85.4907 315.848 85.288C315.357 85.0853 314.947 84.7973 314.616 84.424C314.285 84.0507 314.061 83.6187 313.944 83.128L315.352 83.032C315.48 83.4267 315.704 83.736 316.024 83.96C316.355 84.1947 316.845 84.312 317.496 84.312C318.264 84.312 318.851 84.1573 319.256 83.848C319.672 83.5387 319.88 83.0747 319.88 82.456V81.08C319.677 81.528 319.352 81.8853 318.904 82.152C318.456 82.4187 317.955 82.552 317.4 82.552C316.685 82.552 316.045 82.376 315.48 82.024C314.925 81.672 314.488 81.1867 314.168 80.568C313.859 79.9493 313.704 79.24 313.704 78.44C313.704 77.6293 313.859 76.92 314.168 76.312C314.477 75.6933 314.904 75.208 315.448 74.856C316.003 74.504 316.632 74.328 317.336 74.328C317.933 74.328 318.467 74.4667 318.936 74.744C319.416 75.0213 319.752 75.3947 319.944 75.864V74.52H321.224V82.424C321.224 83.0853 321.075 83.6507 320.776 84.12C320.477 84.6 320.051 84.9627 319.496 85.208C318.941 85.464 318.275 85.592 317.496 85.592ZM317.464 81.272C318.189 81.272 318.771 81.0213 319.208 80.52C319.645 80.008 319.869 79.3147 319.88 78.44C319.891 77.8533 319.795 77.352 319.592 76.936C319.4 76.5093 319.117 76.184 318.744 75.96C318.381 75.7253 317.955 75.608 317.464 75.608C316.717 75.608 316.136 75.864 315.72 76.376C315.315 76.8773 315.112 77.5653 315.112 78.44C315.112 79.3147 315.32 80.008 315.736 80.52C316.163 81.0213 316.739 81.272 317.464 81.272ZM323.78 83V74.52H324.964L325.028 76.664L324.9 76.616C325.007 75.8907 325.236 75.3627 325.588 75.032C325.951 74.6907 326.431 74.52 327.028 74.52H327.86V75.8H327.044C326.617 75.8 326.26 75.88 325.972 76.04C325.695 76.1893 325.481 76.4187 325.332 76.728C325.193 77.0267 325.124 77.4107 325.124 77.88V83H323.78ZM331.49 83.192C330.615 83.192 329.917 82.9893 329.394 82.584C328.882 82.1787 328.626 81.6133 328.626 80.888C328.626 80.1627 328.839 79.592 329.266 79.176C329.693 78.76 330.37 78.4667 331.298 78.296L334.306 77.736C334.306 77.0213 334.135 76.488 333.794 76.136C333.463 75.784 332.962 75.608 332.29 75.608C331.703 75.608 331.239 75.7413 330.898 76.008C330.557 76.264 330.322 76.6373 330.194 77.128L328.77 77.016C328.93 76.216 329.314 75.5707 329.922 75.08C330.541 74.5787 331.33 74.328 332.29 74.328C333.378 74.328 334.21 74.6373 334.786 75.256C335.362 75.864 335.65 76.7067 335.65 77.784V81.288C335.65 81.48 335.682 81.6187 335.746 81.704C335.821 81.7787 335.938 81.816 336.098 81.816H336.434V83C336.391 83.0107 336.322 83.016 336.226 83.016C336.13 83.0267 336.029 83.032 335.922 83.032C335.538 83.032 335.223 82.9733 334.978 82.856C334.743 82.728 334.573 82.536 334.466 82.28C334.359 82.0133 334.306 81.6667 334.306 81.24L334.466 81.272C334.391 81.6347 334.21 81.9653 333.922 82.264C333.634 82.552 333.277 82.7813 332.85 82.952C332.423 83.112 331.97 83.192 331.49 83.192ZM331.618 82.008C332.183 82.008 332.663 81.9013 333.058 81.688C333.463 81.464 333.773 81.1653 333.986 80.792C334.199 80.408 334.306 79.9813 334.306 79.512V78.904L331.554 79.416C330.978 79.5227 330.578 79.688 330.354 79.912C330.141 80.1253 330.034 80.408 330.034 80.76C330.034 81.1547 330.173 81.464 330.45 81.688C330.738 81.9013 331.127 82.008 331.618 82.008ZM340.634 83C339.866 83 339.295 82.824 338.922 82.472C338.559 82.12 338.378 81.5707 338.378 80.824V72.536H339.722V80.792C339.722 81.176 339.807 81.4427 339.978 81.592C340.149 81.7413 340.41 81.816 340.762 81.816H341.978V83H340.634ZM337.13 75.704V74.52H341.978V75.704H337.13ZM346.858 83.192C346.058 83.192 345.364 83.0107 344.778 82.648C344.202 82.2853 343.754 81.7733 343.434 81.112C343.124 80.44 342.97 79.656 342.97 78.76C342.97 77.864 343.124 77.0853 343.434 76.424C343.754 75.7627 344.196 75.2507 344.762 74.888C345.338 74.5147 346.015 74.328 346.794 74.328C347.53 74.328 348.18 74.504 348.746 74.856C349.311 75.1973 349.748 75.6987 350.058 76.36C350.378 77.0213 350.538 77.8267 350.538 78.776V79.176H344.378C344.431 80.0827 344.671 80.7653 345.098 81.224C345.535 81.6827 346.122 81.912 346.858 81.912C347.412 81.912 347.866 81.784 348.218 81.528C348.58 81.2613 348.831 80.9147 348.97 80.488L350.41 80.6C350.186 81.3573 349.759 81.9813 349.13 82.472C348.511 82.952 347.754 83.192 346.858 83.192ZM344.378 77.992H349.066C349.002 77.1707 348.762 76.568 348.346 76.184C347.94 75.8 347.423 75.608 346.794 75.608C346.143 75.608 345.604 75.8107 345.178 76.216C344.762 76.6107 344.495 77.2027 344.378 77.992Z" fill="white" fill-opacity="0.7"/>
<defs>
<filter id="filter0_d_179_35211" x="20" y="20" width="52" height="52" filterUnits="userSpaceOnUse" color-interpolation-filters="sRGB">
<feFlood flood-opacity="0" result="BackgroundImageFix"/>
<feColorMatrix in="SourceAlpha" type="matrix" values="0 0 0 0 0 0 0 0 0 0 0 0 0 0 0 0 0 0 127 0" result="hardAlpha"/>
<feOffset/>
<feGaussianBlur stdDeviation="2"/>
<feComposite in2="hardAlpha" operator="out"/>
<feColorMatrix type="matrix" values="0 0 0 0 0.0470588 0 0 0 0 1 0 0 0 0 0.521569 0 0 0 1 0"/>
<feBlend mode="normal" in2="BackgroundImageFix" result="effect1_dropShadow_179_35211"/>
<feBlend mode="normal" in="SourceGraphic" in2="effect1_dropShadow_179_35211" result="shape"/>
</filter>
<radialGradient id="paint0_radial_179_35211" cx="0" cy="0" r="1" gradientUnits="userSpaceOnUse" gradientTransform="translate(27.5 26.5) rotate(46.1535) scale(52.6901)">
<stop stop-color="#272727"/>
<stop offset="1"/>
</radialGradient>
<linearGradient id="paint1_linear_179_35211" x1="28" y1="26.5" x2="63.5" y2="68" gradientUnits="userSpaceOnUse">
<stop/>
<stop offset="1" stop-color="#2D2D2D"/>
</linearGradient>
</defs>
</svg>
