<svg width="397" height="107" viewBox="0 0 397 107" fill="none" xmlns="http://www.w3.org/2000/svg">
<rect width="397" height="107" rx="16" fill="#0A0A0A"/>
<rect x="1" y="1" width="395" height="105" rx="15" stroke="white" stroke-opacity="0.04" stroke-width="2"/>
<g filter="url(#filter0_d_179_35205)">
<rect x="24" y="24" width="44" height="44" rx="12" fill="url(#paint0_radial_179_35205)" shape-rendering="crispEdges"/>
<rect x="24.5" y="24.5" width="43" height="43" rx="11.5" stroke="url(#paint1_linear_179_35205)" shape-rendering="crispEdges"/>
<path fill-rule="evenodd" clip-rule="evenodd" d="M38.2222 40.75C38.7592 40.75 39.1944 41.1833 39.1944 41.7177V50.3624C39.2266 50.3978 39.298 50.464 39.4443 50.5637C39.8207 50.82 40.4156 51.113 41.3427 51.5652L45.0278 53.3627V46.0726C45.0278 45.5381 45.4631 45.1048 46 45.1048C46.5369 45.1048 46.9722 45.5381 46.9722 46.0726V53.3627L50.6573 51.5652C51.5844 51.113 52.1793 50.82 52.5557 50.5637C52.702 50.464 52.7734 50.3978 52.8056 50.3624V41.7177C52.8056 41.1833 53.2408 40.75 53.7778 40.75C54.3147 40.75 54.75 41.1833 54.75 41.7177V50.4274C54.75 51.2779 54.1645 51.8132 53.6535 52.1612C53.1461 52.5067 52.4203 52.8607 51.5812 53.2699L47.4563 55.282C47.423 55.2983 47.3892 55.3149 47.3549 55.3318C46.9591 55.5268 46.5059 55.75 46 55.75C45.4941 55.75 45.0409 55.5268 44.645 55.3318C44.6108 55.3149 44.577 55.2983 44.5437 55.282L40.4188 53.2699C39.5796 52.8606 38.8539 52.5067 38.3465 52.1612C37.8355 51.8132 37.25 51.2779 37.25 50.4274V41.7177C37.25 41.1833 37.6853 40.75 38.2222 40.75ZM52.8289 50.3317C52.8295 50.3316 52.8277 50.3353 52.8221 50.3428C52.8256 50.3355 52.8284 50.3317 52.8289 50.3317ZM39.1711 50.3317C39.1716 50.3317 39.1744 50.3355 39.1779 50.3428C39.1723 50.3353 39.1705 50.3316 39.1711 50.3317Z" fill="#0CFF85"/>
<path d="M44.7083 36.6608C45.1281 36.4537 45.5412 36.25 46 36.25C46.4588 36.25 46.8719 36.4537 47.2917 36.6608L51.6161 38.7801C52.4919 39.2093 53.2243 39.5681 53.7311 39.9148C54.2406 40.2634 54.75 40.7513 54.75 41.5C54.75 42.2487 54.2406 42.7366 53.7311 43.0852C53.2243 43.4319 52.4919 43.7907 51.6161 44.2199L47.2917 46.3393C46.8719 46.5463 46.4588 46.75 46 46.75C45.5412 46.75 45.1281 46.5463 44.7083 46.3393L44.7083 46.3392L40.3839 44.2199C39.5081 43.7907 38.7757 43.4319 38.2689 43.0852C37.7594 42.7366 37.25 42.2487 37.25 41.5C37.25 40.7513 37.7594 40.2634 38.2689 39.9148C38.7757 39.5681 39.5081 39.2093 40.3839 38.7801L44.7083 36.6608Z" fill="#0CFF85"/>
</g>
<path d="M104 52.64C102.053 52.64 100.307 52.32 98.76 51.68C97.24 51.04 96.04 50.0933 95.16 48.84C94.28 47.5867 93.84 46.04 93.84 44.2C93.84 42.1467 94.4533 40.44 95.68 39.08C96.9333 37.72 98.6 36.8133 100.68 36.36L100.76 37.16C99.08 36.7333 97.72 36 96.68 34.96C95.64 33.92 95.12 32.52 95.12 30.76C95.12 29.2667 95.4933 27.9333 96.24 26.76C97.0133 25.5867 98.0667 24.6667 99.4 24C100.733 23.3067 102.267 22.96 104 22.96C105.733 22.96 107.267 23.3067 108.6 24C109.96 24.6667 111.013 25.5867 111.76 26.76C112.507 27.9333 112.88 29.2667 112.88 30.76C112.88 32.52 112.36 33.92 111.32 34.96C110.307 36 108.947 36.7333 107.24 37.16L107.32 36.36C109.4 36.84 111.053 37.76 112.28 39.12C113.533 40.4533 114.16 42.1467 114.16 44.2C114.16 46.04 113.72 47.5867 112.84 48.84C111.96 50.0933 110.76 51.04 109.24 51.68C107.72 52.32 105.973 52.64 104 52.64ZM104 48.72C105.68 48.72 107.067 48.3333 108.16 47.56C109.253 46.76 109.8 45.5333 109.8 43.88C109.8 42.3333 109.307 41.1067 108.32 40.2C107.36 39.2667 105.92 38.8 104 38.8C102.107 38.8 100.667 39.2667 99.68 40.2C98.6933 41.1067 98.2 42.3333 98.2 43.88C98.2 45.5333 98.7467 46.76 99.84 47.56C100.933 48.3333 102.32 48.72 104 48.72ZM104 35.04C105.36 35.04 106.453 34.6933 107.28 34C108.107 33.3067 108.52 32.2667 108.52 30.88C108.52 29.6533 108.107 28.68 107.28 27.96C106.48 27.24 105.387 26.88 104 26.88C102.613 26.88 101.507 27.24 100.68 27.96C99.88 28.68 99.48 29.6533 99.48 30.88C99.48 32.2667 99.8933 33.3067 100.72 34C101.547 34.6933 102.64 35.04 104 35.04ZM118.344 42.16V38.48H137.624V42.16H118.344ZM126.144 49.96V30.68H129.824V49.96H126.144Z" fill="white"/>
<path d="M93.472 83V71.64H95.392L99.024 81.496L102.64 71.64H104.56V83H103.184V74.2L99.936 83H98.096L94.848 74.2V83H93.472ZM109.783 83.192C108.94 83.192 108.263 82.9093 107.751 82.344C107.249 81.768 106.999 80.9787 106.999 79.976V74.52H108.343V79.608C108.343 80.4293 108.487 81.0373 108.775 81.432C109.073 81.816 109.527 82.008 110.135 82.008C110.807 82.008 111.335 81.7947 111.719 81.368C112.103 80.9307 112.295 80.3333 112.295 79.576V74.52H113.639V83H112.359V80.904L112.567 81.016C112.396 81.7093 112.071 82.248 111.591 82.632C111.111 83.0053 110.508 83.192 109.783 83.192ZM117.866 83C117.375 83 116.975 82.872 116.666 82.616C116.357 82.36 116.202 81.9547 116.202 81.4V71.64H117.546V81.288C117.546 81.4587 117.589 81.592 117.674 81.688C117.77 81.7733 117.903 81.816 118.074 81.816H118.81V83H117.866ZM123.087 83C122.319 83 121.748 82.824 121.375 82.472C121.012 82.12 120.831 81.5707 120.831 80.824V72.536H122.175V80.792C122.175 81.176 122.26 81.4427 122.431 81.592C122.602 81.7413 122.863 81.816 123.215 81.816H124.431V83H123.087ZM119.583 75.704V74.52H124.431V75.704H119.583ZM126.155 83V74.52H127.499V83H126.155ZM126.123 73.192V71.624H127.531V73.192H126.123ZM129.485 78.968V77.704H134.781V78.968H129.485ZM141.308 83.256C140.295 83.256 139.404 83.0213 138.636 82.552C137.868 82.072 137.271 81.3893 136.844 80.504C136.418 79.6187 136.204 78.5627 136.204 77.336C136.204 76.1093 136.418 75.0533 136.844 74.168C137.271 73.272 137.868 72.584 138.636 72.104C139.404 71.624 140.295 71.384 141.308 71.384C142.684 71.384 143.751 71.7307 144.508 72.424C145.266 73.1173 145.762 74.0613 145.996 75.256L144.54 75.352C144.38 74.5413 144.039 73.9013 143.516 73.432C142.994 72.9627 142.258 72.728 141.308 72.728C140.583 72.728 139.943 72.9147 139.388 73.288C138.844 73.6507 138.418 74.1787 138.108 74.872C137.799 75.5547 137.644 76.376 137.644 77.336C137.644 78.296 137.799 79.1173 138.108 79.8C138.418 80.4827 138.844 81.0053 139.388 81.368C139.943 81.7307 140.583 81.912 141.308 81.912C142.3 81.912 143.068 81.656 143.612 81.144C144.156 80.6213 144.498 79.9173 144.636 79.032L146.092 79.128C145.954 79.9493 145.682 80.6693 145.276 81.288C144.871 81.9067 144.332 82.392 143.66 82.744C142.999 83.0853 142.215 83.256 141.308 83.256ZM148.046 83V71.64H149.39V76.392L149.23 76.36C149.336 75.8907 149.518 75.5067 149.774 75.208C150.03 74.9093 150.344 74.6907 150.718 74.552C151.091 74.4027 151.502 74.328 151.95 74.328C152.558 74.328 153.07 74.4667 153.486 74.744C153.912 75.0107 154.232 75.3893 154.446 75.88C154.67 76.36 154.782 76.9147 154.782 77.544V83H153.438V77.928C153.438 77.1067 153.288 76.4987 152.99 76.104C152.702 75.7093 152.259 75.512 151.662 75.512C150.979 75.512 150.43 75.72 150.014 76.136C149.598 76.552 149.39 77.1547 149.39 77.944V83H148.046ZM159.474 83.192C158.6 83.192 157.901 82.9893 157.378 82.584C156.866 82.1787 156.61 81.6133 156.61 80.888C156.61 80.1627 156.824 79.592 157.25 79.176C157.677 78.76 158.354 78.4667 159.282 78.296L162.29 77.736C162.29 77.0213 162.12 76.488 161.778 76.136C161.448 75.784 160.946 75.608 160.274 75.608C159.688 75.608 159.224 75.7413 158.882 76.008C158.541 76.264 158.306 76.6373 158.178 77.128L156.754 77.016C156.914 76.216 157.298 75.5707 157.906 75.08C158.525 74.5787 159.314 74.328 160.274 74.328C161.362 74.328 162.194 74.6373 162.77 75.256C163.346 75.864 163.634 76.7067 163.634 77.784V81.288C163.634 81.48 163.666 81.6187 163.73 81.704C163.805 81.7787 163.922 81.816 164.082 81.816H164.418V83C164.376 83.0107 164.306 83.016 164.21 83.016C164.114 83.0267 164.013 83.032 163.906 83.032C163.522 83.032 163.208 82.9733 162.962 82.856C162.728 82.728 162.557 82.536 162.45 82.28C162.344 82.0133 162.29 81.6667 162.29 81.24L162.45 81.272C162.376 81.6347 162.194 81.9653 161.906 82.264C161.618 82.552 161.261 82.7813 160.834 82.952C160.408 83.112 159.954 83.192 159.474 83.192ZM159.602 82.008C160.168 82.008 160.648 81.9013 161.042 81.688C161.448 81.464 161.757 81.1653 161.97 80.792C162.184 80.408 162.29 79.9813 162.29 79.512V78.904L159.538 79.416C158.962 79.5227 158.562 79.688 158.338 79.912C158.125 80.1253 158.018 80.408 158.018 80.76C158.018 81.1547 158.157 81.464 158.434 81.688C158.722 81.9013 159.112 82.008 159.602 82.008ZM165.874 83V74.52H167.218V83H165.874ZM165.842 73.192V71.624H167.25V73.192H165.842ZM169.936 83V74.52H171.168L171.216 76.68L171.056 76.536C171.163 76.0347 171.35 75.624 171.616 75.304C171.883 74.9733 172.203 74.728 172.576 74.568C172.96 74.408 173.371 74.328 173.808 74.328C174.459 74.328 174.992 74.472 175.408 74.76C175.835 75.048 176.15 75.4373 176.352 75.928C176.566 76.408 176.672 76.9467 176.672 77.544V83H175.328V77.928C175.328 77.4053 175.264 76.968 175.136 76.616C175.019 76.2533 174.827 75.9813 174.56 75.8C174.294 75.608 173.947 75.512 173.52 75.512C172.87 75.512 172.331 75.72 171.904 76.136C171.488 76.5413 171.28 77.1387 171.28 77.928V83H169.936ZM187.777 83.256C186.764 83.256 185.873 83.0213 185.105 82.552C184.337 82.072 183.74 81.3893 183.313 80.504C182.886 79.6187 182.673 78.5627 182.673 77.336C182.673 76.1093 182.886 75.0533 183.313 74.168C183.74 73.272 184.337 72.584 185.105 72.104C185.873 71.624 186.764 71.384 187.777 71.384C189.153 71.384 190.22 71.7307 190.977 72.424C191.734 73.1173 192.23 74.0613 192.465 75.256L191.009 75.352C190.849 74.5413 190.508 73.9013 189.985 73.432C189.462 72.9627 188.726 72.728 187.777 72.728C187.052 72.728 186.412 72.9147 185.857 73.288C185.313 73.6507 184.886 74.1787 184.577 74.872C184.268 75.5547 184.113 76.376 184.113 77.336C184.113 78.296 184.268 79.1173 184.577 79.8C184.886 80.4827 185.313 81.0053 185.857 81.368C186.412 81.7307 187.052 81.912 187.777 81.912C188.769 81.912 189.537 81.656 190.081 81.144C190.625 80.6213 190.966 79.9173 191.105 79.032L192.561 79.128C192.422 79.9493 192.15 80.6693 191.745 81.288C191.34 81.9067 190.801 82.392 190.129 82.744C189.468 83.0853 188.684 83.256 187.777 83.256ZM197.67 83.192C196.891 83.192 196.209 83.0107 195.622 82.648C195.035 82.2853 194.582 81.7733 194.262 81.112C193.942 80.44 193.782 79.656 193.782 78.76C193.782 77.8533 193.942 77.0693 194.262 76.408C194.582 75.7467 195.035 75.2347 195.622 74.872C196.209 74.5093 196.891 74.328 197.67 74.328C198.449 74.328 199.126 74.5093 199.702 74.872C200.289 75.2347 200.742 75.7467 201.062 76.408C201.382 77.0693 201.542 77.8533 201.542 78.76C201.542 79.656 201.382 80.44 201.062 81.112C200.742 81.7733 200.289 82.2853 199.702 82.648C199.126 83.0107 198.449 83.192 197.67 83.192ZM197.67 81.912C198.449 81.912 199.051 81.6347 199.478 81.08C199.915 80.5147 200.134 79.7413 200.134 78.76C200.134 77.7787 199.915 77.0107 199.478 76.456C199.051 75.8907 198.449 75.608 197.67 75.608C196.891 75.608 196.283 75.8907 195.846 76.456C195.409 77.0107 195.19 77.7787 195.19 78.76C195.19 79.7413 195.409 80.5147 195.846 81.08C196.283 81.6347 196.891 81.912 197.67 81.912ZM205.284 83L202.196 74.52H203.668L206.132 81.624L208.596 74.52H210.068L206.98 83H205.284ZM214.592 83.192C213.792 83.192 213.099 83.0107 212.512 82.648C211.936 82.2853 211.488 81.7733 211.168 81.112C210.859 80.44 210.704 79.656 210.704 78.76C210.704 77.864 210.859 77.0853 211.168 76.424C211.488 75.7627 211.931 75.2507 212.496 74.888C213.072 74.5147 213.749 74.328 214.528 74.328C215.264 74.328 215.915 74.504 216.48 74.856C217.045 75.1973 217.483 75.6987 217.792 76.36C218.112 77.0213 218.272 77.8267 218.272 78.776V79.176H212.112C212.165 80.0827 212.405 80.7653 212.832 81.224C213.269 81.6827 213.856 81.912 214.592 81.912C215.147 81.912 215.6 81.784 215.952 81.528C216.315 81.2613 216.565 80.9147 216.704 80.488L218.144 80.6C217.92 81.3573 217.493 81.9813 216.864 82.472C216.245 82.952 215.488 83.192 214.592 83.192ZM212.112 77.992H216.8C216.736 77.1707 216.496 76.568 216.08 76.184C215.675 75.8 215.157 75.608 214.528 75.608C213.877 75.608 213.339 75.8107 212.912 76.216C212.496 76.6107 212.229 77.2027 212.112 77.992ZM220.093 83V74.52H221.277L221.341 76.664L221.213 76.616C221.319 75.8907 221.549 75.3627 221.901 75.032C222.263 74.6907 222.743 74.52 223.341 74.52H224.173V75.8H223.357C222.93 75.8 222.573 75.88 222.285 76.04C222.007 76.1893 221.794 76.4187 221.645 76.728C221.506 77.0267 221.437 77.4107 221.437 77.88V83H220.093ZM227.802 83.192C226.928 83.192 226.229 82.9893 225.706 82.584C225.194 82.1787 224.938 81.6133 224.938 80.888C224.938 80.1627 225.152 79.592 225.578 79.176C226.005 78.76 226.682 78.4667 227.61 78.296L230.618 77.736C230.618 77.0213 230.448 76.488 230.106 76.136C229.776 75.784 229.274 75.608 228.602 75.608C228.016 75.608 227.552 75.7413 227.21 76.008C226.869 76.264 226.634 76.6373 226.506 77.128L225.082 77.016C225.242 76.216 225.626 75.5707 226.234 75.08C226.853 74.5787 227.642 74.328 228.602 74.328C229.69 74.328 230.522 74.6373 231.098 75.256C231.674 75.864 231.962 76.7067 231.962 77.784V81.288C231.962 81.48 231.994 81.6187 232.058 81.704C232.133 81.7787 232.25 81.816 232.41 81.816H232.746V83C232.704 83.0107 232.634 83.016 232.538 83.016C232.442 83.0267 232.341 83.032 232.234 83.032C231.85 83.032 231.536 82.9733 231.29 82.856C231.056 82.728 230.885 82.536 230.778 82.28C230.672 82.0133 230.618 81.6667 230.618 81.24L230.778 81.272C230.704 81.6347 230.522 81.9653 230.234 82.264C229.946 82.552 229.589 82.7813 229.162 82.952C228.736 83.112 228.282 83.192 227.802 83.192ZM227.93 82.008C228.496 82.008 228.976 81.9013 229.37 81.688C229.776 81.464 230.085 81.1653 230.298 80.792C230.512 80.408 230.618 79.9813 230.618 79.512V78.904L227.866 79.416C227.29 79.5227 226.89 79.688 226.666 79.912C226.453 80.1253 226.346 80.408 226.346 80.76C226.346 81.1547 226.485 81.464 226.762 81.688C227.05 81.9013 227.44 82.008 227.93 82.008ZM237.449 85.592C236.841 85.592 236.292 85.4907 235.801 85.288C235.31 85.0853 234.9 84.7973 234.569 84.424C234.238 84.0507 234.014 83.6187 233.897 83.128L235.305 83.032C235.433 83.4267 235.657 83.736 235.977 83.96C236.308 84.1947 236.798 84.312 237.449 84.312C238.217 84.312 238.804 84.1573 239.209 83.848C239.625 83.5387 239.833 83.0747 239.833 82.456V81.08C239.63 81.528 239.305 81.8853 238.857 82.152C238.409 82.4187 237.908 82.552 237.353 82.552C236.638 82.552 235.998 82.376 235.433 82.024C234.878 81.672 234.441 81.1867 234.121 80.568C233.812 79.9493 233.657 79.24 233.657 78.44C233.657 77.6293 233.812 76.92 234.121 76.312C234.43 75.6933 234.857 75.208 235.401 74.856C235.956 74.504 236.585 74.328 237.289 74.328C237.886 74.328 238.42 74.4667 238.889 74.744C239.369 75.0213 239.705 75.3947 239.897 75.864V74.52H241.177V82.424C241.177 83.0853 241.028 83.6507 240.729 84.12C240.43 84.6 240.004 84.9627 239.449 85.208C238.894 85.464 238.228 85.592 237.449 85.592ZM237.417 81.272C238.142 81.272 238.724 81.0213 239.161 80.52C239.598 80.008 239.822 79.3147 239.833 78.44C239.844 77.8533 239.748 77.352 239.545 76.936C239.353 76.5093 239.07 76.184 238.697 75.96C238.334 75.7253 237.908 75.608 237.417 75.608C236.67 75.608 236.089 75.864 235.673 76.376C235.268 76.8773 235.065 77.5653 235.065 78.44C235.065 79.3147 235.273 80.008 235.689 80.52C236.116 81.0213 236.692 81.272 237.417 81.272ZM246.889 83.192C246.089 83.192 245.396 83.0107 244.809 82.648C244.233 82.2853 243.785 81.7733 243.465 81.112C243.156 80.44 243.001 79.656 243.001 78.76C243.001 77.864 243.156 77.0853 243.465 76.424C243.785 75.7627 244.228 75.2507 244.793 74.888C245.369 74.5147 246.046 74.328 246.825 74.328C247.561 74.328 248.212 74.504 248.777 74.856C249.342 75.1973 249.78 75.6987 250.089 76.36C250.409 77.0213 250.569 77.8267 250.569 78.776V79.176H244.409C244.462 80.0827 244.702 80.7653 245.129 81.224C245.566 81.6827 246.153 81.912 246.889 81.912C247.444 81.912 247.897 81.784 248.249 81.528C248.612 81.2613 248.862 80.9147 249.001 80.488L250.441 80.6C250.217 81.3573 249.79 81.9813 249.161 82.472C248.542 82.952 247.785 83.192 246.889 83.192ZM244.409 77.992H249.097C249.033 77.1707 248.793 76.568 248.377 76.184C247.972 75.8 247.454 75.608 246.825 75.608C246.174 75.608 245.636 75.8107 245.209 76.216C244.793 76.6107 244.526 77.2027 244.409 77.992Z" fill="white" fill-opacity="0.7"/>
<defs>
<filter id="filter0_d_179_35205" x="20" y="20" width="52" height="52" filterUnits="userSpaceOnUse" color-interpolation-filters="sRGB">
<feFlood flood-opacity="0" result="BackgroundImageFix"/>
<feColorMatrix in="SourceAlpha" type="matrix" values="0 0 0 0 0 0 0 0 0 0 0 0 0 0 0 0 0 0 127 0" result="hardAlpha"/>
<feOffset/>
<feGaussianBlur stdDeviation="2"/>
<feComposite in2="hardAlpha" operator="out"/>
<feColorMatrix type="matrix" values="0 0 0 0 0.0470588 0 0 0 0 1 0 0 0 0 0.521569 0 0 0 1 0"/>
<feBlend mode="normal" in2="BackgroundImageFix" result="effect1_dropShadow_179_35205"/>
<feBlend mode="normal" in="SourceGraphic" in2="effect1_dropShadow_179_35205" result="shape"/>
</filter>
<radialGradient id="paint0_radial_179_35205" cx="0" cy="0" r="1" gradientUnits="userSpaceOnUse" gradientTransform="translate(27.5 26.5) rotate(46.1535) scale(52.6901)">
<stop stop-color="#272727"/>
<stop offset="1"/>
</radialGradient>
<linearGradient id="paint1_linear_179_35205" x1="28" y1="26.5" x2="63.5" y2="68" gradientUnits="userSpaceOnUse">
<stop/>
<stop offset="1" stop-color="#2D2D2D"/>
</linearGradient>
</defs>
</svg>
