<svg width="397" height="107" viewBox="0 0 397 107" fill="none" xmlns="http://www.w3.org/2000/svg">
<rect width="397" height="107" rx="16" fill="#0A0A0A"/>
<rect x="1" y="1" width="395" height="105" rx="15" stroke="white" stroke-opacity="0.04" stroke-width="2"/>
<g filter="url(#filter0_d_179_35199)">
<rect x="24" y="24" width="44" height="44" rx="12" fill="url(#paint0_radial_179_35199)" shape-rendering="crispEdges"/>
<rect x="24.5" y="24.5" width="43" height="43" rx="11.5" stroke="url(#paint1_linear_179_35199)" shape-rendering="crispEdges"/>
<path d="M48.0889 36.2499C48.8661 36.2495 49.4434 36.2491 49.9434 36.3827C51.2924 36.7433 52.3465 37.7947 52.708 39.1405C52.7934 39.4583 52.8239 39.8076 52.835 40.2196C52.9808 40.2325 53.1211 40.2474 53.2559 40.2655C54.1626 40.3871 54.9643 40.6522 55.6055 41.2919C56.2466 41.9316 56.5119 42.731 56.6338 43.6356C56.7499 44.4973 56.75 45.5859 56.75 46.9061V48.994C56.75 50.3141 56.7499 51.4029 56.6338 52.2645C56.5119 53.1689 56.2464 53.9677 55.6055 54.6073C54.9643 55.247 54.1626 55.512 53.2559 55.6337C52.3924 55.7494 51.3014 55.7499 49.9785 55.7499H43.9736C42.1918 55.7499 40.7556 55.75 39.626 55.5985C38.4533 55.4412 37.4659 55.1044 36.6816 54.3221C35.8974 53.5397 35.5591 52.5546 35.4014 51.3846C35.2495 50.2576 35.25 48.8236 35.25 47.0458V39.1747C35.2501 37.5594 36.5626 36.25 38.1816 36.2499H48.0889ZM51.5 45.9999C50.3954 45.9999 49.5 46.8953 49.5 47.9999C49.5 49.1044 50.3954 49.9999 51.5 49.9999C52.6046 49.9999 53.5 49.1044 53.5 47.9999C53.5 46.8953 52.6046 45.9999 51.5 45.9999ZM38.1816 38.2001C37.642 38.2001 37.2042 38.6363 37.2041 39.1747C37.2041 39.7132 37.6419 40.1503 38.1816 40.1503H49.9775C50.2899 40.1503 50.5894 40.1497 50.876 40.1512C50.867 39.8994 50.8505 39.7614 50.8193 39.6454C50.6386 38.9725 50.1119 38.4469 49.4375 38.2665C49.2203 38.2084 48.9259 38.2001 47.9541 38.2001H38.1816Z" fill="#0CFF85"/>
</g>
<path d="M100 52.64C98.0533 52.64 96.3067 52.32 94.76 51.68C93.24 51.04 92.04 50.0933 91.16 48.84C90.28 47.5867 89.84 46.04 89.84 44.2C89.84 42.1467 90.4533 40.44 91.68 39.08C92.9333 37.72 94.6 36.8133 96.68 36.36L96.76 37.16C95.08 36.7333 93.72 36 92.68 34.96C91.64 33.92 91.12 32.52 91.12 30.76C91.12 29.2667 91.4933 27.9333 92.24 26.76C93.0133 25.5867 94.0667 24.6667 95.4 24C96.7333 23.3067 98.2667 22.96 100 22.96C101.733 22.96 103.267 23.3067 104.6 24C105.96 24.6667 107.013 25.5867 107.76 26.76C108.507 27.9333 108.88 29.2667 108.88 30.76C108.88 32.52 108.36 33.92 107.32 34.96C106.307 36 104.947 36.7333 103.24 37.16L103.32 36.36C105.4 36.84 107.053 37.76 108.28 39.12C109.533 40.4533 110.16 42.1467 110.16 44.2C110.16 46.04 109.72 47.5867 108.84 48.84C107.96 50.0933 106.76 51.04 105.24 51.68C103.72 52.32 101.973 52.64 100 52.64ZM100 48.72C101.68 48.72 103.067 48.3333 104.16 47.56C105.253 46.76 105.8 45.5333 105.8 43.88C105.8 42.3333 105.307 41.1067 104.32 40.2C103.36 39.2667 101.92 38.8 100 38.8C98.1067 38.8 96.6667 39.2667 95.68 40.2C94.6933 41.1067 94.2 42.3333 94.2 43.88C94.2 45.5333 94.7467 46.76 95.84 47.56C96.9333 48.3333 98.32 48.72 100 48.72ZM100 35.04C101.36 35.04 102.453 34.6933 103.28 34C104.107 33.3067 104.52 32.2667 104.52 30.88C104.52 29.6533 104.107 28.68 103.28 27.96C102.48 27.24 101.387 26.88 100 26.88C98.6133 26.88 97.5067 27.24 96.68 27.96C95.88 28.68 95.48 29.6533 95.48 30.88C95.48 32.2667 95.8933 33.3067 96.72 34C97.5467 34.6933 98.64 35.04 100 35.04ZM113.904 52C113.904 49.8933 114.211 48.0133 114.824 46.36C115.438 44.7067 116.518 43.16 118.064 41.72C119.638 40.2533 121.811 38.7867 124.584 37.32C125.784 36.7067 126.758 36.12 127.504 35.56C128.251 35 128.798 34.4 129.144 33.76C129.491 33.12 129.664 32.3467 129.664 31.44C129.664 30.5067 129.478 29.7067 129.104 29.04C128.731 28.3733 128.171 27.8533 127.424 27.48C126.678 27.08 125.744 26.88 124.624 26.88C122.811 26.88 121.384 27.36 120.344 28.32C119.331 29.28 118.691 30.6533 118.424 32.44L114.064 32.16C114.358 29.36 115.411 27.1333 117.224 25.48C119.038 23.8 121.504 22.96 124.624 22.96C126.651 22.96 128.358 23.3067 129.744 24C131.158 24.6933 132.224 25.6667 132.944 26.92C133.664 28.1733 134.024 29.6267 134.024 31.28C134.024 32.7467 133.784 34.0133 133.304 35.08C132.824 36.1467 132.024 37.1333 130.904 38.04C129.784 38.9467 128.251 39.92 126.304 40.96C124.678 41.84 123.318 42.7067 122.224 43.56C121.158 44.3867 120.344 45.1867 119.784 45.96C119.251 46.7067 118.958 47.4 118.904 48.04H134.064V52H113.904ZM140.929 47.76L151.809 27.64L155.009 27.84L144.129 47.96L140.929 47.76ZM147.969 52.64C145.889 52.64 144.089 52.04 142.569 50.84C141.049 49.64 139.889 47.9333 139.089 45.72C138.289 43.5067 137.889 40.88 137.889 37.84C137.889 34.7733 138.289 32.1333 139.089 29.92C139.889 27.7067 141.049 26 142.569 24.8C144.089 23.5733 145.889 22.96 147.969 22.96C150.075 22.96 151.875 23.5733 153.369 24.8C154.889 26 156.049 27.7067 156.849 29.92C157.649 32.1333 158.049 34.7733 158.049 37.84C158.049 40.88 157.649 43.5067 156.849 45.72C156.049 47.9333 154.889 49.64 153.369 50.84C151.875 52.04 150.075 52.64 147.969 52.64ZM147.969 48.72C149.169 48.72 150.182 48.2933 151.009 47.44C151.862 46.56 152.515 45.3067 152.969 43.68C153.449 42.0533 153.689 40.1067 153.689 37.84C153.689 35.52 153.449 33.5467 152.969 31.92C152.515 30.2933 151.862 29.0533 151.009 28.2C150.182 27.32 149.169 26.88 147.969 26.88C146.795 26.88 145.782 27.32 144.929 28.2C144.075 29.0533 143.409 30.2933 142.929 31.92C142.475 33.5467 142.249 35.52 142.249 37.84C142.249 40.1067 142.475 42.0533 142.929 43.68C143.409 45.3067 144.075 46.56 144.929 47.44C145.782 48.2933 146.795 48.72 147.969 48.72ZM170.353 48.56L165.473 28.24L165.913 28.2V52H161.873V23.6H167.473L172.753 45.16H171.153L176.433 23.6H182.033V52H177.993V28.2L178.433 28.24L173.553 48.56H170.353Z" fill="white"/>
<path d="M93.52 83.256C92.6453 83.256 91.8827 83.0853 91.232 82.744C90.592 82.4027 90.096 81.9173 89.744 81.288C89.4027 80.648 89.232 79.896 89.232 79.032V71.624H90.608V79.032C90.608 79.9493 90.8587 80.6587 91.36 81.16C91.872 81.6613 92.592 81.912 93.52 81.912C94.4373 81.912 95.1467 81.6613 95.648 81.16C96.16 80.6587 96.416 79.9493 96.416 79.032V71.624H97.792V79.032C97.792 79.896 97.616 80.648 97.264 81.288C96.9227 81.9173 96.432 82.4027 95.792 82.744C95.152 83.0853 94.3947 83.256 93.52 83.256ZM100.311 83V74.52H101.543L101.591 76.68L101.431 76.536C101.538 76.0347 101.725 75.624 101.991 75.304C102.258 74.9733 102.578 74.728 102.951 74.568C103.335 74.408 103.746 74.328 104.183 74.328C104.834 74.328 105.367 74.472 105.783 74.76C106.21 75.048 106.525 75.4373 106.727 75.928C106.941 76.408 107.047 76.9467 107.047 77.544V83H105.703V77.928C105.703 77.4053 105.639 76.968 105.511 76.616C105.394 76.2533 105.202 75.9813 104.935 75.8C104.669 75.608 104.322 75.512 103.895 75.512C103.245 75.512 102.706 75.72 102.279 76.136C101.863 76.5413 101.655 77.1387 101.655 77.928V83H100.311ZM109.452 83V74.52H110.796V83H109.452ZM109.42 73.192V71.624H110.828V73.192H109.42ZM120.162 85.4H118.818V81.176L119.01 81.4C118.914 81.7627 118.733 82.0773 118.466 82.344C118.21 82.6107 117.89 82.8187 117.506 82.968C117.133 83.1173 116.727 83.192 116.29 83.192C115.447 83.192 114.754 82.984 114.21 82.568C113.677 82.152 113.277 81.608 113.01 80.936C112.754 80.264 112.626 79.5387 112.626 78.76C112.626 77.9813 112.754 77.256 113.01 76.584C113.277 75.912 113.677 75.368 114.21 74.952C114.754 74.536 115.447 74.328 116.29 74.328C116.951 74.328 117.527 74.4933 118.018 74.824C118.519 75.144 118.871 75.6187 119.074 76.248L118.882 76.344L118.914 74.52H120.162V85.4ZM116.418 81.912C116.919 81.912 117.346 81.7947 117.698 81.56C118.061 81.3253 118.338 80.9733 118.53 80.504C118.722 80.0347 118.818 79.4533 118.818 78.76C118.818 78.0667 118.717 77.4853 118.514 77.016C118.322 76.5467 118.045 76.1947 117.682 75.96C117.33 75.7253 116.909 75.608 116.418 75.608C115.682 75.608 115.101 75.8853 114.674 76.44C114.247 76.9947 114.034 77.768 114.034 78.76C114.034 79.752 114.247 80.5253 114.674 81.08C115.101 81.6347 115.682 81.912 116.418 81.912ZM125.502 83.192C124.659 83.192 123.982 82.9093 123.47 82.344C122.968 81.768 122.718 80.9787 122.718 79.976V74.52H124.062V79.608C124.062 80.4293 124.206 81.0373 124.494 81.432C124.792 81.816 125.246 82.008 125.854 82.008C126.526 82.008 127.054 81.7947 127.438 81.368C127.822 80.9307 128.014 80.3333 128.014 79.576V74.52H129.358V83H128.078V80.904L128.286 81.016C128.115 81.7093 127.79 82.248 127.31 82.632C126.83 83.0053 126.227 83.192 125.502 83.192ZM135.076 83.192C134.276 83.192 133.583 83.0107 132.996 82.648C132.42 82.2853 131.972 81.7733 131.652 81.112C131.343 80.44 131.188 79.656 131.188 78.76C131.188 77.864 131.343 77.0853 131.652 76.424C131.972 75.7627 132.415 75.2507 132.98 74.888C133.556 74.5147 134.234 74.328 135.012 74.328C135.748 74.328 136.399 74.504 136.964 74.856C137.53 75.1973 137.967 75.6987 138.276 76.36C138.596 77.0213 138.756 77.8267 138.756 78.776V79.176H132.596C132.65 80.0827 132.89 80.7653 133.316 81.224C133.754 81.6827 134.34 81.912 135.076 81.912C135.631 81.912 136.084 81.784 136.436 81.528C136.799 81.2613 137.05 80.9147 137.188 80.488L138.628 80.6C138.404 81.3573 137.978 81.9813 137.348 82.472C136.73 82.952 135.972 83.192 135.076 83.192ZM132.596 77.992H137.284C137.22 77.1707 136.98 76.568 136.564 76.184C136.159 75.8 135.642 75.608 135.012 75.608C134.362 75.608 133.823 75.8107 133.396 76.216C132.98 76.6107 132.714 77.2027 132.596 77.992ZM146.429 83L143.805 74.52H145.277L147.261 81.592L149.277 74.52H150.717L152.733 81.592L154.733 74.52H156.205L153.581 83H151.885L149.997 76.552L148.109 83H146.429ZM159.771 83.192C158.896 83.192 158.198 82.9893 157.675 82.584C157.163 82.1787 156.907 81.6133 156.907 80.888C156.907 80.1627 157.12 79.592 157.547 79.176C157.974 78.76 158.651 78.4667 159.579 78.296L162.587 77.736C162.587 77.0213 162.416 76.488 162.075 76.136C161.744 75.784 161.243 75.608 160.571 75.608C159.984 75.608 159.52 75.7413 159.179 76.008C158.838 76.264 158.603 76.6373 158.475 77.128L157.051 77.016C157.211 76.216 157.595 75.5707 158.203 75.08C158.822 74.5787 159.611 74.328 160.571 74.328C161.659 74.328 162.491 74.6373 163.067 75.256C163.643 75.864 163.931 76.7067 163.931 77.784V81.288C163.931 81.48 163.963 81.6187 164.027 81.704C164.102 81.7787 164.219 81.816 164.379 81.816H164.715V83C164.672 83.0107 164.603 83.016 164.507 83.016C164.411 83.0267 164.31 83.032 164.203 83.032C163.819 83.032 163.504 82.9733 163.259 82.856C163.024 82.728 162.854 82.536 162.747 82.28C162.64 82.0133 162.587 81.6667 162.587 81.24L162.747 81.272C162.672 81.6347 162.491 81.9653 162.203 82.264C161.915 82.552 161.558 82.7813 161.131 82.952C160.704 83.112 160.251 83.192 159.771 83.192ZM159.899 82.008C160.464 82.008 160.944 81.9013 161.339 81.688C161.744 81.464 162.054 81.1653 162.267 80.792C162.48 80.408 162.587 79.9813 162.587 79.512V78.904L159.835 79.416C159.259 79.5227 158.859 79.688 158.635 79.912C158.422 80.1253 158.315 80.408 158.315 80.76C158.315 81.1547 158.454 81.464 158.731 81.688C159.019 81.9013 159.408 82.008 159.899 82.008ZM167.803 83C167.313 83 166.913 82.872 166.603 82.616C166.294 82.36 166.139 81.9547 166.139 81.4V71.64H167.483V81.288C167.483 81.4587 167.526 81.592 167.611 81.688C167.707 81.7733 167.841 81.816 168.011 81.816H168.747V83H167.803ZM171.913 83C171.422 83 171.022 82.872 170.713 82.616C170.403 82.36 170.249 81.9547 170.249 81.4V71.64H171.593V81.288C171.593 81.4587 171.635 81.592 171.721 81.688C171.817 81.7733 171.95 81.816 172.121 81.816H172.857V83H171.913ZM177.733 83.192C176.933 83.192 176.239 83.0107 175.653 82.648C175.077 82.2853 174.629 81.7733 174.309 81.112C173.999 80.44 173.845 79.656 173.845 78.76C173.845 77.864 173.999 77.0853 174.309 76.424C174.629 75.7627 175.071 75.2507 175.637 74.888C176.213 74.5147 176.89 74.328 177.669 74.328C178.405 74.328 179.055 74.504 179.621 74.856C180.186 75.1973 180.623 75.6987 180.933 76.36C181.253 77.0213 181.413 77.8267 181.413 78.776V79.176H175.253C175.306 80.0827 175.546 80.7653 175.973 81.224C176.41 81.6827 176.997 81.912 177.733 81.912C178.287 81.912 178.741 81.784 179.093 81.528C179.455 81.2613 179.706 80.9147 179.845 80.488L181.285 80.6C181.061 81.3573 180.634 81.9813 180.005 82.472C179.386 82.952 178.629 83.192 177.733 83.192ZM175.253 77.992H179.941C179.877 77.1707 179.637 76.568 179.221 76.184C178.815 75.8 178.298 75.608 177.669 75.608C177.018 75.608 176.479 75.8107 176.053 76.216C175.637 76.6107 175.37 77.2027 175.253 77.992ZM186.009 83C185.241 83 184.67 82.824 184.297 82.472C183.934 82.12 183.753 81.5707 183.753 80.824V72.536H185.097V80.792C185.097 81.176 185.182 81.4427 185.353 81.592C185.524 81.7413 185.785 81.816 186.137 81.816H187.353V83H186.009ZM182.505 75.704V74.52H187.353V75.704H182.505ZM192.009 83.192C191.251 83.192 190.606 83.0693 190.073 82.824C189.55 82.5787 189.139 82.2427 188.841 81.816C188.553 81.3787 188.387 80.8827 188.345 80.328L189.753 80.232C189.838 80.744 190.057 81.1547 190.409 81.464C190.761 81.7627 191.294 81.912 192.009 81.912C192.585 81.912 193.043 81.8213 193.385 81.64C193.737 81.448 193.913 81.144 193.913 80.728C193.913 80.504 193.859 80.3173 193.753 80.168C193.646 80.0187 193.438 79.8907 193.129 79.784C192.819 79.6667 192.361 79.5547 191.753 79.448C190.942 79.2987 190.302 79.1173 189.833 78.904C189.374 78.68 189.043 78.408 188.841 78.088C188.649 77.7573 188.553 77.368 188.553 76.92C188.553 76.1627 188.83 75.544 189.385 75.064C189.939 74.5733 190.729 74.328 191.753 74.328C192.446 74.328 193.027 74.456 193.497 74.712C193.977 74.9573 194.35 75.288 194.617 75.704C194.894 76.1093 195.075 76.5573 195.161 77.048L193.753 77.144C193.689 76.8453 193.571 76.584 193.401 76.36C193.23 76.1253 193.006 75.944 192.729 75.816C192.451 75.6773 192.121 75.608 191.737 75.608C191.129 75.608 190.681 75.7253 190.393 75.96C190.105 76.1947 189.961 76.4933 189.961 76.856C189.961 77.1333 190.025 77.3627 190.153 77.544C190.291 77.7147 190.51 77.8587 190.809 77.976C191.107 78.0827 191.507 78.1787 192.009 78.264C192.873 78.4133 193.545 78.5947 194.025 78.808C194.505 79.0213 194.841 79.2827 195.033 79.592C195.225 79.9013 195.321 80.28 195.321 80.728C195.321 81.2507 195.171 81.6987 194.873 82.072C194.585 82.4347 194.19 82.712 193.689 82.904C193.198 83.096 192.638 83.192 192.009 83.192ZM203.599 83.192C202.725 83.192 202.026 82.9893 201.503 82.584C200.991 82.1787 200.735 81.6133 200.735 80.888C200.735 80.1627 200.949 79.592 201.375 79.176C201.802 78.76 202.479 78.4667 203.407 78.296L206.415 77.736C206.415 77.0213 206.245 76.488 205.903 76.136C205.573 75.784 205.071 75.608 204.399 75.608C203.813 75.608 203.349 75.7413 203.007 76.008C202.666 76.264 202.431 76.6373 202.303 77.128L200.879 77.016C201.039 76.216 201.423 75.5707 202.031 75.08C202.65 74.5787 203.439 74.328 204.399 74.328C205.487 74.328 206.319 74.6373 206.895 75.256C207.471 75.864 207.759 76.7067 207.759 77.784V81.288C207.759 81.48 207.791 81.6187 207.855 81.704C207.93 81.7787 208.047 81.816 208.207 81.816H208.543V83C208.501 83.0107 208.431 83.016 208.335 83.016C208.239 83.0267 208.138 83.032 208.031 83.032C207.647 83.032 207.333 82.9733 207.087 82.856C206.853 82.728 206.682 82.536 206.575 82.28C206.469 82.0133 206.415 81.6667 206.415 81.24L206.575 81.272C206.501 81.6347 206.319 81.9653 206.031 82.264C205.743 82.552 205.386 82.7813 204.959 82.952C204.533 83.112 204.079 83.192 203.599 83.192ZM203.727 82.008C204.293 82.008 204.773 81.9013 205.167 81.688C205.573 81.464 205.882 81.1653 206.095 80.792C206.309 80.408 206.415 79.9813 206.415 79.512V78.904L203.663 79.416C203.087 79.5227 202.687 79.688 202.463 79.912C202.25 80.1253 202.143 80.408 202.143 80.76C202.143 81.1547 202.282 81.464 202.559 81.688C202.847 81.9013 203.237 82.008 203.727 82.008ZM213.342 83.192C212.553 83.192 211.865 83.0107 211.278 82.648C210.702 82.2853 210.254 81.7733 209.934 81.112C209.614 80.44 209.454 79.656 209.454 78.76C209.454 77.864 209.614 77.0853 209.934 76.424C210.254 75.7627 210.702 75.2507 211.278 74.888C211.865 74.5147 212.553 74.328 213.342 74.328C213.993 74.328 214.569 74.4453 215.07 74.68C215.582 74.904 215.998 75.2347 216.318 75.672C216.638 76.1093 216.846 76.6427 216.942 77.272L215.534 77.368C215.438 76.8027 215.193 76.3707 214.798 76.072C214.403 75.7627 213.918 75.608 213.342 75.608C212.563 75.608 211.955 75.8907 211.518 76.456C211.081 77.0107 210.862 77.7787 210.862 78.76C210.862 79.7413 211.081 80.5147 211.518 81.08C211.955 81.6347 212.563 81.912 213.342 81.912C213.918 81.912 214.403 81.752 214.798 81.432C215.193 81.112 215.438 80.632 215.534 79.992L216.942 80.088C216.846 80.7173 216.638 81.2667 216.318 81.736C215.998 82.1947 215.582 82.552 215.07 82.808C214.569 83.064 213.993 83.192 213.342 83.192ZM221.384 83C220.616 83 220.045 82.824 219.672 82.472C219.309 82.12 219.128 81.5707 219.128 80.824V72.536H220.472V80.792C220.472 81.176 220.557 81.4427 220.728 81.592C220.899 81.7413 221.16 81.816 221.512 81.816H222.728V83H221.384ZM217.88 75.704V74.52H222.728V75.704H217.88ZM224.452 83V74.52H225.796V83H224.452ZM224.42 73.192V71.624H225.828V73.192H224.42ZM230.362 83L227.274 74.52H228.746L231.21 81.624L233.674 74.52H235.146L232.058 83H230.362ZM239.67 83.192C238.87 83.192 238.177 83.0107 237.59 82.648C237.014 82.2853 236.566 81.7733 236.246 81.112C235.937 80.44 235.782 79.656 235.782 78.76C235.782 77.864 235.937 77.0853 236.246 76.424C236.566 75.7627 237.009 75.2507 237.574 74.888C238.15 74.5147 238.827 74.328 239.606 74.328C240.342 74.328 240.993 74.504 241.558 74.856C242.123 75.1973 242.561 75.6987 242.87 76.36C243.19 77.0213 243.35 77.8267 243.35 78.776V79.176H237.19C237.243 80.0827 237.483 80.7653 237.91 81.224C238.347 81.6827 238.934 81.912 239.67 81.912C240.225 81.912 240.678 81.784 241.03 81.528C241.393 81.2613 241.643 80.9147 241.782 80.488L243.222 80.6C242.998 81.3573 242.571 81.9813 241.942 82.472C241.323 82.952 240.566 83.192 239.67 83.192ZM237.19 77.992H241.878C241.814 77.1707 241.574 76.568 241.158 76.184C240.753 75.8 240.235 75.608 239.606 75.608C238.955 75.608 238.417 75.8107 237.99 76.216C237.574 76.6107 237.307 77.2027 237.19 77.992ZM252.543 85.592C251.935 85.592 251.386 85.4907 250.895 85.288C250.404 85.0853 249.994 84.7973 249.663 84.424C249.332 84.0507 249.108 83.6187 248.991 83.128L250.399 83.032C250.527 83.4267 250.751 83.736 251.071 83.96C251.402 84.1947 251.892 84.312 252.543 84.312C253.311 84.312 253.898 84.1573 254.303 83.848C254.719 83.5387 254.927 83.0747 254.927 82.456V81.08C254.724 81.528 254.399 81.8853 253.951 82.152C253.503 82.4187 253.002 82.552 252.447 82.552C251.732 82.552 251.092 82.376 250.527 82.024C249.972 81.672 249.535 81.1867 249.215 80.568C248.906 79.9493 248.751 79.24 248.751 78.44C248.751 77.6293 248.906 76.92 249.215 76.312C249.524 75.6933 249.951 75.208 250.495 74.856C251.05 74.504 251.679 74.328 252.383 74.328C252.98 74.328 253.514 74.4667 253.983 74.744C254.463 75.0213 254.799 75.3947 254.991 75.864V74.52H256.271V82.424C256.271 83.0853 256.122 83.6507 255.823 84.12C255.524 84.6 255.098 84.9627 254.543 85.208C253.988 85.464 253.322 85.592 252.543 85.592ZM252.511 81.272C253.236 81.272 253.818 81.0213 254.255 80.52C254.692 80.008 254.916 79.3147 254.927 78.44C254.938 77.8533 254.842 77.352 254.639 76.936C254.447 76.5093 254.164 76.184 253.791 75.96C253.428 75.7253 253.002 75.608 252.511 75.608C251.764 75.608 251.183 75.864 250.767 76.376C250.362 76.8773 250.159 77.5653 250.159 78.44C250.159 79.3147 250.367 80.008 250.783 80.52C251.21 81.0213 251.786 81.272 252.511 81.272ZM260.491 83C260 83 259.6 82.872 259.291 82.616C258.982 82.36 258.827 81.9547 258.827 81.4V71.64H260.171V81.288C260.171 81.4587 260.214 81.592 260.299 81.688C260.395 81.7733 260.528 81.816 260.699 81.816H261.435V83H260.491ZM266.311 83.192C265.532 83.192 264.849 83.0107 264.263 82.648C263.676 82.2853 263.223 81.7733 262.903 81.112C262.583 80.44 262.423 79.656 262.423 78.76C262.423 77.8533 262.583 77.0693 262.903 76.408C263.223 75.7467 263.676 75.2347 264.263 74.872C264.849 74.5093 265.532 74.328 266.311 74.328C267.089 74.328 267.767 74.5093 268.343 74.872C268.929 75.2347 269.383 75.7467 269.703 76.408C270.023 77.0693 270.183 77.8533 270.183 78.76C270.183 79.656 270.023 80.44 269.703 81.112C269.383 81.7733 268.929 82.2853 268.343 82.648C267.767 83.0107 267.089 83.192 266.311 83.192ZM266.311 81.912C267.089 81.912 267.692 81.6347 268.119 81.08C268.556 80.5147 268.775 79.7413 268.775 78.76C268.775 77.7787 268.556 77.0107 268.119 76.456C267.692 75.8907 267.089 75.608 266.311 75.608C265.532 75.608 264.924 75.8907 264.487 76.456C264.049 77.0107 263.831 77.7787 263.831 78.76C263.831 79.7413 264.049 80.5147 264.487 81.08C264.924 81.6347 265.532 81.912 266.311 81.912ZM275.902 83.192C275.316 83.192 274.793 83.064 274.334 82.808C273.876 82.5413 273.524 82.1787 273.278 81.72L273.23 83H272.014V71.64H273.358V75.704C273.572 75.352 273.902 75.0373 274.35 74.76C274.798 74.472 275.316 74.328 275.902 74.328C276.649 74.328 277.294 74.5093 277.838 74.872C278.382 75.2347 278.804 75.7467 279.102 76.408C279.401 77.0693 279.55 77.8533 279.55 78.76C279.55 79.6667 279.401 80.4507 279.102 81.112C278.804 81.7733 278.382 82.2853 277.838 82.648C277.294 83.0107 276.649 83.192 275.902 83.192ZM275.822 81.912C276.537 81.912 277.102 81.6293 277.518 81.064C277.934 80.4987 278.142 79.7307 278.142 78.76C278.142 77.7787 277.934 77.0107 277.518 76.456C277.102 75.8907 276.548 75.608 275.854 75.608C275.332 75.608 274.884 75.736 274.51 75.992C274.137 76.2373 273.849 76.5947 273.646 77.064C273.454 77.5333 273.358 78.0987 273.358 78.76C273.358 79.4 273.454 79.96 273.646 80.44C273.849 80.9093 274.132 81.272 274.494 81.528C274.868 81.784 275.31 81.912 275.822 81.912ZM283.881 83.192C283.006 83.192 282.307 82.9893 281.785 82.584C281.273 82.1787 281.017 81.6133 281.017 80.888C281.017 80.1627 281.23 79.592 281.657 79.176C282.083 78.76 282.761 78.4667 283.689 78.296L286.697 77.736C286.697 77.0213 286.526 76.488 286.185 76.136C285.854 75.784 285.353 75.608 284.681 75.608C284.094 75.608 283.63 75.7413 283.289 76.008C282.947 76.264 282.713 76.6373 282.585 77.128L281.161 77.016C281.321 76.216 281.705 75.5707 282.312 75.08C282.931 74.5787 283.721 74.328 284.681 74.328C285.769 74.328 286.601 74.6373 287.177 75.256C287.753 75.864 288.041 76.7067 288.041 77.784V81.288C288.041 81.48 288.073 81.6187 288.137 81.704C288.211 81.7787 288.329 81.816 288.489 81.816H288.825V83C288.782 83.0107 288.713 83.016 288.617 83.016C288.521 83.0267 288.419 83.032 288.312 83.032C287.929 83.032 287.614 82.9733 287.369 82.856C287.134 82.728 286.963 82.536 286.857 82.28C286.75 82.0133 286.697 81.6667 286.697 81.24L286.857 81.272C286.782 81.6347 286.601 81.9653 286.313 82.264C286.025 82.552 285.667 82.7813 285.241 82.952C284.814 83.112 284.361 83.192 283.881 83.192ZM284.009 82.008C284.574 82.008 285.054 81.9013 285.449 81.688C285.854 81.464 286.163 81.1653 286.377 80.792C286.59 80.408 286.697 79.9813 286.697 79.512V78.904L283.945 79.416C283.369 79.5227 282.969 79.688 282.745 79.912C282.531 80.1253 282.424 80.408 282.424 80.76C282.424 81.1547 282.563 81.464 282.841 81.688C283.129 81.9013 283.518 82.008 284.009 82.008ZM291.913 83C291.422 83 291.022 82.872 290.713 82.616C290.403 82.36 290.249 81.9547 290.249 81.4V71.64H291.593V81.288C291.593 81.4587 291.635 81.592 291.721 81.688C291.817 81.7733 291.95 81.816 292.121 81.816H292.857V83H291.913ZM296.022 83C295.531 83 295.131 82.872 294.822 82.616C294.513 82.36 294.358 81.9547 294.358 81.4V71.64H295.702V81.288C295.702 81.4587 295.745 81.592 295.83 81.688C295.926 81.7733 296.059 81.816 296.23 81.816H296.966V83H296.022ZM298.601 85.4V84.216H299.577C299.876 84.216 300.094 84.168 300.233 84.072C300.382 83.9867 300.494 83.8427 300.569 83.64L300.873 82.84H300.409L297.305 74.52H298.777L301.305 81.592L303.721 74.52H305.193L301.753 84.072C301.593 84.5307 301.353 84.8667 301.033 85.08C300.713 85.2933 300.27 85.4 299.705 85.4H298.601ZM305.298 83V81.192H307.106V83H305.298Z" fill="white" fill-opacity="0.7"/>
<defs>
<filter id="filter0_d_179_35199" x="20" y="20" width="52" height="52" filterUnits="userSpaceOnUse" color-interpolation-filters="sRGB">
<feFlood flood-opacity="0" result="BackgroundImageFix"/>
<feColorMatrix in="SourceAlpha" type="matrix" values="0 0 0 0 0 0 0 0 0 0 0 0 0 0 0 0 0 0 127 0" result="hardAlpha"/>
<feOffset/>
<feGaussianBlur stdDeviation="2"/>
<feComposite in2="hardAlpha" operator="out"/>
<feColorMatrix type="matrix" values="0 0 0 0 0.0470588 0 0 0 0 1 0 0 0 0 0.521569 0 0 0 1 0"/>
<feBlend mode="normal" in2="BackgroundImageFix" result="effect1_dropShadow_179_35199"/>
<feBlend mode="normal" in="SourceGraphic" in2="effect1_dropShadow_179_35199" result="shape"/>
</filter>
<radialGradient id="paint0_radial_179_35199" cx="0" cy="0" r="1" gradientUnits="userSpaceOnUse" gradientTransform="translate(27.5 26.5) rotate(46.1535) scale(52.6901)">
<stop stop-color="#272727"/>
<stop offset="1"/>
</radialGradient>
<linearGradient id="paint1_linear_179_35199" x1="28" y1="26.5" x2="63.5" y2="68" gradientUnits="userSpaceOnUse">
<stop/>
<stop offset="1" stop-color="#2D2D2D"/>
</linearGradient>
</defs>
</svg>
