<svg width="52" height="52" viewBox="0 0 52 52" fill="none" xmlns="http://www.w3.org/2000/svg">
<g filter="url(#filter0_d_216_1367)">
<rect x="4" y="4" width="44" height="44" rx="12" fill="url(#paint0_radial_216_1367)" shape-rendering="crispEdges"/>
<rect x="4.5" y="4.5" width="43" height="43" rx="11.5" stroke="url(#paint1_linear_216_1367)" shape-rendering="crispEdges"/>
<path d="M20.25 26C20.25 22.8244 22.8244 20.25 26 20.25C29.1756 20.25 31.75 22.8244 31.75 26C31.75 29.1756 29.1756 31.75 26 31.75C22.8244 31.75 20.25 29.1756 20.25 26Z" fill="#0CFF85"/>
<path d="M26 17.2045C21.1424 17.2045 17.2045 21.1424 17.2045 26C17.2045 30.8576 21.1424 34.7955 26 34.7955C30.8576 34.7955 34.7955 30.8576 34.7955 26C34.7955 25.7025 34.7807 25.4087 34.752 25.1193C34.6987 24.5822 35.0908 24.1036 35.6279 24.0502C36.165 23.9969 36.6436 24.3891 36.697 24.9262C36.7321 25.2796 36.75 25.6379 36.75 26C36.75 31.9371 31.9371 36.75 26 36.75C20.0629 36.75 15.25 31.9371 15.25 26C15.25 20.0629 20.0629 15.25 26 15.25C28.4707 15.25 30.7483 16.0845 32.5638 17.486C32.9442 17.3057 33.3698 17.2045 33.8182 17.2045C35.4374 17.2045 36.75 18.5172 36.75 20.1364C36.75 21.2007 36.1822 22.1315 35.3378 22.644C34.8939 22.9133 34.3726 23.0682 33.8182 23.0682C32.199 23.0682 30.8864 21.7556 30.8864 20.1364C30.8864 19.6877 30.9875 19.2623 31.1678 18.882C29.7168 17.8265 27.9319 17.2045 26 17.2045Z" fill="#0CFF85"/>
</g>
<defs>
<filter id="filter0_d_216_1367" x="0" y="0" width="52" height="52" filterUnits="userSpaceOnUse" color-interpolation-filters="sRGB">
<feFlood flood-opacity="0" result="BackgroundImageFix"/>
<feColorMatrix in="SourceAlpha" type="matrix" values="0 0 0 0 0 0 0 0 0 0 0 0 0 0 0 0 0 0 127 0" result="hardAlpha"/>
<feOffset/>
<feGaussianBlur stdDeviation="2"/>
<feComposite in2="hardAlpha" operator="out"/>
<feColorMatrix type="matrix" values="0 0 0 0 0.0470588 0 0 0 0 1 0 0 0 0 0.521569 0 0 0 1 0"/>
<feBlend mode="normal" in2="BackgroundImageFix" result="effect1_dropShadow_216_1367"/>
<feBlend mode="normal" in="SourceGraphic" in2="effect1_dropShadow_216_1367" result="shape"/>
</filter>
<radialGradient id="paint0_radial_216_1367" cx="0" cy="0" r="1" gradientUnits="userSpaceOnUse" gradientTransform="translate(7.5 6.5) rotate(46.1535) scale(52.6901)">
<stop stop-color="#272727"/>
<stop offset="1"/>
</radialGradient>
<linearGradient id="paint1_linear_216_1367" x1="8" y1="6.5" x2="43.5" y2="48" gradientUnits="userSpaceOnUse">
<stop/>
<stop offset="1" stop-color="#2D2D2D"/>
</linearGradient>
</defs>
</svg>
