<svg width="52" height="52" viewBox="0 0 52 52" fill="none" xmlns="http://www.w3.org/2000/svg">
<g filter="url(#filter0_d_216_1339)">
<rect x="4" y="4" width="44" height="44" rx="12" fill="url(#paint0_radial_216_1339)" shape-rendering="crispEdges"/>
<rect x="4.5" y="4.5" width="43" height="43" rx="11.5" stroke="url(#paint1_linear_216_1339)" shape-rendering="crispEdges"/>
<path d="M15.25 30C15.25 26.2721 18.2721 23.25 22 23.25C25.7279 23.25 28.75 26.2721 28.75 30C28.75 33.7279 25.7279 36.75 22 36.75C18.2721 36.75 15.25 33.7279 15.25 30Z" fill="#0CFF85"/>
<path fill-rule="evenodd" clip-rule="evenodd" d="M20.25 17.8157C18.2586 18.1692 16.75 19.9059 16.75 22H15.25C15.25 18.8215 17.8215 16.25 21 16.25H21.75V19H20.25V17.8157Z" fill="#0CFF85"/>
<path fill-rule="evenodd" clip-rule="evenodd" d="M31.75 34.1843C33.7414 33.8308 35.25 32.0941 35.25 30H36.75C36.75 33.1785 34.1785 35.75 31 35.75H30.25V33H31.75V34.1843Z" fill="#0CFF85"/>
<path d="M30.1556 28.7482C29.6146 25.1941 26.8058 22.3853 23.2517 21.8444C23.3344 18.1883 26.324 15.25 29.9999 15.25C33.7279 15.25 36.7499 18.2721 36.7499 22C36.7499 25.6759 33.8116 28.6655 30.1556 28.7482Z" fill="#0CFF85"/>
</g>
<defs>
<filter id="filter0_d_216_1339" x="0" y="0" width="52" height="52" filterUnits="userSpaceOnUse" color-interpolation-filters="sRGB">
<feFlood flood-opacity="0" result="BackgroundImageFix"/>
<feColorMatrix in="SourceAlpha" type="matrix" values="0 0 0 0 0 0 0 0 0 0 0 0 0 0 0 0 0 0 127 0" result="hardAlpha"/>
<feOffset/>
<feGaussianBlur stdDeviation="2"/>
<feComposite in2="hardAlpha" operator="out"/>
<feColorMatrix type="matrix" values="0 0 0 0 0.0470588 0 0 0 0 1 0 0 0 0 0.521569 0 0 0 1 0"/>
<feBlend mode="normal" in2="BackgroundImageFix" result="effect1_dropShadow_216_1339"/>
<feBlend mode="normal" in="SourceGraphic" in2="effect1_dropShadow_216_1339" result="shape"/>
</filter>
<radialGradient id="paint0_radial_216_1339" cx="0" cy="0" r="1" gradientUnits="userSpaceOnUse" gradientTransform="translate(7.5 6.5) rotate(46.1535) scale(52.6901)">
<stop stop-color="#272727"/>
<stop offset="1"/>
</radialGradient>
<linearGradient id="paint1_linear_216_1339" x1="8" y1="6.5" x2="43.5" y2="48" gradientUnits="userSpaceOnUse">
<stop/>
<stop offset="1" stop-color="#2D2D2D"/>
</linearGradient>
</defs>
</svg>
