<svg width="52" height="52" viewBox="0 0 52 52" fill="none" xmlns="http://www.w3.org/2000/svg">
<g filter="url(#filter0_d_216_1374)">
<rect x="4" y="4" width="44" height="44" rx="12" fill="url(#paint0_radial_216_1374)" shape-rendering="crispEdges"/>
<rect x="4.5" y="4.5" width="43" height="43" rx="11.5" stroke="url(#paint1_linear_216_1374)" shape-rendering="crispEdges"/>
<path d="M17.4144 29.399C16.1359 28.8017 15.25 27.5048 15.25 26C15.25 24.4952 16.1359 23.1983 17.4144 22.601C17.3075 22.2525 17.25 21.8826 17.25 21.5C17.25 19.66 18.5752 18.1295 20.3232 17.8109C20.6392 16.347 21.9415 15.25 23.5 15.25C25.2949 15.25 26.75 16.7051 26.75 18.5V33.5C26.75 35.2949 25.2949 36.75 23.5 36.75C21.9415 36.75 20.6392 35.653 20.3232 34.1891C18.5752 33.8705 17.25 32.34 17.25 30.5C17.25 30.1174 17.3075 29.7476 17.4144 29.399Z" fill="#0CFF85"/>
<path fill-rule="evenodd" clip-rule="evenodd" d="M28.5 35.25C29.4665 35.25 30.25 34.4665 30.25 33.5C30.25 32.9279 29.9763 32.42 29.5496 32.0995L30.4504 30.9001C31.0224 31.3298 31.449 31.9455 31.6397 32.6578C32.5707 32.3822 33.25 31.5204 33.25 30.5C33.25 30.0723 33.1314 29.6746 32.9257 29.3354L32.366 28.4126L33.4261 28.2099C34.465 28.0111 35.25 27.0964 35.25 26C35.25 25.0638 34.6776 24.26 33.8635 23.9214C33.4387 24.4234 32.8839 24.8124 32.2499 25.0364L31.7501 23.6222C32.2425 23.4481 32.6578 23.1063 32.9257 22.6646C33.1314 22.3254 33.25 21.9277 33.25 21.5C33.25 20.2574 32.2426 19.25 31 19.25L30.25 19.25L30.25 18.5C30.25 17.5335 29.4665 16.75 28.5 16.75C27.5335 16.75 26.75 17.5335 26.75 18.5L26.75 33.5C26.75 34.4665 27.5335 35.25 28.5 35.25ZM34.5856 22.601C35.8641 23.1983 36.75 24.4952 36.75 26C36.75 27.5048 35.8641 28.8017 34.5856 29.399C34.6925 29.7475 34.75 30.1174 34.75 30.5C34.75 32.34 33.4248 33.8705 31.6768 34.1891C31.3608 35.653 30.0585 36.75 28.5 36.75C26.7051 36.75 25.25 35.2949 25.25 33.5L25.25 18.5C25.25 16.7051 26.7051 15.25 28.5 15.25C30.0585 15.25 31.3608 16.347 31.6768 17.8109C33.4248 18.1295 34.75 19.66 34.75 21.5C34.75 21.8826 34.6925 22.2524 34.5856 22.601Z" fill="#0CFF85"/>
</g>
<defs>
<filter id="filter0_d_216_1374" x="0" y="0" width="52" height="52" filterUnits="userSpaceOnUse" color-interpolation-filters="sRGB">
<feFlood flood-opacity="0" result="BackgroundImageFix"/>
<feColorMatrix in="SourceAlpha" type="matrix" values="0 0 0 0 0 0 0 0 0 0 0 0 0 0 0 0 0 0 127 0" result="hardAlpha"/>
<feOffset/>
<feGaussianBlur stdDeviation="2"/>
<feComposite in2="hardAlpha" operator="out"/>
<feColorMatrix type="matrix" values="0 0 0 0 0.0470588 0 0 0 0 1 0 0 0 0 0.521569 0 0 0 1 0"/>
<feBlend mode="normal" in2="BackgroundImageFix" result="effect1_dropShadow_216_1374"/>
<feBlend mode="normal" in="SourceGraphic" in2="effect1_dropShadow_216_1374" result="shape"/>
</filter>
<radialGradient id="paint0_radial_216_1374" cx="0" cy="0" r="1" gradientUnits="userSpaceOnUse" gradientTransform="translate(7.5 6.5) rotate(46.1535) scale(52.6901)">
<stop stop-color="#272727"/>
<stop offset="1"/>
</radialGradient>
<linearGradient id="paint1_linear_216_1374" x1="8" y1="6.5" x2="43.5" y2="48" gradientUnits="userSpaceOnUse">
<stop/>
<stop offset="1" stop-color="#2D2D2D"/>
</linearGradient>
</defs>
</svg>
