<svg width="52" height="52" viewBox="0 0 52 52" fill="none" xmlns="http://www.w3.org/2000/svg">
<g filter="url(#filter0_d_216_1353)">
<rect x="4" y="4" width="44" height="44" rx="12" fill="url(#paint0_radial_216_1353)" shape-rendering="crispEdges"/>
<rect x="4.5" y="4.5" width="43" height="43" rx="11.5" stroke="url(#paint1_linear_216_1353)" shape-rendering="crispEdges"/>
<path d="M20.0494 16.25C20.7143 16.25 21.2871 16.2499 21.7458 16.3116C22.2375 16.3777 22.7087 16.5268 23.091 16.909C23.4732 17.2913 23.6223 17.7625 23.6884 18.2542C23.7501 18.7129 23.75 19.3845 23.75 20.0494C23.75 20.7142 23.7501 21.2871 23.6884 21.7458C23.6223 22.2375 23.4732 22.7087 23.091 23.091C22.7087 23.4732 22.2375 23.6223 21.7458 23.6884C21.2871 23.7501 20.6155 23.75 19.9506 23.75C19.2858 23.75 18.7129 23.7501 18.2542 23.6884C17.7625 23.6223 17.2913 23.4732 16.909 23.091C16.5268 22.7087 16.3777 22.2375 16.3116 21.7458C16.2499 21.2871 16.25 20.7143 16.25 20.0494V20.0494C16.25 19.3845 16.2499 18.7129 16.3116 18.2542C16.3777 17.7625 16.5268 17.2913 16.909 16.909C17.2913 16.5268 17.7625 16.3777 18.2542 16.3116C18.7129 16.2499 19.3845 16.25 20.0494 16.25H20.0494Z" fill="#0CFF85"/>
<path d="M32.0494 16.25C32.7143 16.25 33.2871 16.2499 33.7458 16.3116C34.2375 16.3777 34.7087 16.5268 35.091 16.909C35.4732 17.2913 35.6223 17.7625 35.6884 18.2542C35.7501 18.7129 35.75 19.3845 35.75 20.0494C35.75 20.7142 35.7501 21.2871 35.6884 21.7458C35.6223 22.2375 35.4732 22.7087 35.091 23.091C34.7087 23.4732 34.2375 23.6223 33.7458 23.6884C33.2871 23.7501 32.6155 23.75 31.9506 23.75C31.2858 23.75 30.7129 23.7501 30.2542 23.6884C29.7625 23.6223 29.2913 23.4732 28.909 23.091C28.5268 22.7087 28.3777 22.2375 28.3116 21.7458C28.2499 21.2871 28.25 20.7143 28.25 20.0494V20.0494C28.25 19.3845 28.2499 18.7129 28.3116 18.2542C28.3777 17.7625 28.5268 17.2913 28.909 16.909C29.2913 16.5268 29.7625 16.3777 30.2542 16.3116C30.7129 16.2499 31.3845 16.25 32.0494 16.25H32.0494Z" fill="#0CFF85"/>
<path d="M32.0494 28.25C32.7143 28.25 33.2871 28.2499 33.7458 28.3116C34.2375 28.3777 34.7087 28.5268 35.091 28.909C35.4732 29.2913 35.6223 29.7625 35.6884 30.2542C35.7501 30.7129 35.75 31.3845 35.75 32.0494C35.75 32.7142 35.7501 33.2871 35.6884 33.7458C35.6223 34.2375 35.4732 34.7087 35.091 35.091C34.7087 35.4732 34.2375 35.6223 33.7458 35.6884C33.2871 35.7501 32.6155 35.75 31.9506 35.75C31.2858 35.75 30.7129 35.7501 30.2542 35.6884C29.7625 35.6223 29.2913 35.4732 28.909 35.091C28.5268 34.7087 28.3777 34.2375 28.3116 33.7458C28.2499 33.2871 28.25 32.7143 28.25 32.0494V32.0494C28.25 31.3845 28.2499 30.7129 28.3116 30.2542C28.3777 29.7625 28.5268 29.2913 28.909 28.909C29.2913 28.5268 29.7625 28.3777 30.2542 28.3116C30.7129 28.2499 31.3845 28.25 32.0494 28.25H32.0494Z" fill="#0CFF85"/>
<path d="M20.0494 28.25C20.7143 28.25 21.2871 28.2499 21.7458 28.3116C22.2375 28.3777 22.7087 28.5268 23.091 28.909C23.4732 29.2913 23.6223 29.7625 23.6884 30.2542C23.7501 30.7129 23.75 31.2858 23.75 31.9506V32.0494C23.75 32.7142 23.7501 33.2871 23.6884 33.7458C23.6223 34.2375 23.4732 34.7087 23.091 35.091C22.7087 35.4732 22.2375 35.6223 21.7458 35.6884C21.2871 35.7501 20.7142 35.75 20.0494 35.75C19.3845 35.75 18.7129 35.7501 18.2542 35.6884C17.7625 35.6223 17.2913 35.4732 16.909 35.091C16.5268 34.7087 16.3777 34.2375 16.3116 33.7458C16.2499 33.2871 16.25 32.7143 16.25 32.0494V32.0494C16.25 31.3845 16.2499 30.7129 16.3116 30.2542C16.3777 29.7625 16.5268 29.2913 16.909 28.909C17.2913 28.5268 17.7625 28.3777 18.2542 28.3116C18.7129 28.2499 19.3845 28.25 20.0494 28.25H20.0494Z" fill="#0CFF85"/>
<path fill-rule="evenodd" clip-rule="evenodd" d="M22 20C22 19.4477 22.4477 19 23 19H26C26.5523 19 27 19.4477 27 20C27 20.5523 26.5523 21 26 21H23C22.4477 21 22 20.5523 22 20Z" fill="#0CFF85"/>
<path fill-rule="evenodd" clip-rule="evenodd" d="M25 32C25 31.4477 25.4477 31 26 31H29C29.5523 31 30 31.4477 30 32C30 32.5523 29.5523 33 29 33H26C25.4477 33 25 32.5523 25 32Z" fill="#0CFF85"/>
<path fill-rule="evenodd" clip-rule="evenodd" d="M32 22C32.5523 22 33 22.4477 33 23L33 26C33 26.5523 32.5523 27 32 27C31.4477 27 31 26.5523 31 26L31 23C31 22.4477 31.4477 22 32 22Z" fill="#0CFF85"/>
<path fill-rule="evenodd" clip-rule="evenodd" d="M20 25C20.5523 25 21 25.4477 21 26L21 29C21 29.5523 20.5523 30 20 30C19.4477 30 19 29.5523 19 29L19 26C19 25.4477 19.4477 25 20 25Z" fill="#0CFF85"/>
</g>
<defs>
<filter id="filter0_d_216_1353" x="0" y="0" width="52" height="52" filterUnits="userSpaceOnUse" color-interpolation-filters="sRGB">
<feFlood flood-opacity="0" result="BackgroundImageFix"/>
<feColorMatrix in="SourceAlpha" type="matrix" values="0 0 0 0 0 0 0 0 0 0 0 0 0 0 0 0 0 0 127 0" result="hardAlpha"/>
<feOffset/>
<feGaussianBlur stdDeviation="2"/>
<feComposite in2="hardAlpha" operator="out"/>
<feColorMatrix type="matrix" values="0 0 0 0 0.0470588 0 0 0 0 1 0 0 0 0 0.521569 0 0 0 1 0"/>
<feBlend mode="normal" in2="BackgroundImageFix" result="effect1_dropShadow_216_1353"/>
<feBlend mode="normal" in="SourceGraphic" in2="effect1_dropShadow_216_1353" result="shape"/>
</filter>
<radialGradient id="paint0_radial_216_1353" cx="0" cy="0" r="1" gradientUnits="userSpaceOnUse" gradientTransform="translate(7.5 6.5) rotate(46.1535) scale(52.6901)">
<stop stop-color="#272727"/>
<stop offset="1"/>
</radialGradient>
<linearGradient id="paint1_linear_216_1353" x1="8" y1="6.5" x2="43.5" y2="48" gradientUnits="userSpaceOnUse">
<stop/>
<stop offset="1" stop-color="#2D2D2D"/>
</linearGradient>
</defs>
</svg>
