<svg width="52" height="52" viewBox="0 0 52 52" fill="none" xmlns="http://www.w3.org/2000/svg">
<g filter="url(#filter0_d_216_1346)">
<rect x="4" y="4" width="44" height="44" rx="12" fill="url(#paint0_radial_216_1346)" shape-rendering="crispEdges"/>
<rect x="4.5" y="4.5" width="43" height="43" rx="11.5" stroke="url(#paint1_linear_216_1346)" shape-rendering="crispEdges"/>
<path d="M26 15.25C26.2392 15.4289 27.3956 16.2724 27.8027 16.6025C28.6155 17.2616 29.7021 18.2026 30.791 19.3262C31.8775 20.4472 32.9825 21.7664 33.8193 23.1846C34.6533 24.5978 35.2499 26.1587 35.25 27.748C35.25 32.1812 31.7426 36.75 26 36.75C20.2574 36.75 16.75 32.1812 16.75 27.748C16.7501 26.1587 17.3467 24.5978 18.1807 23.1846C19.0175 21.7664 20.1225 20.4472 21.209 19.3262C22.2979 18.2026 23.3845 17.2616 24.1973 16.6025C24.6044 16.2724 25.7608 15.4289 26 15.25ZM29 28C29 29.6569 27.6569 31 26 31V33C28.7614 33 31 30.7614 31 28H29Z" fill="#0CFF85"/>
</g>
<defs>
<filter id="filter0_d_216_1346" x="0" y="0" width="52" height="52" filterUnits="userSpaceOnUse" color-interpolation-filters="sRGB">
<feFlood flood-opacity="0" result="BackgroundImageFix"/>
<feColorMatrix in="SourceAlpha" type="matrix" values="0 0 0 0 0 0 0 0 0 0 0 0 0 0 0 0 0 0 127 0" result="hardAlpha"/>
<feOffset/>
<feGaussianBlur stdDeviation="2"/>
<feComposite in2="hardAlpha" operator="out"/>
<feColorMatrix type="matrix" values="0 0 0 0 0.0470588 0 0 0 0 1 0 0 0 0 0.521569 0 0 0 1 0"/>
<feBlend mode="normal" in2="BackgroundImageFix" result="effect1_dropShadow_216_1346"/>
<feBlend mode="normal" in="SourceGraphic" in2="effect1_dropShadow_216_1346" result="shape"/>
</filter>
<radialGradient id="paint0_radial_216_1346" cx="0" cy="0" r="1" gradientUnits="userSpaceOnUse" gradientTransform="translate(7.5 6.5) rotate(46.1535) scale(52.6901)">
<stop stop-color="#272727"/>
<stop offset="1"/>
</radialGradient>
<linearGradient id="paint1_linear_216_1346" x1="8" y1="6.5" x2="43.5" y2="48" gradientUnits="userSpaceOnUse">
<stop/>
<stop offset="1" stop-color="#2D2D2D"/>
</linearGradient>
</defs>
</svg>
