<svg width="52" height="52" viewBox="0 0 52 52" fill="none" xmlns="http://www.w3.org/2000/svg">
<g filter="url(#filter0_d_216_1332)">
<rect x="4" y="4" width="44" height="44" rx="12" fill="url(#paint0_radial_216_1332)" shape-rendering="crispEdges"/>
<rect x="4.5" y="4.5" width="43" height="43" rx="11.5" stroke="url(#paint1_linear_216_1332)" shape-rendering="crispEdges"/>
<path fill-rule="evenodd" clip-rule="evenodd" d="M20.1875 16.25V19.1136C20.1875 22.2767 22.7898 24.8409 26 24.8409C29.2102 24.8409 31.8125 22.2767 31.8125 19.1136V16.25H33.75V19.1136C33.75 23.3311 30.2802 26.75 26 26.75C21.7198 26.75 18.25 23.3311 18.25 19.1136V16.25H20.1875Z" fill="#0CFF85"/>
<path d="M18.25 35.75H33.75V32.8864C33.75 28.6689 30.2802 25.25 26 25.25C21.7198 25.25 18.25 28.6689 18.25 32.8864V35.75Z" fill="#0CFF85"/>
<path fill-rule="evenodd" clip-rule="evenodd" d="M17 16C17 15.4477 17.4477 15 18 15H34C34.5523 15 35 15.4477 35 16C35 16.5523 34.5523 17 34 17H18C17.4477 17 17 16.5523 17 16ZM17 36C17 35.4477 17.4477 35 18 35H34C34.5523 35 35 35.4477 35 36C35 36.5523 34.5523 37 34 37H18C17.4477 37 17 36.5523 17 36Z" fill="#0CFF85"/>
</g>
<defs>
<filter id="filter0_d_216_1332" x="0" y="0" width="52" height="52" filterUnits="userSpaceOnUse" color-interpolation-filters="sRGB">
<feFlood flood-opacity="0" result="BackgroundImageFix"/>
<feColorMatrix in="SourceAlpha" type="matrix" values="0 0 0 0 0 0 0 0 0 0 0 0 0 0 0 0 0 0 127 0" result="hardAlpha"/>
<feOffset/>
<feGaussianBlur stdDeviation="2"/>
<feComposite in2="hardAlpha" operator="out"/>
<feColorMatrix type="matrix" values="0 0 0 0 0.0470588 0 0 0 0 1 0 0 0 0 0.521569 0 0 0 1 0"/>
<feBlend mode="normal" in2="BackgroundImageFix" result="effect1_dropShadow_216_1332"/>
<feBlend mode="normal" in="SourceGraphic" in2="effect1_dropShadow_216_1332" result="shape"/>
</filter>
<radialGradient id="paint0_radial_216_1332" cx="0" cy="0" r="1" gradientUnits="userSpaceOnUse" gradientTransform="translate(7.5 6.5) rotate(46.1535) scale(52.6901)">
<stop stop-color="#272727"/>
<stop offset="1"/>
</radialGradient>
<linearGradient id="paint1_linear_216_1332" x1="8" y1="6.5" x2="43.5" y2="48" gradientUnits="userSpaceOnUse">
<stop/>
<stop offset="1" stop-color="#2D2D2D"/>
</linearGradient>
</defs>
</svg>
