<svg width="257" height="309" viewBox="0 0 257 309" fill="none" xmlns="http://www.w3.org/2000/svg">
<g filter="url(#filter0_i_179_35366)">
<circle cx="126.948" cy="127.484" r="100.507" fill="url(#paint0_linear_179_35366)"/>
</g>
<circle cx="126.948" cy="127.484" r="99.7782" stroke="url(#paint1_linear_179_35366)" stroke-width="1.45662"/>
<g filter="url(#filter1_i_179_35366)">
<circle cx="126.933" cy="127.097" r="73" fill="url(#paint2_linear_179_35366)"/>
</g>
<circle cx="126.933" cy="127.097" r="72.5" stroke="url(#paint3_linear_179_35366)"/>
<g filter="url(#filter2_i_179_35366)">
<circle cx="126.933" cy="127.097" r="43" fill="url(#paint4_linear_179_35366)"/>
</g>
<circle cx="126.933" cy="127.097" r="42.2717" stroke="url(#paint5_linear_179_35366)" stroke-width="1.45662"/>
<g filter="url(#filter3_f_179_35366)">
<rect x="102.601" y="202.817" width="49.28" height="49.28" rx="24.64" fill="#0CFF85" fill-opacity="0.1"/>
<path d="M126.201 227.994C126.52 227.846 126.856 227.737 127.241 227.737C127.627 227.737 127.963 227.846 128.282 227.994C128.577 228.131 128.909 228.328 129.284 228.55L130.469 229.25C130.859 229.481 131.204 229.685 131.476 229.886C131.772 230.104 132.033 230.354 132.226 230.7C132.417 231.045 132.494 231.4 132.529 231.769C132.561 232.112 132.561 232.524 132.561 232.997V232.998V234.237V234.237C132.561 234.71 132.561 235.122 132.529 235.466C132.494 235.835 132.417 236.19 132.226 236.534C132.033 236.881 131.772 237.131 131.476 237.349C131.204 237.55 130.859 237.754 130.469 237.984L129.284 238.685C128.909 238.907 128.577 239.104 128.282 239.241C127.963 239.389 127.627 239.497 127.241 239.497C126.856 239.497 126.52 239.389 126.201 239.241C125.906 239.104 125.573 238.907 125.198 238.685L125.198 238.685L124.014 237.984C123.624 237.754 123.279 237.55 123.007 237.349C122.711 237.131 122.45 236.881 122.257 236.534C122.066 236.19 121.989 235.835 121.954 235.466C121.921 235.122 121.921 234.71 121.921 234.237V234.237V232.998V232.997C121.921 232.524 121.921 232.112 121.954 231.769C121.989 231.4 122.066 231.045 122.257 230.7C122.45 230.354 122.711 230.104 123.007 229.886C123.279 229.685 123.624 229.481 124.014 229.25L124.046 229.231L125.166 228.568L125.198 228.55C125.573 228.328 125.906 228.131 126.201 227.994Z" fill="#0CFF85"/>
<path d="M134.69 215.463C135.296 215.545 136.009 215.781 136.506 216.463C136.8 216.866 136.911 217.319 136.961 217.787C137.07 218.796 137.06 219.88 136.977 220.891C136.892 221.925 136.394 222.758 135.529 223.338C135.115 223.615 134.63 223.842 134.302 224.013L130.589 225.95C129.883 226.318 129.303 226.621 128.802 226.827C128.277 227.043 127.783 227.177 127.241 227.177C126.699 227.177 126.206 227.043 125.681 226.827C125.179 226.621 124.6 226.318 123.893 225.95L120.18 224.013C119.852 223.842 119.367 223.615 118.953 223.338C118.088 222.758 117.59 221.925 117.505 220.891C117.422 219.88 117.413 218.796 117.521 217.787C117.571 217.319 117.682 216.866 117.976 216.463C118.473 215.781 119.186 215.545 119.792 215.463C120.355 215.387 121.009 215.429 121.371 215.429H125.232C125.653 215.429 125.863 215.429 125.994 215.56C126.125 215.691 126.125 215.902 126.125 216.325V219.617C126.125 220.236 126.625 220.737 127.241 220.737C127.858 220.737 128.357 220.236 128.357 219.617V216.325C128.357 215.902 128.357 215.691 128.488 215.56C128.619 215.429 128.83 215.429 129.251 215.429H133.112C133.474 215.429 134.127 215.387 134.69 215.463Z" fill="#0CFF85"/>
</g>
<g filter="url(#filter4_i_179_35366)">
<rect x="102.601" y="202.817" width="49.28" height="49.28" rx="24.64" fill="#121212"/>
<path fill-rule="evenodd" clip-rule="evenodd" d="M121.081 232.777C120.463 232.777 119.961 233.279 119.961 233.897V237.257H118.281V239.497L136.201 239.497V237.257H134.521V233.897C134.521 233.279 134.02 232.777 133.401 232.777H121.081ZM132.281 237.257V235.017H122.201V237.257L132.281 237.257Z" fill="#0CFF85"/>
<path d="M135.089 215.638C135.305 215.836 135.402 216.133 135.345 216.421L131.783 234.341C131.705 234.734 131.36 235.017 130.96 235.017H123.51C123.101 235.017 122.752 234.723 122.682 234.321L120.125 219.581L134.286 215.451C134.568 215.369 134.872 215.44 135.089 215.638Z" fill="#0CFF85"/>
</g>
<rect x="0.60091" y="97.7556" width="48.16" height="48.16" rx="12.88" transform="rotate(-4.35532 0.60091 97.7556)" fill="url(#paint6_radial_179_35366)"/>
<rect x="0.60091" y="97.7556" width="48.16" height="48.16" rx="12.88" transform="rotate(-4.35532 0.60091 97.7556)" stroke="url(#paint7_linear_179_35366)" stroke-width="1.12"/>
<path d="M24.4176 108.938C24.3449 108.652 24.3085 108.508 24.1831 108.473C24.0578 108.438 23.9599 108.534 23.7641 108.725C23.5981 108.887 23.441 109.066 23.2901 109.255C22.7139 109.98 22.108 111.02 21.3632 112.298L16.8862 119.985C16.2965 120.997 15.8114 121.83 15.5182 122.538C15.4104 122.799 15.3222 123.057 15.2624 123.315C15.2052 123.562 15.1766 123.686 15.2653 123.774C15.354 123.862 15.4891 123.83 15.7593 123.766L26.8156 121.159C27.1301 121.085 27.2873 121.048 27.3607 120.927C27.4341 120.807 27.3944 120.651 27.3151 120.339L24.4176 108.938Z" fill="white"/>
<path d="M16.7807 125.81C16.4366 125.891 16.2646 125.932 16.2361 126.073C16.2077 126.214 16.3423 126.312 16.6114 126.506C16.6241 126.516 16.637 126.525 16.6499 126.534C17.2686 126.975 18.1139 127.416 19.1358 127.948L24.4233 130.703C25.0076 131.007 25.5028 131.265 25.9332 131.436C25.9356 131.437 25.9384 131.435 25.9388 131.433L27.2506 124.311C27.3348 123.854 27.3769 123.625 27.2445 123.5C27.1121 123.374 26.8852 123.428 26.4313 123.535L16.7807 125.81Z" fill="white"/>
<path d="M28.3204 130.943C28.3058 131.022 28.2984 131.062 28.3033 131.097C28.32 131.219 28.4535 131.312 28.5739 131.286C28.6091 131.279 28.6397 131.261 28.7008 131.225C29.1004 130.991 29.5507 130.661 30.0823 130.272L34.8916 126.748C35.8211 126.067 36.59 125.504 37.1347 124.974C37.1822 124.928 37.2286 124.881 37.2738 124.834C37.4845 124.616 37.5899 124.507 37.5459 124.378C37.5019 124.248 37.3414 124.224 37.0205 124.176L30.4151 123.181C30.1093 123.135 29.9563 123.112 29.845 123.191C29.7336 123.27 29.7057 123.422 29.6498 123.725L28.3204 130.943Z" fill="white"/>
<path d="M37.5331 122.003C37.8302 122.048 37.9788 122.07 38.0597 121.966C38.1407 121.861 38.0861 121.735 37.9771 121.482C37.8858 121.27 37.7744 121.061 37.6482 120.853C37.2511 120.197 36.6455 119.447 35.9094 118.536L30.3198 111.616C29.39 110.465 28.6336 109.529 27.9543 108.9C27.7222 108.685 27.4824 108.491 27.2308 108.329C26.9541 108.151 26.8157 108.062 26.6912 108.152C26.5667 108.241 26.611 108.415 26.6995 108.763L29.6569 120.4C29.7103 120.61 29.737 120.715 29.8124 120.783C29.8879 120.852 29.9954 120.868 30.2103 120.9L37.5331 122.003Z" fill="white"/>
<rect x="72.8634" y="90.0352" width="48.16" height="48.16" rx="12.88" transform="rotate(16.4096 72.8634 90.0352)" fill="url(#paint8_radial_179_35366)"/>
<rect x="72.8634" y="90.0352" width="48.16" height="48.16" rx="12.88" transform="rotate(16.4096 72.8634 90.0352)" stroke="url(#paint9_linear_179_35366)" stroke-width="1.12"/>
<path d="M100.379 111.301C100.822 111.408 101.308 111.526 101.656 111.678C102.069 111.858 102.421 112.127 102.666 112.575C102.91 113.024 102.945 113.465 102.873 113.909C102.812 114.285 102.647 114.757 102.497 115.188C101.597 117.772 100.049 120.108 97.4859 121.505L95.4198 122.63C94.5181 123.121 94.1167 123.352 93.878 123.603C93.7125 123.777 93.5913 124.001 93.5272 124.649C93.5045 125.199 93.476 125.887 93.301 126.485C93.1081 127.145 92.7227 127.778 91.9698 128.188C91.2514 128.58 90.4809 128.789 89.7199 128.565C88.9589 128.341 88.4249 127.747 88.0334 127.029L82.5879 117.039C82.1964 116.321 81.9873 115.549 82.2114 114.788C82.4356 114.027 83.0292 113.493 83.7475 113.102C84.5004 112.691 85.2413 112.711 85.9002 112.906C86.4982 113.083 87.0915 113.433 87.5655 113.712C88.1454 114.01 88.3998 114.028 88.636 113.983C88.9765 113.919 89.3873 113.706 90.2886 113.215L92.355 112.089C94.9179 110.692 97.7189 110.657 100.379 111.301ZM96.4262 115.071C95.8329 114.897 95.2101 115.236 95.0353 115.829C94.8606 116.423 95.2 117.045 95.7934 117.22L95.8027 117.223C96.3961 117.398 97.0189 117.058 97.1937 116.465C97.3684 115.872 97.029 115.249 96.4356 115.074L96.4262 115.071Z" fill="white"/>
<path fill-rule="evenodd" clip-rule="evenodd" d="M81.6065 118.911C81.8878 119.427 81.6974 120.073 81.1815 120.354L78.539 121.794C78.023 122.076 77.3767 121.885 77.0955 121.369C76.8143 120.853 77.0047 120.207 77.5206 119.926L80.1631 118.486C80.6791 118.205 81.3253 118.395 81.6065 118.911ZM82.3233 122.449C82.8393 122.168 83.4856 122.359 83.7668 122.875C84.048 123.391 83.8577 124.037 83.3417 124.318L76.7355 127.918C76.2195 128.2 75.5732 128.009 75.292 127.493C75.0108 126.977 75.2012 126.331 75.7171 126.05L82.3233 122.449ZM85.927 126.838C86.2082 127.354 86.0179 128 85.5019 128.282L82.8594 129.722C82.3434 130.003 81.6972 129.813 81.416 129.297C81.1348 128.781 81.3251 128.135 81.8411 127.853L84.4836 126.413C84.9995 126.132 85.6458 126.322 85.927 126.838Z" fill="white"/>
<rect x="150.615" y="86.5823" width="48.16" height="48.16" rx="12.88" transform="rotate(33.3678 150.615 86.5823)" fill="url(#paint10_radial_179_35366)"/>
<rect x="150.615" y="86.5823" width="48.16" height="48.16" rx="12.88" transform="rotate(33.3678 150.615 86.5823)" stroke="url(#paint11_linear_179_35366)" stroke-width="1.12"/>
<path d="M156.414 109.848C157.69 107.91 160.295 107.374 162.232 108.65C164.169 109.926 164.706 112.531 163.43 114.468C163.378 114.547 163.324 114.623 163.267 114.697L167.951 117.782L164.867 122.466C164.948 122.512 165.028 122.561 165.106 122.613C167.044 123.888 167.58 126.493 166.304 128.43C165.028 130.368 162.423 130.904 160.486 129.628C160.407 129.576 160.331 129.522 160.257 129.466L157.172 134.149L150.644 129.85L151.589 129.132C151.81 128.965 152.008 128.757 152.17 128.51C152.936 127.347 152.614 125.785 151.452 125.019C150.29 124.254 148.727 124.575 147.961 125.738C147.799 125.985 147.686 126.248 147.619 126.517L147.333 127.67L140.805 123.37L145.104 116.842L145.822 117.788C145.99 118.009 146.197 118.206 146.444 118.369C147.607 119.134 149.169 118.812 149.935 117.65C150.7 116.488 150.379 114.925 149.216 114.159C148.969 113.997 148.706 113.884 148.437 113.817L147.284 113.531L151.584 107.003L156.268 110.088C156.314 110.007 156.362 109.927 156.414 109.848Z" fill="white"/>
<rect x="195.437" y="104.516" width="48.16" height="48.16" rx="12.88" transform="rotate(-18.074 195.437 104.516)" fill="url(#paint12_radial_179_35366)"/>
<rect x="195.437" y="104.516" width="48.16" height="48.16" rx="12.88" transform="rotate(-18.074 195.437 104.516)" stroke="url(#paint13_linear_179_35366)" stroke-width="1.12"/>
<path d="M228.11 115.059L232.036 113.778C232.359 113.673 232.714 113.772 232.935 114.03C233.156 114.288 233.199 114.654 233.046 114.957L223.715 132.988L222.994 122.03L218.693 123.434C218.422 123.522 218.125 123.467 217.904 123.288C217.682 123.108 217.567 122.829 217.598 122.545L218.972 109.795L229.911 106.225L228.11 115.059Z" fill="white"/>
<line x1="33.0216" y1="41.5371" x2="33.0216" y2="54.9771" stroke="url(#paint14_linear_179_35366)" stroke-width="0.84"/>
<line x1="27.5605" y1="47.8373" x2="38.4805" y2="47.8373" stroke="url(#paint15_linear_179_35366)" stroke-width="0.84"/>
<line x1="236.861" y1="153.537" x2="236.861" y2="166.977" stroke="url(#paint16_linear_179_35366)" stroke-width="0.84"/>
<line x1="231.4" y1="159.837" x2="242.32" y2="159.837" stroke="url(#paint17_linear_179_35366)" stroke-width="0.84"/>
<line x1="72.2208" y1="225.217" x2="72.2208" y2="238.657" stroke="url(#paint18_linear_179_35366)" stroke-width="0.84"/>
<line x1="66.7617" y1="231.517" x2="77.6817" y2="231.517" stroke="url(#paint19_linear_179_35366)" stroke-width="0.84"/>
<line x1="121.502" y1="146.817" x2="121.502" y2="160.257" stroke="url(#paint20_linear_179_35366)" stroke-width="0.84"/>
<line x1="116.041" y1="153.117" x2="126.961" y2="153.117" stroke="url(#paint21_linear_179_35366)" stroke-width="0.84"/>
<line x1="103.582" y1="54.9771" x2="103.582" y2="68.4171" stroke="url(#paint22_linear_179_35366)" stroke-width="0.84"/>
<line x1="98.1216" y1="61.2773" x2="109.042" y2="61.2773" stroke="url(#paint23_linear_179_35366)" stroke-width="0.84"/>
<line x1="170.781" y1="-1.83588e-08" x2="170.781" y2="13.4885" stroke="url(#paint24_linear_179_35366)" stroke-width="0.84"/>
<line x1="165.32" y1="6.32438" x2="176.24" y2="6.32438" stroke="url(#paint25_linear_179_35366)" stroke-width="0.84"/>
<defs>
<filter id="filter0_i_179_35366" x="26.4412" y="26.9771" width="209.753" height="209.753" filterUnits="userSpaceOnUse" color-interpolation-filters="sRGB">
<feFlood flood-opacity="0" result="BackgroundImageFix"/>
<feBlend mode="normal" in="SourceGraphic" in2="BackgroundImageFix" result="shape"/>
<feColorMatrix in="SourceAlpha" type="matrix" values="0 0 0 0 0 0 0 0 0 0 0 0 0 0 0 0 0 0 127 0" result="hardAlpha"/>
<feOffset dx="8.7397" dy="8.7397"/>
<feGaussianBlur stdDeviation="11.6529"/>
<feComposite in2="hardAlpha" operator="arithmetic" k2="-1" k3="1"/>
<feColorMatrix type="matrix" values="0 0 0 0 1 0 0 0 0 1 0 0 0 0 1 0 0 0 0.03 0"/>
<feBlend mode="normal" in2="shape" result="effect1_innerShadow_179_35366"/>
</filter>
<filter id="filter1_i_179_35366" x="53.9333" y="54.0972" width="154.74" height="154.74" filterUnits="userSpaceOnUse" color-interpolation-filters="sRGB">
<feFlood flood-opacity="0" result="BackgroundImageFix"/>
<feBlend mode="normal" in="SourceGraphic" in2="BackgroundImageFix" result="shape"/>
<feColorMatrix in="SourceAlpha" type="matrix" values="0 0 0 0 0 0 0 0 0 0 0 0 0 0 0 0 0 0 127 0" result="hardAlpha"/>
<feOffset dx="8.7397" dy="8.7397"/>
<feGaussianBlur stdDeviation="11.6529"/>
<feComposite in2="hardAlpha" operator="arithmetic" k2="-1" k3="1"/>
<feColorMatrix type="matrix" values="0 0 0 0 1 0 0 0 0 1 0 0 0 0 1 0 0 0 0.03 0"/>
<feBlend mode="normal" in2="shape" result="effect1_innerShadow_179_35366"/>
</filter>
<filter id="filter2_i_179_35366" x="83.9333" y="84.0972" width="94.7399" height="94.7397" filterUnits="userSpaceOnUse" color-interpolation-filters="sRGB">
<feFlood flood-opacity="0" result="BackgroundImageFix"/>
<feBlend mode="normal" in="SourceGraphic" in2="BackgroundImageFix" result="shape"/>
<feColorMatrix in="SourceAlpha" type="matrix" values="0 0 0 0 0 0 0 0 0 0 0 0 0 0 0 0 0 0 127 0" result="hardAlpha"/>
<feOffset dx="8.7397" dy="8.7397"/>
<feGaussianBlur stdDeviation="11.6529"/>
<feComposite in2="hardAlpha" operator="arithmetic" k2="-1" k3="1"/>
<feColorMatrix type="matrix" values="0 0 0 0 1 0 0 0 0 1 0 0 0 0 1 0 0 0 0.03 0"/>
<feBlend mode="normal" in2="shape" result="effect1_innerShadow_179_35366"/>
</filter>
<filter id="filter3_f_179_35366" x="46.6013" y="146.817" width="161.28" height="161.28" filterUnits="userSpaceOnUse" color-interpolation-filters="sRGB">
<feFlood flood-opacity="0" result="BackgroundImageFix"/>
<feBlend mode="normal" in="SourceGraphic" in2="BackgroundImageFix" result="shape"/>
<feGaussianBlur stdDeviation="28" result="effect1_foregroundBlur_179_35366"/>
</filter>
<filter id="filter4_i_179_35366" x="102.601" y="202.817" width="49.28" height="49.28" filterUnits="userSpaceOnUse" color-interpolation-filters="sRGB">
<feFlood flood-opacity="0" result="BackgroundImageFix"/>
<feBlend mode="normal" in="SourceGraphic" in2="BackgroundImageFix" result="shape"/>
<feColorMatrix in="SourceAlpha" type="matrix" values="0 0 0 0 0 0 0 0 0 0 0 0 0 0 0 0 0 0 127 0" result="hardAlpha"/>
<feOffset/>
<feGaussianBlur stdDeviation="3.36"/>
<feComposite in2="hardAlpha" operator="arithmetic" k2="-1" k3="1"/>
<feColorMatrix type="matrix" values="0 0 0 0 1 0 0 0 0 1 0 0 0 0 1 0 0 0 0.1 0"/>
<feBlend mode="normal" in2="shape" result="effect1_innerShadow_179_35366"/>
</filter>
<linearGradient id="paint0_linear_179_35366" x1="126.948" y1="26.9771" x2="126.948" y2="227.99" gradientUnits="userSpaceOnUse">
<stop stop-opacity="0"/>
<stop offset="1" stop-color="#151515"/>
</linearGradient>
<linearGradient id="paint1_linear_179_35366" x1="126.948" y1="26.9771" x2="126.948" y2="227.99" gradientUnits="userSpaceOnUse">
<stop/>
<stop offset="1" stop-color="#1F1F1F"/>
</linearGradient>
<linearGradient id="paint2_linear_179_35366" x1="126.933" y1="54.0972" x2="126.933" y2="200.097" gradientUnits="userSpaceOnUse">
<stop stop-opacity="0"/>
<stop offset="1" stop-color="#151515"/>
</linearGradient>
<linearGradient id="paint3_linear_179_35366" x1="126.933" y1="54.0972" x2="126.933" y2="200.097" gradientUnits="userSpaceOnUse">
<stop/>
<stop offset="1" stop-color="#1F1F1F"/>
</linearGradient>
<linearGradient id="paint4_linear_179_35366" x1="126.933" y1="84.0972" x2="126.933" y2="170.097" gradientUnits="userSpaceOnUse">
<stop stop-opacity="0"/>
<stop offset="1" stop-color="#151515"/>
</linearGradient>
<linearGradient id="paint5_linear_179_35366" x1="126.933" y1="84.0972" x2="126.933" y2="170.097" gradientUnits="userSpaceOnUse">
<stop/>
<stop offset="1" stop-color="#1F1F1F"/>
</linearGradient>
<radialGradient id="paint6_radial_179_35366" cx="0" cy="0" r="1" gradientUnits="userSpaceOnUse" gradientTransform="translate(3.92 100.04) rotate(46.1535) scale(59.0129)">
<stop stop-color="#272727"/>
<stop offset="1"/>
</radialGradient>
<linearGradient id="paint7_linear_179_35366" x1="4.48" y1="100.04" x2="44.24" y2="146.52" gradientUnits="userSpaceOnUse">
<stop/>
<stop offset="1" stop-color="#2D2D2D"/>
</linearGradient>
<radialGradient id="paint8_radial_179_35366" cx="0" cy="0" r="1" gradientUnits="userSpaceOnUse" gradientTransform="translate(76.4044 92.1398) rotate(46.1535) scale(59.0129)">
<stop stop-color="#272727"/>
<stop offset="1"/>
</radialGradient>
<linearGradient id="paint9_linear_179_35366" x1="76.9644" y1="92.1398" x2="116.724" y2="138.62" gradientUnits="userSpaceOnUse">
<stop/>
<stop offset="1" stop-color="#2D2D2D"/>
</linearGradient>
<radialGradient id="paint10_radial_179_35366" cx="0" cy="0" r="1" gradientUnits="userSpaceOnUse" gradientTransform="translate(154.375 88.6066) rotate(46.1535) scale(59.0129)">
<stop stop-color="#272727"/>
<stop offset="1"/>
</radialGradient>
<linearGradient id="paint11_linear_179_35366" x1="154.935" y1="88.6066" x2="194.695" y2="135.087" gradientUnits="userSpaceOnUse">
<stop/>
<stop offset="1" stop-color="#2D2D2D"/>
</linearGradient>
<radialGradient id="paint12_radial_179_35366" cx="0" cy="0" r="1" gradientUnits="userSpaceOnUse" gradientTransform="translate(198.65 106.957) rotate(46.1535) scale(59.0129)">
<stop stop-color="#272727"/>
<stop offset="1"/>
</radialGradient>
<linearGradient id="paint13_linear_179_35366" x1="199.21" y1="106.957" x2="238.97" y2="153.437" gradientUnits="userSpaceOnUse">
<stop/>
<stop offset="1" stop-color="#2D2D2D"/>
</linearGradient>
<linearGradient id="paint14_linear_179_35366" x1="32.1016" y1="41.5371" x2="32.1016" y2="54.9771" gradientUnits="userSpaceOnUse">
<stop/>
<stop offset="0.5" stop-color="white"/>
<stop offset="1"/>
</linearGradient>
<linearGradient id="paint15_linear_179_35366" x1="27.5605" y1="48.7573" x2="38.4805" y2="48.7573" gradientUnits="userSpaceOnUse">
<stop/>
<stop offset="0.5" stop-color="white"/>
<stop offset="1"/>
</linearGradient>
<linearGradient id="paint16_linear_179_35366" x1="235.941" y1="153.537" x2="235.941" y2="166.977" gradientUnits="userSpaceOnUse">
<stop/>
<stop offset="0.5" stop-color="#0CFF85"/>
<stop offset="1"/>
</linearGradient>
<linearGradient id="paint17_linear_179_35366" x1="231.4" y1="160.757" x2="242.32" y2="160.757" gradientUnits="userSpaceOnUse">
<stop/>
<stop offset="0.5" stop-color="#0CFF85"/>
<stop offset="1"/>
</linearGradient>
<linearGradient id="paint18_linear_179_35366" x1="71.3008" y1="225.217" x2="71.3008" y2="238.657" gradientUnits="userSpaceOnUse">
<stop/>
<stop offset="0.5" stop-color="white"/>
<stop offset="1"/>
</linearGradient>
<linearGradient id="paint19_linear_179_35366" x1="66.7617" y1="232.437" x2="77.6817" y2="232.437" gradientUnits="userSpaceOnUse">
<stop/>
<stop offset="0.5" stop-color="white"/>
<stop offset="1"/>
</linearGradient>
<linearGradient id="paint20_linear_179_35366" x1="120.582" y1="146.817" x2="120.582" y2="160.257" gradientUnits="userSpaceOnUse">
<stop/>
<stop offset="0.5" stop-color="#0CFF85"/>
<stop offset="1"/>
</linearGradient>
<linearGradient id="paint21_linear_179_35366" x1="116.041" y1="154.037" x2="126.961" y2="154.037" gradientUnits="userSpaceOnUse">
<stop/>
<stop offset="0.5" stop-color="#0CFF85"/>
<stop offset="1"/>
</linearGradient>
<linearGradient id="paint22_linear_179_35366" x1="102.662" y1="54.9771" x2="102.662" y2="68.4171" gradientUnits="userSpaceOnUse">
<stop/>
<stop offset="0.5" stop-color="#0CFF85"/>
<stop offset="1"/>
</linearGradient>
<linearGradient id="paint23_linear_179_35366" x1="98.1216" y1="62.1973" x2="109.042" y2="62.1973" gradientUnits="userSpaceOnUse">
<stop/>
<stop offset="0.5" stop-color="#0CFF85"/>
<stop offset="1"/>
</linearGradient>
<linearGradient id="paint24_linear_179_35366" x1="169.861" y1="2.18557e-08" x2="169.861" y2="13.4885" gradientUnits="userSpaceOnUse">
<stop/>
<stop offset="0.5" stop-color="white"/>
<stop offset="1"/>
</linearGradient>
<linearGradient id="paint25_linear_179_35366" x1="165.32" y1="7.24438" x2="176.24" y2="7.24438" gradientUnits="userSpaceOnUse">
<stop/>
<stop offset="0.5" stop-color="white"/>
<stop offset="1"/>
</linearGradient>
</defs>
</svg>
