<svg width="693" height="295" viewBox="0 0 693 295" fill="none" xmlns="http://www.w3.org/2000/svg">
<rect x="352" y="52" width="59" height="26" rx="4" fill="white" fill-opacity="0.06"/>
<rect x="352.5" y="52.5" width="58" height="25" rx="3.5" stroke="white" stroke-opacity="0.1"/>
<path d="M363.512 68V63.952H362.312V63.256H362.8C363.125 63.256 363.355 63.1893 363.488 63.056C363.627 62.9227 363.696 62.6773 363.696 62.32H364.376V68H363.512ZM365.644 68C365.644 67.5733 365.708 67.192 365.836 66.856C365.964 66.52 366.183 66.208 366.492 65.92C366.801 65.632 367.228 65.344 367.772 65.056C368.033 64.9227 368.241 64.8 368.396 64.688C368.556 64.576 368.671 64.4587 368.74 64.336C368.809 64.208 368.844 64.056 368.844 63.88C368.844 63.6133 368.759 63.3973 368.588 63.232C368.417 63.0667 368.161 62.984 367.82 62.984C367.457 62.984 367.169 63.0827 366.956 63.28C366.748 63.472 366.617 63.7493 366.564 64.112L365.668 64.056C365.732 63.48 365.948 63.0267 366.316 62.696C366.684 62.36 367.185 62.192 367.82 62.192C368.428 62.192 368.9 62.3467 369.236 62.656C369.572 62.9653 369.74 63.368 369.74 63.864C369.74 64.152 369.692 64.4 369.596 64.608C369.5 64.816 369.34 65.0107 369.116 65.192C368.892 65.368 368.588 65.5573 368.204 65.76C367.713 66.0213 367.343 66.28 367.092 66.536C366.841 66.792 366.708 67.016 366.692 67.208H369.74V68H365.644ZM372.844 68V62.32H374.028L375.716 66.984L377.404 62.32H378.588V68H377.724V63.84L376.196 67.992H375.236L373.708 63.84V68H372.844ZM381.547 68.096C381.142 68.096 380.787 68.0053 380.483 67.824C380.179 67.6373 379.945 67.3787 379.779 67.048C379.614 66.7173 379.531 66.3253 379.531 65.872C379.531 65.4187 379.614 65.0267 379.779 64.696C379.945 64.3653 380.179 64.1093 380.483 63.928C380.787 63.7413 381.142 63.648 381.547 63.648C381.953 63.648 382.307 63.7413 382.611 63.928C382.915 64.1093 383.15 64.3653 383.315 64.696C383.481 65.0267 383.563 65.4187 383.563 65.872C383.563 66.3253 383.481 66.7173 383.315 67.048C383.15 67.3787 382.915 67.6373 382.611 67.824C382.307 68.0053 381.953 68.096 381.547 68.096ZM381.547 67.36C381.91 67.36 382.19 67.2293 382.387 66.968C382.585 66.7067 382.683 66.3413 382.683 65.872C382.683 65.408 382.585 65.0453 382.387 64.784C382.19 64.5173 381.91 64.384 381.547 64.384C381.19 64.384 380.91 64.5173 380.707 64.784C380.51 65.0453 380.411 65.408 380.411 65.872C380.411 66.3413 380.51 66.7067 380.707 66.968C380.91 67.2293 381.19 67.36 381.547 67.36ZM384.42 68V63.744H385.196L385.212 64.488C385.324 64.1947 385.495 63.9813 385.724 63.848C385.954 63.7147 386.215 63.648 386.508 63.648C386.823 63.648 387.087 63.72 387.3 63.864C387.514 64.0027 387.674 64.1947 387.78 64.44C387.892 64.68 387.948 64.9547 387.948 65.264V68H387.1V65.52C387.1 65.1467 387.036 64.8613 386.908 64.664C386.786 64.4613 386.575 64.36 386.276 64.36C385.972 64.36 385.727 64.4613 385.54 64.664C385.359 64.8613 385.268 65.1467 385.268 65.52V68H384.42ZM390.474 68C390.069 68 389.77 67.9093 389.578 67.728C389.386 67.5413 389.29 67.248 389.29 66.848V64.44H388.642V63.744H389.29V62.744H390.138V63.744H391.266V64.44H390.138V66.784C390.138 66.9813 390.181 67.1173 390.266 67.192C390.352 67.2667 390.482 67.304 390.658 67.304H391.266V68H390.474ZM392.014 68V62.32H392.862V64.36C392.974 64.1147 393.139 63.936 393.358 63.824C393.582 63.7067 393.833 63.648 394.11 63.648C394.574 63.648 394.929 63.8 395.174 64.104C395.419 64.4027 395.542 64.7893 395.542 65.264V68H394.694V65.488C394.694 64.736 394.425 64.36 393.886 64.36C393.571 64.36 393.321 64.4587 393.134 64.656C392.953 64.848 392.862 65.1307 392.862 65.504V68H392.014ZM398.287 68.096C397.668 68.096 397.204 67.9627 396.895 67.696C396.586 67.424 396.415 67.0773 396.383 66.656L397.255 66.616C397.292 66.8507 397.388 67.0373 397.543 67.176C397.698 67.3147 397.946 67.384 398.287 67.384C398.554 67.384 398.756 67.3413 398.895 67.256C399.039 67.1707 399.111 67.0347 399.111 66.848C399.111 66.7413 399.087 66.6533 399.039 66.584C398.991 66.5147 398.898 66.456 398.759 66.408C398.62 66.3547 398.415 66.304 398.143 66.256C397.727 66.176 397.402 66.0827 397.167 65.976C396.938 65.864 396.775 65.728 396.679 65.568C396.583 65.4027 396.535 65.2027 396.535 64.968C396.535 64.584 396.682 64.2693 396.975 64.024C397.268 63.7733 397.692 63.648 398.247 63.648C398.636 63.648 398.956 63.7147 399.207 63.848C399.458 63.976 399.647 64.1467 399.775 64.36C399.903 64.5733 399.98 64.8027 400.007 65.048L399.135 65.096C399.119 64.8933 399.042 64.72 398.903 64.576C398.77 64.432 398.546 64.36 398.231 64.36C397.954 64.36 397.748 64.4133 397.615 64.52C397.482 64.6267 397.415 64.7653 397.415 64.936C397.415 65.1227 397.476 65.264 397.599 65.36C397.727 65.4507 397.964 65.5227 398.311 65.576C398.743 65.6453 399.079 65.736 399.319 65.848C399.564 65.9547 399.738 66.0907 399.839 66.256C399.94 66.416 399.991 66.6107 399.991 66.84C399.991 67.24 399.834 67.5493 399.519 67.768C399.204 67.9867 398.794 68.096 398.287 68.096Z" fill="#0CFF85"/>
<mask id="path-4-inside-1_179_35315" fill="white">
<path d="M0 4C0 1.79086 1.79086 0 4 0H355C357.209 0 359 1.79086 359 4V29C359 31.2091 357.209 33 355 33H4C1.79087 33 0 31.2091 0 29V4Z"/>
</mask>
<path d="M-1 4C-1 1.23858 1.23858 -1 4 -1H354C356.761 -1 359 1.23858 359 4C359 2.34315 357.209 1 355 1H4C2.34315 1 1 2.34315 1 4H-1ZM359 33H0H359ZM4 33C1.23858 33 -1 30.7614 -1 28V4C-1 1.23858 1.23858 -1 4 -1V1C2.34315 1 1 2.34315 1 4V29C1 31.2091 2.34315 33 4 33ZM359 0V33V0Z" fill="white" fill-opacity="0.1" mask="url(#path-4-inside-1_179_35315)"/>
<line x1="10" y1="15.5" x2="70" y2="15.5" stroke="white" stroke-opacity="0.1" stroke-width="2"/>
<path d="M94.104 21.192C93.424 21.192 92.832 21.068 92.328 20.82C91.832 20.572 91.44 20.228 91.152 19.788C90.864 19.348 90.696 18.836 90.648 18.252L91.98 18.168C92.06 18.76 92.276 19.216 92.628 19.536C92.988 19.856 93.488 20.016 94.128 20.016C94.68 20.016 95.108 19.912 95.412 19.704C95.716 19.496 95.868 19.192 95.868 18.792C95.868 18.552 95.808 18.34 95.688 18.156C95.576 17.964 95.356 17.792 95.028 17.64C94.708 17.48 94.236 17.324 93.612 17.172C92.932 17.012 92.388 16.832 91.98 16.632C91.572 16.424 91.276 16.172 91.092 15.876C90.916 15.572 90.828 15.2 90.828 14.76C90.828 14.272 90.944 13.844 91.176 13.476C91.416 13.1 91.756 12.808 92.196 12.6C92.636 12.392 93.164 12.288 93.78 12.288C94.428 12.288 94.984 12.408 95.448 12.648C95.912 12.888 96.276 13.216 96.54 13.632C96.804 14.048 96.968 14.524 97.032 15.06L95.7 15.132C95.636 14.644 95.44 14.244 95.112 13.932C94.792 13.62 94.34 13.464 93.756 13.464C93.26 13.464 92.868 13.58 92.58 13.812C92.3 14.036 92.16 14.336 92.16 14.712C92.16 14.96 92.216 15.164 92.328 15.324C92.448 15.484 92.656 15.628 92.952 15.756C93.256 15.876 93.684 16 94.236 16.128C94.972 16.296 95.556 16.504 95.988 16.752C96.42 16.992 96.728 17.276 96.912 17.604C97.104 17.932 97.2 18.304 97.2 18.72C97.2 19.224 97.068 19.664 96.804 20.04C96.548 20.408 96.188 20.692 95.724 20.892C95.26 21.092 94.72 21.192 94.104 21.192ZM101.52 21.144C100.912 21.144 100.38 21.008 99.9242 20.736C99.4682 20.456 99.1162 20.068 98.8682 19.572C98.6202 19.068 98.4962 18.48 98.4962 17.808C98.4962 17.136 98.6202 16.552 98.8682 16.056C99.1162 15.552 99.4682 15.164 99.9242 14.892C100.38 14.612 100.912 14.472 101.52 14.472C102.296 14.472 102.94 14.676 103.452 15.084C103.964 15.484 104.272 16.052 104.376 16.788L103.044 16.86C102.98 16.444 102.812 16.128 102.54 15.912C102.268 15.688 101.928 15.576 101.52 15.576C100.984 15.576 100.564 15.776 100.26 16.176C99.9642 16.568 99.8162 17.112 99.8162 17.808C99.8162 18.512 99.9642 19.06 100.26 19.452C100.564 19.844 100.984 20.04 101.52 20.04C101.928 20.04 102.268 19.928 102.54 19.704C102.812 19.472 102.98 19.124 103.044 18.66L104.376 18.732C104.272 19.468 103.964 20.056 103.452 20.496C102.948 20.928 102.304 21.144 101.52 21.144ZM108.165 21.144C107.557 21.144 107.025 21.008 106.569 20.736C106.113 20.456 105.761 20.068 105.513 19.572C105.265 19.076 105.141 18.488 105.141 17.808C105.141 17.128 105.265 16.54 105.513 16.044C105.761 15.548 106.113 15.164 106.569 14.892C107.025 14.612 107.557 14.472 108.165 14.472C108.773 14.472 109.305 14.612 109.761 14.892C110.217 15.164 110.569 15.548 110.817 16.044C111.065 16.54 111.189 17.128 111.189 17.808C111.189 18.488 111.065 19.076 110.817 19.572C110.569 20.068 110.217 20.456 109.761 20.736C109.305 21.008 108.773 21.144 108.165 21.144ZM108.165 20.04C108.709 20.04 109.129 19.844 109.425 19.452C109.721 19.06 109.869 18.512 109.869 17.808C109.869 17.112 109.721 16.568 109.425 16.176C109.129 15.776 108.709 15.576 108.165 15.576C107.629 15.576 107.209 15.776 106.905 16.176C106.609 16.568 106.461 17.112 106.461 17.808C106.461 18.512 106.609 19.06 106.905 19.452C107.209 19.844 107.629 20.04 108.165 20.04ZM112.474 21V14.616H113.638L113.674 15.828C113.794 15.412 113.978 15.108 114.226 14.916C114.482 14.716 114.806 14.616 115.198 14.616H115.81V15.756H115.198C114.71 15.756 114.346 15.876 114.106 16.116C113.866 16.356 113.746 16.728 113.746 17.232V21H112.474ZM119.344 21.144C118.72 21.144 118.18 21.008 117.724 20.736C117.276 20.456 116.928 20.068 116.68 19.572C116.44 19.068 116.32 18.48 116.32 17.808C116.32 17.136 116.44 16.552 116.68 16.056C116.928 15.552 117.276 15.164 117.724 14.892C118.172 14.612 118.7 14.472 119.308 14.472C119.884 14.472 120.392 14.608 120.832 14.88C121.272 15.144 121.612 15.528 121.852 16.032C122.1 16.536 122.224 17.144 122.224 17.856V18.18H117.64C117.672 18.804 117.836 19.272 118.132 19.584C118.436 19.896 118.844 20.052 119.356 20.052C119.732 20.052 120.04 19.968 120.28 19.8C120.528 19.624 120.704 19.384 120.808 19.08L122.128 19.164C121.96 19.764 121.628 20.244 121.132 20.604C120.644 20.964 120.048 21.144 119.344 21.144ZM117.64 17.22H120.88C120.84 16.652 120.676 16.232 120.388 15.96C120.1 15.688 119.74 15.552 119.308 15.552C118.852 15.552 118.476 15.696 118.18 15.984C117.892 16.264 117.712 16.676 117.64 17.22ZM126.68 21V12.48H129.74C130.764 12.48 131.536 12.664 132.056 13.032C132.576 13.4 132.836 13.984 132.836 14.784C132.836 15.272 132.696 15.68 132.416 16.008C132.136 16.328 131.748 16.524 131.252 16.596C131.868 16.668 132.344 16.888 132.68 17.256C133.024 17.624 133.196 18.092 133.196 18.66C133.196 19.436 132.936 20.02 132.416 20.412C131.896 20.804 131.156 21 130.196 21H126.68ZM127.976 16.116H129.716C130.284 16.116 130.724 16.008 131.036 15.792C131.348 15.576 131.504 15.272 131.504 14.88C131.504 14.056 130.908 13.644 129.716 13.644H127.976V16.116ZM127.976 19.836H130.16C130.696 19.836 131.112 19.728 131.408 19.512C131.712 19.288 131.864 18.964 131.864 18.54C131.864 18.124 131.712 17.8 131.408 17.568C131.112 17.336 130.696 17.22 130.16 17.22H127.976V19.836ZM134.693 21V14.616H135.857L135.893 15.828C136.013 15.412 136.197 15.108 136.445 14.916C136.701 14.716 137.025 14.616 137.417 14.616H138.029V15.756H137.417C136.929 15.756 136.565 15.876 136.325 16.116C136.085 16.356 135.965 16.728 135.965 17.232V21H134.693ZM141.563 21.144C140.939 21.144 140.399 21.008 139.943 20.736C139.495 20.456 139.147 20.068 138.899 19.572C138.659 19.068 138.539 18.48 138.539 17.808C138.539 17.136 138.659 16.552 138.899 16.056C139.147 15.552 139.495 15.164 139.943 14.892C140.391 14.612 140.919 14.472 141.527 14.472C142.103 14.472 142.611 14.608 143.051 14.88C143.491 15.144 143.831 15.528 144.071 16.032C144.319 16.536 144.443 17.144 144.443 17.856V18.18H139.859C139.891 18.804 140.055 19.272 140.351 19.584C140.655 19.896 141.063 20.052 141.575 20.052C141.951 20.052 142.259 19.968 142.499 19.8C142.747 19.624 142.923 19.384 143.027 19.08L144.347 19.164C144.179 19.764 143.847 20.244 143.351 20.604C142.863 20.964 142.267 21.144 141.563 21.144ZM139.859 17.22H143.099C143.059 16.652 142.895 16.232 142.607 15.96C142.319 15.688 141.959 15.552 141.527 15.552C141.071 15.552 140.695 15.696 140.399 15.984C140.111 16.264 139.931 16.676 139.859 17.22ZM147.649 21.144C146.985 21.144 146.453 20.992 146.053 20.688C145.661 20.384 145.465 19.956 145.465 19.404C145.465 18.86 145.629 18.432 145.957 18.12C146.293 17.808 146.809 17.584 147.505 17.448L149.701 17.028C149.701 16.044 149.241 15.552 148.321 15.552C147.913 15.552 147.593 15.644 147.361 15.828C147.129 16.012 146.969 16.276 146.881 16.62L145.573 16.536C145.693 15.896 145.989 15.392 146.461 15.024C146.941 14.656 147.561 14.472 148.321 14.472C149.185 14.472 149.841 14.704 150.289 15.168C150.745 15.624 150.973 16.268 150.973 17.1V19.584C150.973 19.736 150.997 19.844 151.045 19.908C151.101 19.964 151.189 19.992 151.309 19.992H151.537V21C151.425 21.024 151.269 21.036 151.069 21.036C150.709 21.036 150.421 20.96 150.205 20.808C149.989 20.656 149.857 20.392 149.809 20.016C149.649 20.352 149.373 20.624 148.981 20.832C148.589 21.04 148.145 21.144 147.649 21.144ZM147.853 20.136C148.429 20.136 148.881 19.972 149.209 19.644C149.537 19.316 149.701 18.9 149.701 18.396V17.988L147.829 18.348C147.445 18.42 147.173 18.536 147.013 18.696C146.861 18.848 146.785 19.044 146.785 19.284C146.785 19.556 146.877 19.768 147.061 19.92C147.253 20.064 147.517 20.136 147.853 20.136ZM152.552 21V12.48H153.824V17.772L156.692 14.616H158.3L155.804 17.304L158.396 21H156.932L154.952 18.096L153.824 19.296V21H152.552ZM161.453 21.144C160.909 21.144 160.437 21.008 160.037 20.736C159.637 20.464 159.329 20.08 159.113 19.584C158.897 19.08 158.789 18.488 158.789 17.808C158.789 17.128 158.897 16.54 159.113 16.044C159.329 15.54 159.637 15.152 160.037 14.88C160.437 14.608 160.909 14.472 161.453 14.472C161.893 14.472 162.285 14.564 162.629 14.748C162.973 14.932 163.233 15.188 163.409 15.516V12.48H164.681V21H163.493L163.457 20.04C163.281 20.392 163.013 20.664 162.653 20.856C162.301 21.048 161.901 21.144 161.453 21.144ZM161.789 20.04C162.309 20.04 162.709 19.844 162.989 19.452C163.269 19.06 163.409 18.512 163.409 17.808C163.409 17.096 163.269 16.548 162.989 16.164C162.709 15.772 162.309 15.576 161.789 15.576C161.277 15.576 160.869 15.776 160.565 16.176C160.261 16.568 160.109 17.112 160.109 17.808C160.109 18.488 160.261 19.032 160.565 19.44C160.869 19.84 161.277 20.04 161.789 20.04ZM168.997 21.144C168.389 21.144 167.857 21.008 167.401 20.736C166.945 20.456 166.593 20.068 166.345 19.572C166.097 19.076 165.973 18.488 165.973 17.808C165.973 17.128 166.097 16.54 166.345 16.044C166.593 15.548 166.945 15.164 167.401 14.892C167.857 14.612 168.389 14.472 168.997 14.472C169.605 14.472 170.137 14.612 170.593 14.892C171.049 15.164 171.401 15.548 171.649 16.044C171.897 16.54 172.021 17.128 172.021 17.808C172.021 18.488 171.897 19.076 171.649 19.572C171.401 20.068 171.049 20.456 170.593 20.736C170.137 21.008 169.605 21.144 168.997 21.144ZM168.997 20.04C169.541 20.04 169.961 19.844 170.257 19.452C170.553 19.06 170.701 18.512 170.701 17.808C170.701 17.112 170.553 16.568 170.257 16.176C169.961 15.776 169.541 15.576 168.997 15.576C168.461 15.576 168.041 15.776 167.737 16.176C167.441 16.568 167.293 17.112 167.293 17.808C167.293 18.512 167.441 19.06 167.737 19.452C168.041 19.844 168.461 20.04 168.997 20.04ZM174.415 21L172.471 14.616H173.803L175.171 19.608L176.575 14.616H177.775L179.179 19.608L180.559 14.616H181.891L179.947 21H178.519L177.175 16.44L175.831 21H174.415ZM182.775 21V14.616H183.939L183.963 15.732C184.131 15.292 184.387 14.972 184.731 14.772C185.075 14.572 185.467 14.472 185.907 14.472C186.379 14.472 186.775 14.58 187.095 14.796C187.415 15.004 187.655 15.292 187.815 15.66C187.983 16.02 188.067 16.432 188.067 16.896V21H186.795V17.28C186.795 16.72 186.699 16.292 186.507 15.996C186.323 15.692 186.007 15.54 185.559 15.54C185.103 15.54 184.735 15.692 184.455 15.996C184.183 16.292 184.047 16.72 184.047 17.28V21H182.775Z" fill="white"/>
<line x1="209" y1="15.5" x2="269" y2="15.5" stroke="white" stroke-opacity="0.1" stroke-width="2"/>
<line x1="289" y1="15.5" x2="349" y2="15.5" stroke="white" stroke-opacity="0.1" stroke-width="2"/>
<path d="M0 239.2C0 235.886 2.68629 233.2 6 233.2H26C29.3137 233.2 32 235.886 32 239.2V246H0V239.2Z" fill="white" fill-opacity="0.06"/>
<path d="M0 218.8H32V231.6H0V218.8Z" fill="url(#paint0_linear_179_35315)" fill-opacity="0.06"/>
<path d="M38 202H70V214.8H38V202Z" fill="url(#paint1_linear_179_35315)" fill-opacity="0.06"/>
<path d="M76 110.8H108V138H76V110.8Z" fill="url(#paint2_linear_179_35315)" fill-opacity="0.06"/>
<path d="M266 125.2H298V146H266V125.2Z" fill="url(#paint3_linear_179_35315)" fill-opacity="0.06"/>
<path d="M342 138H374V154.8H342V138Z" fill="url(#paint4_linear_179_35315)" fill-opacity="0.06"/>
<path d="M380 152.4H412V166.8H380V152.4Z" fill="url(#paint5_linear_179_35315)" fill-opacity="0.06"/>
<path d="M304 110.8H336V134H304V110.8Z" fill="url(#paint6_linear_179_35315)" fill-opacity="0.06"/>
<path d="M114 171.6H146V190.8H114V171.6Z" fill="url(#paint7_linear_179_35315)" fill-opacity="0.06"/>
<path d="M152 149.2H184V172.4H152V149.2Z" fill="url(#paint8_linear_179_35315)" fill-opacity="0.06"/>
<path d="M228 86H260V125.2H228V86Z" fill="url(#paint9_linear_179_35315)" fill-opacity="0.06"/>
<path d="M152 180C152 176.686 154.686 174 158 174H178C181.314 174 184 176.686 184 180V246H152V180Z" fill="white" fill-opacity="0.16"/>
<path d="M266 153.6C266 150.286 268.686 147.6 272 147.6H292C295.314 147.6 298 150.286 298 153.6V246H266V153.6Z" fill="white" fill-opacity="0.16"/>
<path d="M304 141.6C304 138.286 306.686 135.6 310 135.6H330C333.314 135.6 336 138.286 336 141.6V246H304V141.6Z" fill="white" fill-opacity="0.12"/>
<path d="M342 163.2C342 159.886 344.686 157.2 348 157.2H368C371.314 157.2 374 159.886 374 163.2V246H342V163.2Z" fill="white" fill-opacity="0.08"/>
<path d="M380 174.4C380 171.086 382.686 168.4 386 168.4H406C409.314 168.4 412 171.086 412 174.4V246H380V174.4Z" fill="white" fill-opacity="0.06"/>
<path d="M38 222.4C38 219.086 40.6863 216.4 44 216.4H64C67.3137 216.4 70 219.086 70 222.4V246H38V222.4Z" fill="white" fill-opacity="0.08"/>
<path d="M114 198.4C114 195.086 116.686 192.4 120 192.4H140C143.314 192.4 146 195.086 146 198.4V246H114V198.4Z" fill="white" fill-opacity="0.2"/>
<path d="M76 145.6C76 142.286 78.6863 139.6 82 139.6H102C105.314 139.6 108 142.286 108 145.6V246H76V145.6Z" fill="white" fill-opacity="0.12"/>
<path d="M228 132.8C228 129.486 230.686 126.8 234 126.8H254C257.314 126.8 260 129.486 260 132.8V246H228V132.8Z" fill="white" fill-opacity="0.2"/>
<g filter="url(#filter0_f_179_35315)">
<path d="M190 100C190 96.6863 192.686 94 196 94H216C219.314 94 222 96.6863 222 100V246H190V100Z" fill="#0CFF85"/>
</g>
<path d="M190 100C190 96.6863 192.686 94 196 94H216C219.314 94 222 96.6863 222 100V246H190V100Z" fill="#0CFF85"/>
<rect x="472" width="221" height="75" rx="16" fill="white" fill-opacity="0.04"/>
<rect x="472.5" y="0.5" width="220" height="74" rx="15.5" stroke="white" stroke-opacity="0.1"/>
<path d="M493.032 29V20.48H494.808L497.34 27.476L499.872 20.48H501.648V29H500.352V22.76L498.06 28.988H496.62L494.328 22.76V29H493.032ZM503.819 30.8V29.756H504.599C504.815 29.756 504.975 29.724 505.079 29.66C505.183 29.596 505.263 29.488 505.319 29.336L505.523 28.808H505.127L502.823 22.616H504.167L505.919 27.632L507.587 22.616H508.943L506.399 29.744C506.271 30.112 506.079 30.38 505.823 30.548C505.575 30.716 505.227 30.8 504.779 30.8H503.819ZM514.869 29V21.668H512.253V20.48H518.781V21.668H516.165V29H514.869ZM519.255 29V22.616H520.419L520.455 23.828C520.575 23.412 520.759 23.108 521.007 22.916C521.263 22.716 521.587 22.616 521.979 22.616H522.591V23.756H521.979C521.491 23.756 521.127 23.876 520.887 24.116C520.647 24.356 520.527 24.728 520.527 25.232V29H519.255ZM525.867 29.144C525.219 29.144 524.707 28.932 524.331 28.508C523.955 28.084 523.767 27.488 523.767 26.72V22.616H525.039V26.396C525.039 26.972 525.139 27.396 525.339 27.668C525.539 27.94 525.843 28.076 526.251 28.076C526.715 28.076 527.075 27.928 527.331 27.632C527.595 27.328 527.727 26.904 527.727 26.36V22.616H528.999V29H527.811L527.799 27.956C527.455 28.748 526.811 29.144 525.867 29.144ZM533.141 29.144C532.213 29.144 531.517 28.944 531.053 28.544C530.589 28.136 530.333 27.616 530.285 26.984L531.593 26.924C531.649 27.276 531.793 27.556 532.025 27.764C532.257 27.972 532.629 28.076 533.141 28.076C533.541 28.076 533.845 28.012 534.053 27.884C534.269 27.756 534.377 27.552 534.377 27.272C534.377 27.112 534.341 26.98 534.269 26.876C534.197 26.772 534.057 26.684 533.849 26.612C533.641 26.532 533.333 26.456 532.925 26.384C532.301 26.264 531.813 26.124 531.461 25.964C531.117 25.796 530.873 25.592 530.729 25.352C530.585 25.104 530.513 24.804 530.513 24.452C530.513 23.876 530.733 23.404 531.173 23.036C531.613 22.66 532.249 22.472 533.081 22.472C533.665 22.472 534.145 22.572 534.521 22.772C534.897 22.964 535.181 23.22 535.373 23.54C535.565 23.86 535.681 24.204 535.721 24.572L534.413 24.644C534.389 24.34 534.273 24.08 534.065 23.864C533.865 23.648 533.529 23.54 533.057 23.54C532.641 23.54 532.333 23.62 532.133 23.78C531.933 23.94 531.833 24.148 531.833 24.404C531.833 24.684 531.925 24.896 532.109 25.04C532.301 25.176 532.657 25.284 533.177 25.364C533.825 25.468 534.329 25.604 534.689 25.772C535.057 25.932 535.317 26.136 535.469 26.384C535.621 26.624 535.697 26.916 535.697 27.26C535.697 27.86 535.461 28.324 534.989 28.652C534.517 28.98 533.901 29.144 533.141 29.144ZM539.223 29C538.615 29 538.167 28.864 537.879 28.592C537.591 28.312 537.447 27.872 537.447 27.272V23.66H536.475V22.616H537.447V21.116H538.719V22.616H540.411V23.66H538.719V27.176C538.719 27.472 538.783 27.676 538.911 27.788C539.039 27.9 539.235 27.956 539.499 27.956H540.411V29H539.223ZM543.981 29.144C543.053 29.144 542.357 28.944 541.893 28.544C541.429 28.136 541.173 27.616 541.125 26.984L542.433 26.924C542.489 27.276 542.633 27.556 542.865 27.764C543.097 27.972 543.469 28.076 543.981 28.076C544.381 28.076 544.685 28.012 544.893 27.884C545.109 27.756 545.217 27.552 545.217 27.272C545.217 27.112 545.181 26.98 545.109 26.876C545.037 26.772 544.897 26.684 544.689 26.612C544.481 26.532 544.173 26.456 543.765 26.384C543.141 26.264 542.653 26.124 542.301 25.964C541.957 25.796 541.713 25.592 541.569 25.352C541.425 25.104 541.353 24.804 541.353 24.452C541.353 23.876 541.573 23.404 542.013 23.036C542.453 22.66 543.089 22.472 543.921 22.472C544.505 22.472 544.985 22.572 545.361 22.772C545.737 22.964 546.021 23.22 546.213 23.54C546.405 23.86 546.521 24.204 546.561 24.572L545.253 24.644C545.229 24.34 545.113 24.08 544.905 23.864C544.705 23.648 544.369 23.54 543.897 23.54C543.481 23.54 543.173 23.62 542.973 23.78C542.773 23.94 542.673 24.148 542.673 24.404C542.673 24.684 542.765 24.896 542.949 25.04C543.141 25.176 543.497 25.284 544.017 25.364C544.665 25.468 545.169 25.604 545.529 25.772C545.897 25.932 546.157 26.136 546.309 26.384C546.461 26.624 546.537 26.916 546.537 27.26C546.537 27.86 546.301 28.324 545.829 28.652C545.357 28.98 544.741 29.144 543.981 29.144ZM550.477 29.144C549.869 29.144 549.337 29.008 548.881 28.736C548.425 28.456 548.073 28.068 547.825 27.572C547.577 27.068 547.453 26.48 547.453 25.808C547.453 25.136 547.577 24.552 547.825 24.056C548.073 23.552 548.425 23.164 548.881 22.892C549.337 22.612 549.869 22.472 550.477 22.472C551.253 22.472 551.897 22.676 552.409 23.084C552.921 23.484 553.229 24.052 553.333 24.788L552.001 24.86C551.937 24.444 551.769 24.128 551.497 23.912C551.225 23.688 550.885 23.576 550.477 23.576C549.941 23.576 549.521 23.776 549.217 24.176C548.921 24.568 548.773 25.112 548.773 25.808C548.773 26.512 548.921 27.06 549.217 27.452C549.521 27.844 549.941 28.04 550.477 28.04C550.885 28.04 551.225 27.928 551.497 27.704C551.769 27.472 551.937 27.124 552.001 26.66L553.333 26.732C553.229 27.468 552.921 28.056 552.409 28.496C551.905 28.928 551.261 29.144 550.477 29.144ZM557.122 29.144C556.514 29.144 555.982 29.008 555.526 28.736C555.07 28.456 554.718 28.068 554.47 27.572C554.222 27.076 554.098 26.488 554.098 25.808C554.098 25.128 554.222 24.54 554.47 24.044C554.718 23.548 555.07 23.164 555.526 22.892C555.982 22.612 556.514 22.472 557.122 22.472C557.73 22.472 558.262 22.612 558.718 22.892C559.174 23.164 559.526 23.548 559.774 24.044C560.022 24.54 560.146 25.128 560.146 25.808C560.146 26.488 560.022 27.076 559.774 27.572C559.526 28.068 559.174 28.456 558.718 28.736C558.262 29.008 557.73 29.144 557.122 29.144ZM557.122 28.04C557.666 28.04 558.086 27.844 558.382 27.452C558.678 27.06 558.826 26.512 558.826 25.808C558.826 25.112 558.678 24.568 558.382 24.176C558.086 23.776 557.666 23.576 557.122 23.576C556.586 23.576 556.166 23.776 555.862 24.176C555.566 24.568 555.418 25.112 555.418 25.808C555.418 26.512 555.566 27.06 555.862 27.452C556.166 27.844 556.586 28.04 557.122 28.04ZM561.431 29V22.616H562.595L562.631 23.828C562.751 23.412 562.935 23.108 563.183 22.916C563.439 22.716 563.763 22.616 564.155 22.616H564.767V23.756H564.155C563.667 23.756 563.303 23.876 563.063 24.116C562.823 24.356 562.703 24.728 562.703 25.232V29H561.431ZM568.301 29.144C567.677 29.144 567.137 29.008 566.681 28.736C566.233 28.456 565.885 28.068 565.637 27.572C565.397 27.068 565.277 26.48 565.277 25.808C565.277 25.136 565.397 24.552 565.637 24.056C565.885 23.552 566.233 23.164 566.681 22.892C567.129 22.612 567.657 22.472 568.265 22.472C568.841 22.472 569.349 22.608 569.789 22.88C570.229 23.144 570.569 23.528 570.809 24.032C571.057 24.536 571.181 25.144 571.181 25.856V26.18H566.597C566.629 26.804 566.793 27.272 567.089 27.584C567.393 27.896 567.801 28.052 568.313 28.052C568.689 28.052 568.997 27.968 569.237 27.8C569.485 27.624 569.661 27.384 569.765 27.08L571.085 27.164C570.917 27.764 570.585 28.244 570.089 28.604C569.601 28.964 569.005 29.144 568.301 29.144ZM566.597 25.22H569.837C569.797 24.652 569.633 24.232 569.345 23.96C569.057 23.688 568.697 23.552 568.265 23.552C567.809 23.552 567.433 23.696 567.137 23.984C566.849 24.264 566.669 24.676 566.597 25.22Z" fill="white"/>
<path d="M643.16 27.5L645.208 21.82H646.304L648.352 27.5H647.432L646.912 26.02H644.592L644.08 27.5H643.16ZM644.864 25.236H646.648L645.752 22.644L644.864 25.236ZM649.864 27.5C649.581 27.5 649.355 27.428 649.184 27.284C649.019 27.14 648.936 26.9107 648.936 26.596V21.82H649.784V26.516C649.784 26.708 649.883 26.804 650.08 26.804H650.416V27.5H649.864ZM652.044 27.5C651.761 27.5 651.534 27.428 651.364 27.284C651.198 27.14 651.116 26.9107 651.116 26.596V21.82H651.964V26.516C651.964 26.708 652.062 26.804 652.26 26.804H652.596V27.5H652.044ZM656.559 27.5V22.612H654.815V21.82H659.167V22.612H657.423V27.5H656.559ZM659.655 27.5V23.244H660.503V27.5H659.655ZM659.639 22.628V21.78H660.519V22.628H659.639ZM661.748 27.5V23.244H662.524L662.54 23.972C662.647 23.716 662.804 23.516 663.012 23.372C663.22 23.2227 663.458 23.148 663.724 23.148C664.039 23.148 664.303 23.2253 664.516 23.38C664.735 23.5347 664.89 23.7507 664.98 24.028C665.076 23.7453 665.228 23.5293 665.436 23.38C665.65 23.2253 665.908 23.148 666.212 23.148C666.66 23.148 667.007 23.2893 667.252 23.572C667.498 23.8493 667.62 24.2467 667.62 24.764V27.5H666.772V24.972C666.772 24.2307 666.503 23.86 665.964 23.86C665.698 23.86 665.484 23.9613 665.324 24.164C665.164 24.3667 665.084 24.6467 665.084 25.004V27.5H664.276V25.004C664.276 24.6467 664.215 24.3667 664.092 24.164C663.975 23.9613 663.772 23.86 663.484 23.86C663.212 23.86 662.996 23.9613 662.836 24.164C662.676 24.3667 662.596 24.6467 662.596 25.004V27.5H661.748ZM670.485 27.596C670.069 27.596 669.709 27.5053 669.405 27.324C669.106 27.1373 668.874 26.8787 668.709 26.548C668.549 26.212 668.469 25.82 668.469 25.372C668.469 24.924 668.549 24.5347 668.709 24.204C668.874 23.868 669.106 23.6093 669.405 23.428C669.703 23.2413 670.055 23.148 670.461 23.148C670.845 23.148 671.183 23.2387 671.477 23.42C671.77 23.596 671.997 23.852 672.157 24.188C672.322 24.524 672.405 24.9293 672.405 25.404V25.62H669.349C669.37 26.036 669.479 26.348 669.677 26.556C669.879 26.764 670.151 26.868 670.493 26.868C670.743 26.868 670.949 26.812 671.109 26.7C671.274 26.5827 671.391 26.4227 671.461 26.22L672.341 26.276C672.229 26.676 672.007 26.996 671.677 27.236C671.351 27.476 670.954 27.596 670.485 27.596ZM669.349 24.98H671.509C671.482 24.6013 671.373 24.3213 671.181 24.14C670.989 23.9587 670.749 23.868 670.461 23.868C670.157 23.868 669.906 23.964 669.709 24.156C669.517 24.3427 669.397 24.6173 669.349 24.98Z" fill="#0CFF85"/>
<line x1="492" y1="44" x2="673" y2="44" stroke="white" stroke-opacity="0.4" stroke-width="2"/>
<line x1="492" y1="54" x2="568" y2="54" stroke="white" stroke-opacity="0.4" stroke-width="2"/>
<rect x="472" y="91" width="221" height="75" rx="16" fill="white" fill-opacity="0.04"/>
<rect x="472.5" y="91.5" width="220" height="74" rx="15.5" stroke="white" stroke-opacity="0.1"/>
<path d="M493.032 120V111.48H494.808L497.34 118.476L499.872 111.48H501.648V120H500.352V113.76L498.06 119.988H496.62L494.328 113.76V120H493.032ZM506.087 120.144C505.479 120.144 504.947 120.008 504.491 119.736C504.035 119.456 503.683 119.068 503.435 118.572C503.187 118.076 503.063 117.488 503.063 116.808C503.063 116.128 503.187 115.54 503.435 115.044C503.683 114.548 504.035 114.164 504.491 113.892C504.947 113.612 505.479 113.472 506.087 113.472C506.695 113.472 507.227 113.612 507.683 113.892C508.139 114.164 508.491 114.548 508.739 115.044C508.987 115.54 509.111 116.128 509.111 116.808C509.111 117.488 508.987 118.076 508.739 118.572C508.491 119.068 508.139 119.456 507.683 119.736C507.227 120.008 506.695 120.144 506.087 120.144ZM506.087 119.04C506.631 119.04 507.051 118.844 507.347 118.452C507.643 118.06 507.791 117.512 507.791 116.808C507.791 116.112 507.643 115.568 507.347 115.176C507.051 114.776 506.631 114.576 506.087 114.576C505.551 114.576 505.131 114.776 504.827 115.176C504.531 115.568 504.383 116.112 504.383 116.808C504.383 117.512 504.531 118.06 504.827 118.452C505.131 118.844 505.551 119.04 506.087 119.04ZM510.396 120V113.616H511.56L511.584 114.732C511.752 114.292 512.008 113.972 512.352 113.772C512.696 113.572 513.088 113.472 513.528 113.472C514 113.472 514.396 113.58 514.716 113.796C515.036 114.004 515.276 114.292 515.436 114.66C515.604 115.02 515.688 115.432 515.688 115.896V120H514.416V116.28C514.416 115.72 514.32 115.292 514.128 114.996C513.944 114.692 513.628 114.54 513.18 114.54C512.724 114.54 512.356 114.692 512.076 114.996C511.804 115.292 511.668 115.72 511.668 116.28V120H510.396ZM519.477 120C518.869 120 518.421 119.864 518.133 119.592C517.845 119.312 517.701 118.872 517.701 118.272V114.66H516.729V113.616H517.701V112.116H518.973V113.616H520.665V114.66H518.973V118.176C518.973 118.472 519.037 118.676 519.165 118.788C519.293 118.9 519.489 118.956 519.753 118.956H520.665V120H519.477ZM521.787 120V111.48H523.059V114.54C523.227 114.172 523.475 113.904 523.803 113.736C524.139 113.56 524.515 113.472 524.931 113.472C525.627 113.472 526.159 113.7 526.527 114.156C526.895 114.604 527.079 115.184 527.079 115.896V120H525.807V116.232C525.807 115.104 525.403 114.54 524.595 114.54C524.123 114.54 523.747 114.688 523.467 114.984C523.195 115.272 523.059 115.696 523.059 116.256V120H521.787ZM530.116 120C529.692 120 529.352 119.892 529.096 119.676C528.848 119.46 528.724 119.116 528.724 118.644V111.48H529.996V118.524C529.996 118.812 530.144 118.956 530.44 118.956H530.944V120H530.116ZM532.143 121.8V120.756H532.923C533.139 120.756 533.299 120.724 533.403 120.66C533.507 120.596 533.587 120.488 533.643 120.336L533.847 119.808H533.451L531.147 113.616H532.491L534.243 118.632L535.911 113.616H537.267L534.723 120.744C534.595 121.112 534.403 121.38 534.147 121.548C533.899 121.716 533.551 121.8 533.103 121.8H532.143ZM543.194 120V112.668H540.578V111.48H547.106V112.668H544.49V120H543.194ZM547.58 120V113.616H548.744L548.78 114.828C548.9 114.412 549.084 114.108 549.332 113.916C549.588 113.716 549.912 113.616 550.304 113.616H550.916V114.756H550.304C549.816 114.756 549.452 114.876 549.212 115.116C548.972 115.356 548.852 115.728 548.852 116.232V120H547.58ZM554.191 120.144C553.543 120.144 553.031 119.932 552.655 119.508C552.279 119.084 552.091 118.488 552.091 117.72V113.616H553.363V117.396C553.363 117.972 553.463 118.396 553.663 118.668C553.863 118.94 554.167 119.076 554.575 119.076C555.039 119.076 555.399 118.928 555.655 118.632C555.919 118.328 556.051 117.904 556.051 117.36V113.616H557.323V120H556.135L556.123 118.956C555.779 119.748 555.135 120.144 554.191 120.144ZM561.465 120.144C560.537 120.144 559.841 119.944 559.377 119.544C558.913 119.136 558.657 118.616 558.609 117.984L559.917 117.924C559.973 118.276 560.117 118.556 560.349 118.764C560.581 118.972 560.953 119.076 561.465 119.076C561.865 119.076 562.169 119.012 562.377 118.884C562.593 118.756 562.701 118.552 562.701 118.272C562.701 118.112 562.665 117.98 562.593 117.876C562.521 117.772 562.381 117.684 562.173 117.612C561.965 117.532 561.657 117.456 561.249 117.384C560.625 117.264 560.137 117.124 559.785 116.964C559.441 116.796 559.197 116.592 559.053 116.352C558.909 116.104 558.837 115.804 558.837 115.452C558.837 114.876 559.057 114.404 559.497 114.036C559.937 113.66 560.573 113.472 561.405 113.472C561.989 113.472 562.469 113.572 562.845 113.772C563.221 113.964 563.505 114.22 563.697 114.54C563.889 114.86 564.005 115.204 564.045 115.572L562.737 115.644C562.713 115.34 562.597 115.08 562.389 114.864C562.189 114.648 561.853 114.54 561.381 114.54C560.965 114.54 560.657 114.62 560.457 114.78C560.257 114.94 560.157 115.148 560.157 115.404C560.157 115.684 560.249 115.896 560.433 116.04C560.625 116.176 560.981 116.284 561.501 116.364C562.149 116.468 562.653 116.604 563.013 116.772C563.381 116.932 563.641 117.136 563.793 117.384C563.945 117.624 564.021 117.916 564.021 118.26C564.021 118.86 563.785 119.324 563.313 119.652C562.841 119.98 562.225 120.144 561.465 120.144ZM567.547 120C566.939 120 566.491 119.864 566.203 119.592C565.915 119.312 565.771 118.872 565.771 118.272V114.66H564.799V113.616H565.771V112.116H567.043V113.616H568.735V114.66H567.043V118.176C567.043 118.472 567.107 118.676 567.235 118.788C567.363 118.9 567.559 118.956 567.823 118.956H568.735V120H567.547ZM572.305 120.144C571.377 120.144 570.681 119.944 570.217 119.544C569.753 119.136 569.497 118.616 569.449 117.984L570.757 117.924C570.813 118.276 570.957 118.556 571.189 118.764C571.421 118.972 571.793 119.076 572.305 119.076C572.705 119.076 573.009 119.012 573.217 118.884C573.433 118.756 573.541 118.552 573.541 118.272C573.541 118.112 573.505 117.98 573.433 117.876C573.361 117.772 573.221 117.684 573.013 117.612C572.805 117.532 572.497 117.456 572.089 117.384C571.465 117.264 570.977 117.124 570.625 116.964C570.281 116.796 570.037 116.592 569.893 116.352C569.749 116.104 569.677 115.804 569.677 115.452C569.677 114.876 569.897 114.404 570.337 114.036C570.777 113.66 571.413 113.472 572.245 113.472C572.829 113.472 573.309 113.572 573.685 113.772C574.061 113.964 574.345 114.22 574.537 114.54C574.729 114.86 574.845 115.204 574.885 115.572L573.577 115.644C573.553 115.34 573.437 115.08 573.229 114.864C573.029 114.648 572.693 114.54 572.221 114.54C571.805 114.54 571.497 114.62 571.297 114.78C571.097 114.94 570.997 115.148 570.997 115.404C570.997 115.684 571.089 115.896 571.273 116.04C571.465 116.176 571.821 116.284 572.341 116.364C572.989 116.468 573.493 116.604 573.853 116.772C574.221 116.932 574.481 117.136 574.633 117.384C574.785 117.624 574.861 117.916 574.861 118.26C574.861 118.86 574.625 119.324 574.153 119.652C573.681 119.98 573.065 120.144 572.305 120.144ZM578.801 120.144C578.193 120.144 577.661 120.008 577.205 119.736C576.749 119.456 576.397 119.068 576.149 118.572C575.901 118.068 575.777 117.48 575.777 116.808C575.777 116.136 575.901 115.552 576.149 115.056C576.397 114.552 576.749 114.164 577.205 113.892C577.661 113.612 578.193 113.472 578.801 113.472C579.577 113.472 580.221 113.676 580.733 114.084C581.245 114.484 581.553 115.052 581.657 115.788L580.325 115.86C580.261 115.444 580.093 115.128 579.821 114.912C579.549 114.688 579.209 114.576 578.801 114.576C578.265 114.576 577.845 114.776 577.541 115.176C577.245 115.568 577.097 116.112 577.097 116.808C577.097 117.512 577.245 118.06 577.541 118.452C577.845 118.844 578.265 119.04 578.801 119.04C579.209 119.04 579.549 118.928 579.821 118.704C580.093 118.472 580.261 118.124 580.325 117.66L581.657 117.732C581.553 118.468 581.245 119.056 580.733 119.496C580.229 119.928 579.585 120.144 578.801 120.144ZM585.446 120.144C584.838 120.144 584.306 120.008 583.85 119.736C583.394 119.456 583.042 119.068 582.794 118.572C582.546 118.076 582.422 117.488 582.422 116.808C582.422 116.128 582.546 115.54 582.794 115.044C583.042 114.548 583.394 114.164 583.85 113.892C584.306 113.612 584.838 113.472 585.446 113.472C586.054 113.472 586.586 113.612 587.042 113.892C587.498 114.164 587.85 114.548 588.098 115.044C588.346 115.54 588.47 116.128 588.47 116.808C588.47 117.488 588.346 118.076 588.098 118.572C587.85 119.068 587.498 119.456 587.042 119.736C586.586 120.008 586.054 120.144 585.446 120.144ZM585.446 119.04C585.99 119.04 586.41 118.844 586.706 118.452C587.002 118.06 587.15 117.512 587.15 116.808C587.15 116.112 587.002 115.568 586.706 115.176C586.41 114.776 585.99 114.576 585.446 114.576C584.91 114.576 584.49 114.776 584.186 115.176C583.89 115.568 583.742 116.112 583.742 116.808C583.742 117.512 583.89 118.06 584.186 118.452C584.49 118.844 584.91 119.04 585.446 119.04ZM589.755 120V113.616H590.919L590.955 114.828C591.075 114.412 591.259 114.108 591.507 113.916C591.763 113.716 592.087 113.616 592.479 113.616H593.091V114.756H592.479C591.991 114.756 591.627 114.876 591.387 115.116C591.147 115.356 591.027 115.728 591.027 116.232V120H589.755ZM596.626 120.144C596.002 120.144 595.462 120.008 595.006 119.736C594.558 119.456 594.21 119.068 593.962 118.572C593.722 118.068 593.602 117.48 593.602 116.808C593.602 116.136 593.722 115.552 593.962 115.056C594.21 114.552 594.558 114.164 595.006 113.892C595.454 113.612 595.982 113.472 596.59 113.472C597.166 113.472 597.674 113.608 598.114 113.88C598.554 114.144 598.894 114.528 599.134 115.032C599.382 115.536 599.506 116.144 599.506 116.856V117.18H594.922C594.954 117.804 595.118 118.272 595.414 118.584C595.718 118.896 596.126 119.052 596.638 119.052C597.014 119.052 597.322 118.968 597.562 118.8C597.81 118.624 597.986 118.384 598.09 118.08L599.41 118.164C599.242 118.764 598.91 119.244 598.414 119.604C597.926 119.964 597.33 120.144 596.626 120.144ZM594.922 116.22H598.162C598.122 115.652 597.958 115.232 597.67 114.96C597.382 114.688 597.022 114.552 596.59 114.552C596.134 114.552 595.758 114.696 595.462 114.984C595.174 115.264 594.994 115.676 594.922 116.22Z" fill="white"/>
<line x1="492" y1="135" x2="673" y2="135" stroke="white" stroke-opacity="0.4" stroke-width="2"/>
<line x1="492" y1="145" x2="568" y2="145" stroke="white" stroke-opacity="0.4" stroke-width="2"/>
<line x1="633" y1="250.91" x2="693" y2="250.91" stroke="#0CFF85" stroke-width="4"/>
<defs>
<filter id="filter0_f_179_35315" x="141" y="45" width="130" height="250" filterUnits="userSpaceOnUse" color-interpolation-filters="sRGB">
<feFlood flood-opacity="0" result="BackgroundImageFix"/>
<feBlend mode="normal" in="SourceGraphic" in2="BackgroundImageFix" result="shape"/>
<feGaussianBlur stdDeviation="24.5" result="effect1_foregroundBlur_179_35315"/>
</filter>
<linearGradient id="paint0_linear_179_35315" x1="16" y1="218.8" x2="16" y2="231.6" gradientUnits="userSpaceOnUse">
<stop/>
<stop offset="1" stop-color="white"/>
</linearGradient>
<linearGradient id="paint1_linear_179_35315" x1="54" y1="202" x2="54" y2="214.8" gradientUnits="userSpaceOnUse">
<stop/>
<stop offset="1" stop-color="white"/>
</linearGradient>
<linearGradient id="paint2_linear_179_35315" x1="92" y1="110.8" x2="92" y2="138" gradientUnits="userSpaceOnUse">
<stop/>
<stop offset="1" stop-color="white"/>
</linearGradient>
<linearGradient id="paint3_linear_179_35315" x1="282" y1="125.2" x2="282" y2="146" gradientUnits="userSpaceOnUse">
<stop/>
<stop offset="1" stop-color="white"/>
</linearGradient>
<linearGradient id="paint4_linear_179_35315" x1="358" y1="138" x2="358" y2="154.8" gradientUnits="userSpaceOnUse">
<stop/>
<stop offset="1" stop-color="white"/>
</linearGradient>
<linearGradient id="paint5_linear_179_35315" x1="396" y1="152.4" x2="396" y2="166.8" gradientUnits="userSpaceOnUse">
<stop/>
<stop offset="1" stop-color="white"/>
</linearGradient>
<linearGradient id="paint6_linear_179_35315" x1="320" y1="110.8" x2="320" y2="134" gradientUnits="userSpaceOnUse">
<stop/>
<stop offset="1" stop-color="white"/>
</linearGradient>
<linearGradient id="paint7_linear_179_35315" x1="130" y1="171.6" x2="130" y2="190.8" gradientUnits="userSpaceOnUse">
<stop/>
<stop offset="1" stop-color="white"/>
</linearGradient>
<linearGradient id="paint8_linear_179_35315" x1="168" y1="149.2" x2="168" y2="172.4" gradientUnits="userSpaceOnUse">
<stop/>
<stop offset="1" stop-color="white"/>
</linearGradient>
<linearGradient id="paint9_linear_179_35315" x1="244" y1="86" x2="244" y2="125.2" gradientUnits="userSpaceOnUse">
<stop/>
<stop offset="1" stop-color="white"/>
</linearGradient>
</defs>
</svg>
