<svg width="22" height="22" viewBox="0 0 22 22" fill="none" xmlns="http://www.w3.org/2000/svg">
<path opacity="0.4" d="M14.8049 7C16.1725 6.99998 17.2748 6.99996 18.1418 7.11652C19.0419 7.23754 19.7997 7.49643 20.4017 8.09835C21.0036 8.70027 21.2625 9.45814 21.3835 10.3583C21.5 11.2252 21.5 12.3275 21.5 13.6951V13.6951V14.8049V14.8049C21.5 16.1725 21.5 17.2748 21.3835 18.1418C21.2625 19.0419 21.0036 19.7997 20.4017 20.4017C19.7997 21.0036 19.0419 21.2625 18.1418 21.3835C17.2748 21.5 16.1725 21.5 14.8049 21.5H14.8049H13.6951H13.6951C12.3275 21.5 11.2252 21.5 10.3582 21.3835C9.45814 21.2625 8.70027 21.0036 8.09835 20.4016C7.49643 19.7997 7.23754 19.0419 7.11652 18.1418C6.99996 17.2748 6.99998 16.1725 7 14.8049V14.8049V13.6951V13.6951C6.99998 12.3275 6.99996 11.2252 7.11652 10.3582C7.23754 9.45814 7.49643 8.70027 8.09835 8.09835C8.70027 7.49643 9.45814 7.23754 10.3583 7.11652C11.2252 6.99996 12.3275 6.99998 13.6951 7H13.6951H14.8049H14.8049Z" fill="white"/>
<path d="M5.5 13.6069C5.49991 12.3127 5.49983 11.1258 5.6299 10.1584C5.7732 9.09253 6.11034 7.96504 7.03769 7.03769C7.96504 6.11034 9.09253 5.7732 10.1584 5.6299C11.1258 5.49983 12.3127 5.49991 13.6069 5.5L15.8431 5.5C16.1391 5.5 16.2871 5.5 16.3761 5.40419C16.4651 5.30838 16.4545 5.1642 16.4333 4.87584C16.4148 4.62546 16.3912 4.38892 16.3611 4.16544C16.2318 3.20589 15.9732 2.4085 15.4218 1.73663C15.2244 1.49612 15.0039 1.27558 14.7634 1.0782C14.0544 0.496384 13.2057 0.240546 12.1748 0.118681C11.1705 -2.05562e-05 9.90119 -1.13699e-05 8.29893 2.35883e-07H8.20109C6.59883 -1.16084e-05 5.32947 -2.09883e-05 4.32525 0.118681C3.29428 0.240545 2.44558 0.496383 1.73663 1.0782C1.49612 1.27558 1.27558 1.49612 1.0782 1.73663C0.496384 2.44558 0.240546 3.29428 0.118681 4.32525C-2.05562e-05 5.32947 -1.13699e-05 6.59882 2.35883e-07 8.20108V8.29891C-1.16084e-05 9.90117 -2.09883e-05 11.1705 0.118681 12.1747C0.240545 13.2057 0.496383 14.0544 1.0782 14.7634C1.27558 15.0039 1.49612 15.2244 1.73663 15.4218C2.4085 15.9732 3.20589 16.2318 4.16544 16.3611C4.38892 16.3912 4.62546 16.4148 4.87584 16.4333C5.1642 16.4545 5.30838 16.4651 5.40419 16.3761C5.5 16.2871 5.5 16.1391 5.5 15.8431V13.6069Z" fill="white"/>
</svg>
