<svg width="24" height="24" viewBox="0 0 24 24" fill="none" xmlns="http://www.w3.org/2000/svg">
<path d="M18.5925 8.19486C19.0372 8.52237 19.1321 9.14837 18.8046 9.59306C18.5502 9.93847 18.2958 10.2668 18.0726 10.5528C17.6271 11.1236 17.0138 11.8882 16.3474 12.6556C15.6854 13.4181 14.9514 14.2064 14.2661 14.8119C13.9246 15.1136 13.5716 15.3911 13.2274 15.5986C12.9107 15.7895 12.4755 16 11.9994 16C11.5233 16 11.0881 15.7895 10.7713 15.5986C10.4272 15.3911 10.0742 15.1136 9.73271 14.8119C9.04742 14.2064 8.31338 13.4181 7.65134 12.6556C6.98499 11.8882 6.37167 11.1236 5.92615 10.5528C5.70298 10.2668 5.44854 9.93847 5.19414 9.59307C4.86663 9.14837 4.96162 8.52237 5.40631 8.19486C5.58507 8.0632 5.79314 7.99983 5.99933 8L11.9994 8L17.9994 8C18.2056 7.99983 18.4137 8.0632 18.5925 8.19486Z" fill="white"/>
</svg>
