<svg width="24" height="24" viewBox="0 0 24 24" fill="none" xmlns="http://www.w3.org/2000/svg">
<path d="M18.5925 15.8051C19.0372 15.4776 19.1321 14.8516 18.8046 14.4069C18.5502 14.0615 18.2958 13.7332 18.0726 13.4472C17.6271 12.8764 17.0138 12.1118 16.3474 11.3444C15.6854 10.5819 14.9514 9.79361 14.2661 9.18811C13.9246 8.88637 13.5716 8.60888 13.2274 8.4014C12.9107 8.21046 12.4755 8 11.9994 8C11.5233 8 11.0881 8.21046 10.7713 8.4014C10.4272 8.60888 10.0742 8.88637 9.73271 9.18811C9.04742 9.79361 8.31338 10.5819 7.65134 11.3444C6.98499 12.1118 6.37167 12.8764 5.92615 13.4472C5.70298 13.7332 5.44854 14.0615 5.19414 14.4069C4.86663 14.8516 4.96162 15.4776 5.40631 15.8051C5.58507 15.9368 5.79314 16.0002 5.99933 16L11.9994 16L17.9994 16C18.2056 16.0002 18.4137 15.9368 18.5925 15.8051Z" fill="white"/>
</svg>
