<svg width="283" height="107" viewBox="0 0 283 107" fill="none" xmlns="http://www.w3.org/2000/svg">
<g filter="url(#filter0_ii_179_35052)">
<rect width="283" height="107" rx="16" fill="#161616"/>
<rect x="1" y="1" width="281" height="105" rx="15" stroke="url(#paint0_linear_179_35052)" stroke-width="2"/>
<g filter="url(#filter1_d_179_35052)">
<rect x="24" y="30" width="20" height="20" rx="10" fill="#0CFF85" fill-opacity="0.2" shape-rendering="crispEdges"/>
</g>
<rect x="27.3333" y="33.3333" width="13.3333" height="13.3333" rx="6.66667" fill="#0CFF85"/>
<path d="M78.92 52V31.76H71.64V28.2H75.24C76.28 28.2 77.12 28.0533 77.76 27.76C78.4 27.44 78.8667 26.9467 79.16 26.28C79.4533 25.6133 79.6 24.72 79.6 23.6H83.12V52H78.92ZM70.24 52V48.04H89.76V52H70.24ZM96.9444 47.76L107.824 27.64L111.024 27.84L100.144 47.96L96.9444 47.76ZM103.984 52.64C101.904 52.64 100.104 52.04 98.5844 50.84C97.0644 49.64 95.9044 47.9333 95.1044 45.72C94.3044 43.5067 93.9044 40.88 93.9044 37.84C93.9044 34.7733 94.3044 32.1333 95.1044 29.92C95.9044 27.7067 97.0644 26 98.5844 24.8C100.104 23.5733 101.904 22.96 103.984 22.96C106.091 22.96 107.891 23.5733 109.384 24.8C110.904 26 112.064 27.7067 112.864 29.92C113.664 32.1333 114.064 34.7733 114.064 37.84C114.064 40.88 113.664 43.5067 112.864 45.72C112.064 47.9333 110.904 49.64 109.384 50.84C107.891 52.04 106.091 52.64 103.984 52.64ZM103.984 48.72C105.184 48.72 106.198 48.2933 107.024 47.44C107.878 46.56 108.531 45.3067 108.984 43.68C109.464 42.0533 109.704 40.1067 109.704 37.84C109.704 35.52 109.464 33.5467 108.984 31.92C108.531 30.2933 107.878 29.0533 107.024 28.2C106.198 27.32 105.184 26.88 103.984 26.88C102.811 26.88 101.798 27.32 100.944 28.2C100.091 29.0533 99.4244 30.2933 98.9444 31.92C98.491 33.5467 98.2644 35.52 98.2644 37.84C98.2644 40.1067 98.491 42.0533 98.9444 43.68C99.4244 45.3067 100.091 46.56 100.944 47.44C101.798 48.2933 102.811 48.72 103.984 48.72ZM120.929 47.76L131.809 27.64L135.009 27.84L124.129 47.96L120.929 47.76ZM127.969 52.64C125.889 52.64 124.089 52.04 122.569 50.84C121.049 49.64 119.889 47.9333 119.089 45.72C118.289 43.5067 117.889 40.88 117.889 37.84C117.889 34.7733 118.289 32.1333 119.089 29.92C119.889 27.7067 121.049 26 122.569 24.8C124.089 23.5733 125.889 22.96 127.969 22.96C130.075 22.96 131.875 23.5733 133.369 24.8C134.889 26 136.049 27.7067 136.849 29.92C137.649 32.1333 138.049 34.7733 138.049 37.84C138.049 40.88 137.649 43.5067 136.849 45.72C136.049 47.9333 134.889 49.64 133.369 50.84C131.875 52.04 130.075 52.64 127.969 52.64ZM127.969 48.72C129.169 48.72 130.182 48.2933 131.009 47.44C131.862 46.56 132.515 45.3067 132.969 43.68C133.449 42.0533 133.689 40.1067 133.689 37.84C133.689 35.52 133.449 33.5467 132.969 31.92C132.515 30.2933 131.862 29.0533 131.009 28.2C130.182 27.32 129.169 26.88 127.969 26.88C126.795 26.88 125.782 27.32 124.929 28.2C124.075 29.0533 123.409 30.2933 122.929 31.92C122.475 33.5467 122.249 35.52 122.249 37.84C122.249 40.1067 122.475 42.0533 122.929 43.68C123.409 45.3067 124.075 46.56 124.929 47.44C125.782 48.2933 126.795 48.72 127.969 48.72ZM145.993 43.44V37.48L157.033 23.6H162.113L145.993 43.44ZM142.193 52V23.6H146.393V52H142.193ZM157.513 52L148.473 38L151.353 35.12L162.433 52H157.513Z" fill="white"/>
<path d="M68.32 83L72.416 71.64H74.272L78.368 83H76.864L75.728 79.768H70.96L69.824 83H68.32ZM71.424 78.424H75.264L73.344 72.84L71.424 78.424ZM82.9983 83.192C82.2089 83.192 81.5209 83.0107 80.9343 82.648C80.3583 82.2853 79.9103 81.7733 79.5903 81.112C79.2703 80.44 79.1103 79.656 79.1103 78.76C79.1103 77.864 79.2703 77.0853 79.5903 76.424C79.9103 75.7627 80.3583 75.2507 80.9343 74.888C81.5209 74.5147 82.2089 74.328 82.9983 74.328C83.6489 74.328 84.2249 74.4453 84.7263 74.68C85.2383 74.904 85.6543 75.2347 85.9743 75.672C86.2943 76.1093 86.5023 76.6427 86.5983 77.272L85.1903 77.368C85.0943 76.8027 84.8489 76.3707 84.4543 76.072C84.0596 75.7627 83.5743 75.608 82.9983 75.608C82.2196 75.608 81.6116 75.8907 81.1743 76.456C80.7369 77.0107 80.5182 77.7787 80.5182 78.76C80.5182 79.7413 80.7369 80.5147 81.1743 81.08C81.6116 81.6347 82.2196 81.912 82.9983 81.912C83.5743 81.912 84.0596 81.752 84.4543 81.432C84.8489 81.112 85.0943 80.632 85.1903 79.992L86.5983 80.088C86.5023 80.7173 86.2943 81.2667 85.9743 81.736C85.6543 82.1947 85.2383 82.552 84.7263 82.808C84.2249 83.064 83.6489 83.192 82.9983 83.192ZM91.0403 83C90.2723 83 89.7016 82.824 89.3283 82.472C88.9656 82.12 88.7843 81.5707 88.7843 80.824V72.536H90.1283V80.792C90.1283 81.176 90.2136 81.4427 90.3843 81.592C90.5549 81.7413 90.8163 81.816 91.1683 81.816H92.3843V83H91.0403ZM87.5363 75.704V74.52H92.3843V75.704H87.5363ZM94.1081 83V74.52H95.4521V83H94.1081ZM94.0761 73.192V71.624H95.4841V73.192H94.0761ZM100.018 83L96.9301 74.52H98.4021L100.866 81.624L103.33 74.52H104.802L101.714 83H100.018ZM109.326 83.192C108.526 83.192 107.833 83.0107 107.246 82.648C106.67 82.2853 106.222 81.7733 105.902 81.112C105.593 80.44 105.438 79.656 105.438 78.76C105.438 77.864 105.593 77.0853 105.902 76.424C106.222 75.7627 106.665 75.2507 107.23 74.888C107.806 74.5147 108.484 74.328 109.262 74.328C109.998 74.328 110.649 74.504 111.214 74.856C111.78 75.1973 112.217 75.6987 112.526 76.36C112.846 77.0213 113.006 77.8267 113.006 78.776V79.176H106.846C106.9 80.0827 107.14 80.7653 107.566 81.224C108.004 81.6827 108.59 81.912 109.326 81.912C109.881 81.912 110.334 81.784 110.686 81.528C111.049 81.2613 111.3 80.9147 111.438 80.488L112.878 80.6C112.654 81.3573 112.228 81.9813 111.598 82.472C110.98 82.952 110.222 83.192 109.326 83.192ZM106.846 77.992H111.534C111.47 77.1707 111.23 76.568 110.814 76.184C110.409 75.8 109.892 75.608 109.262 75.608C108.612 75.608 108.073 75.8107 107.646 76.216C107.23 76.6107 106.964 77.2027 106.846 77.992ZM120.679 83L118.055 74.52H119.527L121.511 81.592L123.527 74.52H124.967L126.983 81.592L128.983 74.52H130.455L127.831 83H126.135L124.247 76.552L122.359 83H120.679ZM134.021 83.192C133.146 83.192 132.448 82.9893 131.925 82.584C131.413 82.1787 131.157 81.6133 131.157 80.888C131.157 80.1627 131.37 79.592 131.797 79.176C132.224 78.76 132.901 78.4667 133.829 78.296L136.837 77.736C136.837 77.0213 136.666 76.488 136.325 76.136C135.994 75.784 135.493 75.608 134.821 75.608C134.234 75.608 133.77 75.7413 133.429 76.008C133.088 76.264 132.853 76.6373 132.725 77.128L131.301 77.016C131.461 76.216 131.845 75.5707 132.453 75.08C133.072 74.5787 133.861 74.328 134.821 74.328C135.909 74.328 136.741 74.6373 137.317 75.256C137.893 75.864 138.181 76.7067 138.181 77.784V81.288C138.181 81.48 138.213 81.6187 138.277 81.704C138.352 81.7787 138.469 81.816 138.629 81.816H138.965V83C138.922 83.0107 138.853 83.016 138.757 83.016C138.661 83.0267 138.56 83.032 138.453 83.032C138.069 83.032 137.754 82.9733 137.509 82.856C137.274 82.728 137.104 82.536 136.997 82.28C136.89 82.0133 136.837 81.6667 136.837 81.24L136.997 81.272C136.922 81.6347 136.741 81.9653 136.453 82.264C136.165 82.552 135.808 82.7813 135.381 82.952C134.954 83.112 134.501 83.192 134.021 83.192ZM134.149 82.008C134.714 82.008 135.194 81.9013 135.589 81.688C135.994 81.464 136.304 81.1653 136.517 80.792C136.73 80.408 136.837 79.9813 136.837 79.512V78.904L134.085 79.416C133.509 79.5227 133.109 79.688 132.885 79.912C132.672 80.1253 132.565 80.408 132.565 80.76C132.565 81.1547 132.704 81.464 132.981 81.688C133.269 81.9013 133.658 82.008 134.149 82.008ZM142.053 83C141.563 83 141.163 82.872 140.853 82.616C140.544 82.36 140.389 81.9547 140.389 81.4V71.64H141.733V81.288C141.733 81.4587 141.776 81.592 141.861 81.688C141.957 81.7733 142.091 81.816 142.261 81.816H142.997V83H142.053ZM146.163 83C145.672 83 145.272 82.872 144.963 82.616C144.653 82.36 144.499 81.9547 144.499 81.4V71.64H145.843V81.288C145.843 81.4587 145.885 81.592 145.971 81.688C146.067 81.7733 146.2 81.816 146.371 81.816H147.107V83H146.163ZM151.983 83.192C151.183 83.192 150.489 83.0107 149.903 82.648C149.327 82.2853 148.879 81.7733 148.559 81.112C148.249 80.44 148.095 79.656 148.095 78.76C148.095 77.864 148.249 77.0853 148.559 76.424C148.879 75.7627 149.321 75.2507 149.887 74.888C150.463 74.5147 151.14 74.328 151.919 74.328C152.655 74.328 153.305 74.504 153.871 74.856C154.436 75.1973 154.873 75.6987 155.183 76.36C155.503 77.0213 155.663 77.8267 155.663 78.776V79.176H149.503C149.556 80.0827 149.796 80.7653 150.223 81.224C150.66 81.6827 151.247 81.912 151.983 81.912C152.537 81.912 152.991 81.784 153.343 81.528C153.705 81.2613 153.956 80.9147 154.095 80.488L155.535 80.6C155.311 81.3573 154.884 81.9813 154.255 82.472C153.636 82.952 152.879 83.192 151.983 83.192ZM149.503 77.992H154.191C154.127 77.1707 153.887 76.568 153.471 76.184C153.065 75.8 152.548 75.608 151.919 75.608C151.268 75.608 150.729 75.8107 150.303 76.216C149.887 76.6107 149.62 77.2027 149.503 77.992ZM160.259 83C159.491 83 158.92 82.824 158.547 82.472C158.184 82.12 158.003 81.5707 158.003 80.824V72.536H159.347V80.792C159.347 81.176 159.432 81.4427 159.603 81.592C159.774 81.7413 160.035 81.816 160.387 81.816H161.603V83H160.259ZM156.755 75.704V74.52H161.603V75.704H156.755ZM166.259 83.192C165.501 83.192 164.856 83.0693 164.323 82.824C163.8 82.5787 163.389 82.2427 163.091 81.816C162.803 81.3787 162.637 80.8827 162.595 80.328L164.003 80.232C164.088 80.744 164.307 81.1547 164.659 81.464C165.011 81.7627 165.544 81.912 166.259 81.912C166.835 81.912 167.293 81.8213 167.635 81.64C167.987 81.448 168.163 81.144 168.163 80.728C168.163 80.504 168.109 80.3173 168.003 80.168C167.896 80.0187 167.688 79.8907 167.379 79.784C167.069 79.6667 166.611 79.5547 166.003 79.448C165.192 79.2987 164.552 79.1173 164.083 78.904C163.624 78.68 163.293 78.408 163.091 78.088C162.899 77.7573 162.803 77.368 162.803 76.92C162.803 76.1627 163.08 75.544 163.635 75.064C164.189 74.5733 164.979 74.328 166.003 74.328C166.696 74.328 167.277 74.456 167.747 74.712C168.227 74.9573 168.6 75.288 168.867 75.704C169.144 76.1093 169.325 76.5573 169.411 77.048L168.003 77.144C167.939 76.8453 167.821 76.584 167.651 76.36C167.48 76.1253 167.256 75.944 166.979 75.816C166.701 75.6773 166.371 75.608 165.987 75.608C165.379 75.608 164.931 75.7253 164.643 75.96C164.355 76.1947 164.211 76.4933 164.211 76.856C164.211 77.1333 164.275 77.3627 164.403 77.544C164.541 77.7147 164.76 77.8587 165.059 77.976C165.357 78.0827 165.757 78.1787 166.259 78.264C167.123 78.4133 167.795 78.5947 168.275 78.808C168.755 79.0213 169.091 79.2827 169.283 79.592C169.475 79.9013 169.571 80.28 169.571 80.728C169.571 81.2507 169.421 81.6987 169.123 82.072C168.835 82.4347 168.44 82.712 167.939 82.904C167.448 83.096 166.888 83.192 166.259 83.192ZM177.257 83L174.633 74.52H176.105L178.089 81.592L180.105 74.52H181.545L183.561 81.592L185.561 74.52H187.033L184.409 83H182.713L180.825 76.552L178.937 83H177.257ZM191.561 83.192C190.782 83.192 190.099 83.0107 189.513 82.648C188.926 82.2853 188.473 81.7733 188.153 81.112C187.833 80.44 187.673 79.656 187.673 78.76C187.673 77.8533 187.833 77.0693 188.153 76.408C188.473 75.7467 188.926 75.2347 189.513 74.872C190.099 74.5093 190.782 74.328 191.561 74.328C192.339 74.328 193.017 74.5093 193.593 74.872C194.179 75.2347 194.633 75.7467 194.953 76.408C195.273 77.0693 195.433 77.8533 195.433 78.76C195.433 79.656 195.273 80.44 194.953 81.112C194.633 81.7733 194.179 82.2853 193.593 82.648C193.017 83.0107 192.339 83.192 191.561 83.192ZM191.561 81.912C192.339 81.912 192.942 81.6347 193.369 81.08C193.806 80.5147 194.025 79.7413 194.025 78.76C194.025 77.7787 193.806 77.0107 193.369 76.456C192.942 75.8907 192.339 75.608 191.561 75.608C190.782 75.608 190.174 75.8907 189.737 76.456C189.299 77.0107 189.081 77.7787 189.081 78.76C189.081 79.7413 189.299 80.5147 189.737 81.08C190.174 81.6347 190.782 81.912 191.561 81.912ZM197.264 83V74.52H198.448L198.512 76.664L198.384 76.616C198.491 75.8907 198.72 75.3627 199.072 75.032C199.435 74.6907 199.915 74.52 200.512 74.52H201.344V75.8H200.528C200.102 75.8 199.744 75.88 199.456 76.04C199.179 76.1893 198.966 76.4187 198.816 76.728C198.678 77.0267 198.608 77.4107 198.608 77.88V83H197.264ZM204.507 83C204.016 83 203.616 82.872 203.307 82.616C202.997 82.36 202.843 81.9547 202.843 81.4V71.64H204.187V81.288C204.187 81.4587 204.229 81.592 204.315 81.688C204.411 81.7733 204.544 81.816 204.715 81.816H205.451V83H204.507ZM210.022 83.192C209.286 83.192 208.646 83.0107 208.102 82.648C207.569 82.2853 207.158 81.7733 206.87 81.112C206.582 80.4507 206.438 79.6667 206.438 78.76C206.438 77.8533 206.582 77.0693 206.87 76.408C207.158 75.7467 207.569 75.2347 208.102 74.872C208.646 74.5093 209.286 74.328 210.022 74.328C210.588 74.328 211.105 74.4507 211.574 74.696C212.044 74.9307 212.396 75.2667 212.63 75.704V71.64H213.974V83H212.758L212.71 81.72C212.476 82.1787 212.118 82.5413 211.638 82.808C211.158 83.064 210.62 83.192 210.022 83.192ZM210.294 81.912C210.796 81.912 211.217 81.784 211.558 81.528C211.91 81.272 212.177 80.9093 212.358 80.44C212.54 79.96 212.63 79.4 212.63 78.76C212.63 78.0987 212.54 77.5333 212.358 77.064C212.177 76.5947 211.91 76.2373 211.558 75.992C211.217 75.736 210.796 75.608 210.294 75.608C209.548 75.608 208.95 75.8907 208.502 76.456C208.065 77.0107 207.846 77.7787 207.846 78.76C207.846 79.7307 208.065 80.4987 208.502 81.064C208.95 81.6293 209.548 81.912 210.294 81.912ZM218.07 83L215.446 74.52H216.918L218.902 81.592L220.918 74.52H222.358L224.374 81.592L226.374 74.52H227.846L225.222 83H223.526L221.638 76.552L219.75 83H218.07ZM229.327 83V74.52H230.671V83H229.327ZM229.295 73.192V71.624H230.703V73.192H229.295ZM236.085 83.192C235.349 83.192 234.709 83.0107 234.165 82.648C233.632 82.2853 233.221 81.7733 232.933 81.112C232.645 80.4507 232.501 79.6667 232.501 78.76C232.501 77.8533 232.645 77.0693 232.933 76.408C233.221 75.7467 233.632 75.2347 234.165 74.872C234.709 74.5093 235.349 74.328 236.085 74.328C236.65 74.328 237.168 74.4507 237.637 74.696C238.106 74.9307 238.458 75.2667 238.693 75.704V71.64H240.037V83H238.821L238.773 81.72C238.538 82.1787 238.181 82.5413 237.701 82.808C237.221 83.064 236.682 83.192 236.085 83.192ZM236.357 81.912C236.858 81.912 237.28 81.784 237.621 81.528C237.973 81.272 238.24 80.9093 238.421 80.44C238.602 79.96 238.693 79.4 238.693 78.76C238.693 78.0987 238.602 77.5333 238.421 77.064C238.24 76.5947 237.973 76.2373 237.621 75.992C237.28 75.736 236.858 75.608 236.357 75.608C235.61 75.608 235.013 75.8907 234.565 76.456C234.128 77.0107 233.909 77.7787 233.909 78.76C233.909 79.7307 234.128 80.4987 234.565 81.064C235.013 81.6293 235.61 81.912 236.357 81.912ZM245.748 83.192C244.948 83.192 244.255 83.0107 243.668 82.648C243.092 82.2853 242.644 81.7733 242.324 81.112C242.015 80.44 241.86 79.656 241.86 78.76C241.86 77.864 242.015 77.0853 242.324 76.424C242.644 75.7627 243.087 75.2507 243.652 74.888C244.228 74.5147 244.906 74.328 245.684 74.328C246.42 74.328 247.071 74.504 247.636 74.856C248.202 75.1973 248.639 75.6987 248.948 76.36C249.268 77.0213 249.428 77.8267 249.428 78.776V79.176H243.268C243.322 80.0827 243.562 80.7653 243.988 81.224C244.426 81.6827 245.012 81.912 245.748 81.912C246.303 81.912 246.756 81.784 247.108 81.528C247.471 81.2613 247.722 80.9147 247.86 80.488L249.3 80.6C249.076 81.3573 248.65 81.9813 248.02 82.472C247.402 82.952 246.644 83.192 245.748 83.192ZM243.268 77.992H247.956C247.892 77.1707 247.652 76.568 247.236 76.184C246.831 75.8 246.314 75.608 245.684 75.608C245.034 75.608 244.495 75.8107 244.068 76.216C243.652 76.6107 243.386 77.2027 243.268 77.992Z" fill="white" fill-opacity="0.7"/>
</g>
<defs>
<filter id="filter0_ii_179_35052" x="-15" y="-15" width="313" height="137" filterUnits="userSpaceOnUse" color-interpolation-filters="sRGB">
<feFlood flood-opacity="0" result="BackgroundImageFix"/>
<feBlend mode="normal" in="SourceGraphic" in2="BackgroundImageFix" result="shape"/>
<feColorMatrix in="SourceAlpha" type="matrix" values="0 0 0 0 0 0 0 0 0 0 0 0 0 0 0 0 0 0 127 0" result="hardAlpha"/>
<feOffset dx="15" dy="15"/>
<feGaussianBlur stdDeviation="12.5"/>
<feComposite in2="hardAlpha" operator="arithmetic" k2="-1" k3="1"/>
<feColorMatrix type="matrix" values="0 0 0 0 1 0 0 0 0 1 0 0 0 0 1 0 0 0 0.1 0"/>
<feBlend mode="normal" in2="shape" result="effect1_innerShadow_179_35052"/>
<feColorMatrix in="SourceAlpha" type="matrix" values="0 0 0 0 0 0 0 0 0 0 0 0 0 0 0 0 0 0 127 0" result="hardAlpha"/>
<feOffset dx="-15" dy="-15"/>
<feGaussianBlur stdDeviation="12.5"/>
<feComposite in2="hardAlpha" operator="arithmetic" k2="-1" k3="1"/>
<feColorMatrix type="matrix" values="0 0 0 0 0 0 0 0 0 0 0 0 0 0 0 0 0 0 0.2 0"/>
<feBlend mode="normal" in2="effect1_innerShadow_179_35052" result="effect2_innerShadow_179_35052"/>
</filter>
<filter id="filter1_d_179_35052" x="4" y="10" width="60" height="60" filterUnits="userSpaceOnUse" color-interpolation-filters="sRGB">
<feFlood flood-opacity="0" result="BackgroundImageFix"/>
<feColorMatrix in="SourceAlpha" type="matrix" values="0 0 0 0 0 0 0 0 0 0 0 0 0 0 0 0 0 0 127 0" result="hardAlpha"/>
<feOffset/>
<feGaussianBlur stdDeviation="10"/>
<feComposite in2="hardAlpha" operator="out"/>
<feColorMatrix type="matrix" values="0 0 0 0 0.0470588 0 0 0 0 1 0 0 0 0 0.521569 0 0 0 0.4 0"/>
<feBlend mode="normal" in2="BackgroundImageFix" result="effect1_dropShadow_179_35052"/>
<feBlend mode="normal" in="SourceGraphic" in2="effect1_dropShadow_179_35052" result="shape"/>
</filter>
<linearGradient id="paint0_linear_179_35052" x1="0.28624" y1="0.159642" x2="212.518" y2="181.954" gradientUnits="userSpaceOnUse">
<stop stop-color="white"/>
<stop offset="1" stop-color="white" stop-opacity="0"/>
</linearGradient>
</defs>
</svg>
