<svg width="159" height="31" viewBox="0 0 159 31" fill="none" xmlns="http://www.w3.org/2000/svg">
<rect x="13.3474" y="2.44586" width="18.466" height="18.466" rx="3.07767" transform="rotate(46.2867 13.3474 2.44586)" fill="#83FF8F"/>
<rect opacity="0.5" x="35.6345" y="2.44586" width="18.466" height="18.466" rx="3.07767" transform="rotate(46.2867 35.6345 2.44586)" fill="#83FF8F"/>
<path d="M61.1265 24V21.168L68.2065 13.824H61.4145V11.136H72.5265V13.968L65.3265 21.312H72.7185V24H61.1265ZM75.4993 24V6.96H79.0993V16.416L83.8753 11.136H88.1953L83.2033 16.44L88.3393 24H84.4033L80.8753 18.48L79.0993 20.376V24H75.4993ZM97.74 24.384C96.268 24.384 95.004 24.136 93.948 23.64C92.892 23.144 92.068 22.448 91.476 21.552C90.884 20.656 90.548 19.6 90.468 18.384L94.14 18.216C94.236 18.888 94.428 19.464 94.716 19.944C95.02 20.408 95.42 20.76 95.916 21C96.428 21.24 97.052 21.36 97.788 21.36C98.396 21.36 98.908 21.288 99.324 21.144C99.756 21 100.084 20.784 100.308 20.496C100.532 20.192 100.644 19.824 100.644 19.392C100.644 18.992 100.548 18.648 100.356 18.36C100.164 18.056 99.796 17.784 99.252 17.544C98.708 17.288 97.908 17.04 96.852 16.8C95.396 16.464 94.22 16.088 93.324 15.672C92.444 15.256 91.804 14.736 91.404 14.112C91.004 13.472 90.804 12.672 90.804 11.712C90.804 10.688 91.052 9.792 91.548 9.024C92.06 8.256 92.796 7.656 93.756 7.224C94.716 6.792 95.86 6.576 97.188 6.576C98.596 6.576 99.788 6.824 100.764 7.32C101.74 7.816 102.5 8.496 103.044 9.36C103.604 10.224 103.94 11.216 104.052 12.336L100.404 12.528C100.356 11.936 100.196 11.424 99.924 10.992C99.652 10.544 99.284 10.2 98.82 9.96C98.356 9.72 97.796 9.6 97.14 9.6C96.308 9.6 95.652 9.784 95.172 10.152C94.708 10.52 94.476 11 94.476 11.592C94.476 12.008 94.58 12.36 94.788 12.648C95.012 12.92 95.372 13.16 95.868 13.368C96.38 13.576 97.1 13.776 98.028 13.968C99.612 14.288 100.86 14.696 101.772 15.192C102.7 15.672 103.356 16.248 103.74 16.92C104.124 17.592 104.316 18.36 104.316 19.224C104.316 20.28 104.044 21.2 103.5 21.984C102.972 22.752 102.212 23.344 101.22 23.76C100.244 24.176 99.084 24.384 97.74 24.384ZM113.136 24.288C111.824 24.288 110.68 24.016 109.704 23.472C108.728 22.912 107.968 22.128 107.424 21.12C106.88 20.112 106.608 18.928 106.608 17.568C106.608 16.208 106.88 15.032 107.424 14.04C107.968 13.032 108.728 12.248 109.704 11.688C110.68 11.128 111.824 10.848 113.136 10.848C114.272 10.848 115.288 11.048 116.184 11.448C117.096 11.848 117.832 12.424 118.392 13.176C118.952 13.928 119.296 14.832 119.424 15.888L115.704 16.056C115.592 15.256 115.304 14.656 114.84 14.256C114.392 13.84 113.824 13.632 113.136 13.632C112.24 13.632 111.544 13.976 111.048 14.664C110.552 15.352 110.304 16.32 110.304 17.568C110.304 18.816 110.552 19.792 111.048 20.496C111.544 21.184 112.24 21.528 113.136 21.528C113.824 21.528 114.4 21.32 114.864 20.904C115.328 20.472 115.608 19.824 115.704 18.96L119.424 19.104C119.312 20.16 118.976 21.08 118.416 21.864C117.872 22.632 117.144 23.232 116.232 23.664C115.336 24.08 114.304 24.288 113.136 24.288ZM127.245 24.288C125.933 24.288 124.789 24.016 123.813 23.472C122.837 22.912 122.077 22.128 121.533 21.12C120.989 20.112 120.717 18.928 120.717 17.568C120.717 16.208 120.989 15.032 121.533 14.04C122.077 13.032 122.837 12.248 123.813 11.688C124.789 11.128 125.933 10.848 127.245 10.848C128.557 10.848 129.701 11.128 130.677 11.688C131.653 12.248 132.413 13.032 132.957 14.04C133.501 15.032 133.773 16.208 133.773 17.568C133.773 18.928 133.501 20.112 132.957 21.12C132.413 22.128 131.653 22.912 130.677 23.472C129.701 24.016 128.557 24.288 127.245 24.288ZM127.245 21.528C128.141 21.528 128.837 21.184 129.333 20.496C129.829 19.792 130.077 18.816 130.077 17.568C130.077 16.32 129.829 15.352 129.333 14.664C128.837 13.96 128.141 13.608 127.245 13.608C126.349 13.608 125.653 13.96 125.157 14.664C124.661 15.352 124.413 16.32 124.413 17.568C124.413 18.816 124.661 19.792 125.157 20.496C125.653 21.184 126.349 21.528 127.245 21.528ZM136.015 24V11.136H139.423L139.543 14.88L139.279 14.808C139.487 13.512 139.855 12.576 140.383 12C140.911 11.424 141.639 11.136 142.567 11.136H143.743V14.112H142.567C141.895 14.112 141.343 14.2 140.911 14.376C140.479 14.552 140.151 14.832 139.927 15.216C139.719 15.6 139.615 16.12 139.615 16.776V24H136.015ZM151.033 24.288C149.721 24.288 148.577 24.016 147.601 23.472C146.641 22.912 145.889 22.128 145.345 21.12C144.817 20.112 144.553 18.928 144.553 17.568C144.553 16.208 144.817 15.032 145.345 14.04C145.889 13.032 146.641 12.248 147.601 11.688C148.561 11.128 149.697 10.848 151.009 10.848C152.289 10.848 153.401 11.128 154.345 11.688C155.289 12.248 156.017 13.048 156.529 14.088C157.057 15.128 157.321 16.368 157.321 17.808V18.528H148.273C148.321 19.552 148.593 20.312 149.089 20.808C149.601 21.304 150.273 21.552 151.105 21.552C151.713 21.552 152.217 21.424 152.617 21.168C153.033 20.912 153.329 20.52 153.505 19.992L157.129 20.208C156.793 21.488 156.081 22.488 154.993 23.208C153.905 23.928 152.585 24.288 151.033 24.288ZM148.273 16.32H153.625C153.577 15.376 153.313 14.672 152.833 14.208C152.369 13.744 151.761 13.512 151.009 13.512C150.257 13.512 149.633 13.76 149.137 14.256C148.657 14.736 148.369 15.424 148.273 16.32Z" fill="white"/>
</svg>
