<svg width="89" height="38" viewBox="0 0 89 38" fill="none" xmlns="http://www.w3.org/2000/svg">
<path fill-rule="evenodd" clip-rule="evenodd" d="M16.1324 4.83469C15.0977 6.10134 13.442 7.10039 11.7864 6.95767C11.5795 5.24502 12.39 3.42532 13.3386 2.30138C14.3733 0.999051 16.1842 0.0713607 17.6501 0C17.8226 1.78402 17.15 3.53236 16.1324 4.83469ZM17.6327 7.29654C16.1741 7.2097 14.8432 7.7503 13.7682 8.18696C13.0764 8.46796 12.4906 8.70591 12.0449 8.70591C11.5448 8.70591 10.9348 8.45523 10.2499 8.17378C9.35247 7.80498 8.32645 7.38334 7.25051 7.40358C4.78431 7.43926 2.49058 8.88431 1.23161 11.1857C-1.35531 15.7885 0.559007 22.6034 3.0597 26.3498C4.28417 28.2052 5.7501 30.239 7.68166 30.1676C8.53144 30.1345 9.14271 29.8661 9.77533 29.5885C10.5036 29.2688 11.2602 28.9367 12.4416 28.9367C13.582 28.9367 14.3055 29.2601 15 29.5706C15.6604 29.8658 16.2946 30.1493 17.236 30.132C19.2366 30.0963 20.4955 28.2766 21.72 26.4212C23.0414 24.4299 23.6221 22.4864 23.7102 22.1915L23.7206 22.1574C23.7185 22.1552 23.7021 22.1475 23.6733 22.1338C23.2316 21.9247 19.8553 20.3258 19.8229 16.0382C19.7904 12.4395 22.5009 10.6161 22.9276 10.3291C22.9536 10.3116 22.9711 10.2998 22.979 10.2937C21.2544 7.65334 18.564 7.3679 17.6327 7.29654ZM31.4815 29.9357V2.12292H41.5705C46.7788 2.12292 50.4178 5.83367 50.4178 11.2571C50.4178 16.6805 46.7098 20.4269 41.4325 20.4269H35.655V29.9357H31.4815ZM35.6547 5.7625H40.4663C44.088 5.7625 46.1576 7.7606 46.1576 11.2751C46.1576 14.7896 44.088 16.8056 40.4491 16.8056H35.6547V5.7625ZM64.1976 26.5996C63.0939 28.7761 60.6622 30.1497 58.0407 30.1497C54.1604 30.1497 51.4527 27.7592 51.4527 24.1555C51.4527 20.5874 54.0741 18.5358 58.9203 18.2325L64.1286 17.9114V16.3771C64.1286 14.1114 62.6972 12.8805 60.1448 12.8805C58.0407 12.8805 56.5058 14.0044 56.1954 15.7171H52.4357C52.5565 12.1133 55.8332 9.49084 60.2655 9.49084C65.0427 9.49084 68.147 12.0777 68.147 16.0917V29.9357H64.2838V26.5996H64.1976ZM59.1615 26.8495C56.9368 26.8495 55.5226 25.7434 55.5226 24.0486C55.5226 22.3003 56.885 21.2834 59.4892 21.1228L64.1284 20.8195V22.3895C64.1284 24.9941 61.9899 26.8495 59.1615 26.8495ZM80.9607 31.024C79.2878 35.8944 77.3735 37.5 73.3034 37.5C72.993 37.5 71.9582 37.4643 71.7168 37.393V34.0569C71.9755 34.0925 72.6136 34.1282 72.9412 34.1282C74.7866 34.1282 75.8214 33.3254 76.4595 31.2381L76.8389 30.0071L69.768 9.75854H74.1312L79.0464 26.1893H79.1326L84.0478 9.75854H88.2903L80.9607 31.024Z" fill="white"/>
</svg>
