<svg width="125" height="32" viewBox="0 0 125 32" fill="none" xmlns="http://www.w3.org/2000/svg">
<path d="M8.30934 0.782898L0 24.2219H4.88174L7.22912 17.3822H13.9805L16.3902 24.2219H21.3758L13.0664 0.782898H8.30934ZM12.8172 13.5024H8.45475L10.262 8.34259C10.3867 7.9826 10.5113 7.64262 10.6152 7.28263C10.7398 7.64262 10.8437 8.0026 10.9891 8.36259L12.8172 13.5024Z" fill="white"/>
<path d="M29.6027 13.5707C27.3591 12.7107 27.1099 12.3107 27.1099 11.6908C27.1099 10.9108 27.7954 10.4108 28.8964 10.4108C30.2259 10.4108 31.2438 10.9108 31.7423 11.2108L32.6979 11.7908L33.9651 8.0709L33.4042 7.71092C32.3032 7.01095 30.6413 6.61096 28.9587 6.61096C25.1987 6.61096 22.4774 8.89087 22.4774 12.0507C22.4774 14.9506 25.1364 16.4906 27.3799 17.2705C29.6027 18.0705 29.7896 18.6305 29.7896 19.3104C29.7896 20.5904 28.377 20.7904 27.5669 20.7904C26.2789 20.7904 24.8871 20.2504 24.0977 19.8104L23.1422 19.2704L21.8958 23.0703L22.4982 23.4103C23.8692 24.1902 25.6765 24.6302 27.5046 24.6302C31.6385 24.6302 34.4221 22.3903 34.4221 19.0705C34.4221 15.6906 31.6592 14.3106 29.6027 13.5707Z" fill="white"/>
<path d="M41.7417 2.89941L37.0885 4.25936V6.93925H34.5957V10.7991H37.1093V18.4588C37.1093 20.5987 37.5663 22.1186 38.4803 23.1386C39.3736 24.0986 40.7446 24.6185 42.3026 24.6185C43.7152 24.6185 44.7331 24.3386 45.2109 24.1786L45.8341 23.9586L45.5848 20.0787L44.5254 20.3987C44.193 20.4787 43.8398 20.5587 43.0712 20.5587C42.5104 20.5587 41.7417 20.5587 41.7417 18.3788V10.7991H45.9587V6.93925H41.7625L41.7417 2.89941Z" fill="white"/>
<path d="M57.2962 6.77083L56.4444 6.67084C56.1952 6.63084 55.9459 6.61084 55.6135 6.61084C54.1386 6.61084 52.7883 7.19082 51.7497 8.21078L51.7081 6.93083H47.3457L47.408 7.83079C47.4911 9.15074 47.5534 10.6907 47.5534 12.6506V24.2501H52.269V15.0705C52.269 14.6305 52.3105 14.2105 52.3521 13.8906C52.7052 12.0906 53.8685 10.9707 55.4265 10.9707C55.8005 10.9707 56.029 10.9707 56.2367 11.0107L57.2962 11.2307V6.77083Z" fill="white"/>
<path d="M65.8954 6.61096C60.6398 6.61096 56.9629 10.3508 56.9629 15.7306C56.9629 20.9504 60.5151 24.6102 65.6046 24.6102C69.9255 24.6102 74.5579 21.7503 74.5579 15.4706C74.5995 10.2508 71.0265 6.61096 65.8954 6.61096ZM69.8216 15.5506C69.8216 18.5705 68.1182 20.7704 65.7916 20.7704C63.465 20.7704 61.7823 18.5905 61.7823 15.6306C61.7823 13.7107 62.6548 10.4508 65.8747 10.4508C68.9907 10.4308 69.8216 13.7707 69.8216 15.5506Z" fill="white"/>
<path d="M90.0284 2.60927C88.4704 1.26933 86.1438 0.589355 83.1109 0.589355C81.0751 0.589355 79.1432 0.729349 77.3775 1.02934L76.6504 1.14933V24.2084H81.3244V15.6288C81.8022 15.6688 82.3007 15.6888 82.7785 15.6888C85.9361 15.6888 88.6159 14.7488 90.3193 13.0489C91.6488 11.7489 92.3135 9.98898 92.3135 7.80906C92.2927 5.70915 91.5034 3.86922 90.0284 2.60927ZM87.6187 7.94906C87.6187 11.2289 84.6274 11.7089 82.8409 11.7089C82.2384 11.7089 81.7399 11.6889 81.3036 11.6289V4.5892C81.7606 4.5292 82.3838 4.5092 83.1732 4.5092C85.209 4.5292 87.6187 5.12917 87.6187 7.94906Z" fill="white"/>
<path d="M106.637 19.6503V13.8105C106.637 9.15074 104.123 6.61084 99.5947 6.61084C97.4966 6.61084 95.2946 7.17082 93.7574 8.09078L93.1757 8.45076L94.4429 12.0506L95.4193 11.4106C96.3956 10.7707 97.8082 10.3907 99.2 10.3907C100.135 10.3707 100.841 10.5907 101.298 11.0307C101.672 11.3906 101.901 11.9306 101.984 12.6106C98.3068 12.7106 95.6062 13.5706 93.9859 15.1305C92.8434 16.2104 92.2617 17.6104 92.2617 19.2703C92.2617 21.9102 94.256 24.6101 98.099 24.6101C99.7401 24.6101 101.277 24.1101 102.482 23.2102L102.607 24.2301H107.073L106.928 23.2502C106.699 22.3102 106.637 21.0902 106.637 19.6503ZM98.7845 20.8103C98.0783 20.8103 96.9149 20.5703 96.9149 18.9503C96.9149 18.3304 97.1019 17.8504 97.5174 17.4504C98.0783 16.9304 99.2831 16.3304 102.025 16.2704V18.1304C102.025 18.2704 102.004 18.5103 101.942 18.7703C101.589 19.7103 100.571 20.8103 98.7845 20.8103Z" fill="white"/>
<path d="M119.634 6.95945L116.227 16.6991C116.144 16.939 116.061 17.199 115.978 17.439C115.895 17.199 115.812 16.959 115.708 16.7391L111.99 6.95945H106.838L113.278 22.4988L113.298 22.5388C113.402 22.7388 113.444 22.8588 113.444 22.8988C113.402 22.9788 113.34 23.1388 113.298 23.2388C112.738 24.3987 111.907 25.4587 111.076 26.0987L111.055 26.1187C110.12 26.8786 109.144 27.2386 108.77 27.3386L107.939 27.5986L109.144 31.4785L109.912 31.3385C110.39 31.2585 112.052 30.8785 113.963 29.3385C116.248 27.3986 117.765 24.2787 119.759 19.219L124.641 6.93945L119.634 6.95945Z" fill="white"/>
<path d="M17.2811 7.25971C20.314 4.27983 25.4658 2.4999 31.0538 2.4999C33.235 2.4999 35.3539 2.75989 37.3481 3.29987L37.5143 3.33987L41.1081 2.29991L39.4878 1.71993C36.4341 0.599974 32.9026 0 29.2881 0C24.0324 0 19.1507 1.21995 15.4738 3.43986L15.0791 3.67985L16.5956 7.93968L17.2811 7.25971Z" fill="white"/>
</svg>
