<svg width="128" height="21" viewBox="0 0 128 21" fill="none" xmlns="http://www.w3.org/2000/svg">
<path d="M112.217 8.71355C111.535 9.1715 110.544 9.3979 109.189 9.3979H107.845L108.876 4.03909H109.864C110.989 4.03909 111.811 4.2134 112.377 4.56718C112.819 4.84464 113.344 5.39388 113.344 6.43614C113.344 7.69191 112.734 8.3675 112.217 8.71355ZM32.0411 15.439H21.6398L22.3121 11.9363H28.8362L29.5775 7.99103H23.1162L23.7408 4.52438H34.1239L32.0411 15.439ZM117.821 1.51775C116.291 0.508495 113.977 0 110.943 0H102.997L100.043 15.4395H89.6337L90.3011 11.9368H96.5723L97.318 8.00237L91.0505 8.0132L91.7217 4.52541H98.1799L99.0391 0.000515433H85.9203L83.1166 14.6474H78.3062L81.1303 0.000515433H74.272L71.4682 14.6474H66.7778L69.6046 0.000515433H62.7533L59.792 15.44H49.3088L49.9693 11.9373H56.2689L57.0108 8.02558L50.7208 8.01991L51.3888 4.52541H57.9187L58.7737 0.000515433H17.9029L15.5765 12.2359L10.9418 0H3.8285L0 19.967H6.79295L9.10977 7.39537L13.6079 19.967H37.9556L40.9152 4.5249H44.725L41.7637 19.967H105.83L107.686 10.2184L110.693 19.967H117.49L114.376 12.0018L115.087 11.8537C116.653 11.5309 117.88 10.8352 118.73 9.79294C119.582 8.74088 120.015 7.39022 120.015 5.76777C120.016 3.87819 119.299 2.48885 117.821 1.51775Z" fill="white"/>
<path d="M123.422 17.6055L124.347 17.5591C124.543 17.5503 124.698 17.522 124.806 17.4771C124.915 17.4333 124.997 17.3662 125.049 17.276C125.102 17.1863 125.127 17.0919 125.12 16.9908C125.112 16.8412 125.049 16.7221 124.933 16.6308C124.816 16.5406 124.636 16.5034 124.394 16.5143L123.364 16.5648L123.422 17.6055ZM123.079 19.3786L122.913 16.2378L124.36 16.1677C124.649 16.1533 124.871 16.1708 125.025 16.2203C125.181 16.2688 125.306 16.3627 125.404 16.5014C125.502 16.6396 125.557 16.7933 125.564 16.9666C125.577 17.1893 125.511 17.3802 125.37 17.5411C125.228 17.7004 125.003 17.8092 124.693 17.866C124.809 17.9144 124.9 17.9609 124.961 18.0088C125.093 18.114 125.219 18.2481 125.34 18.41L125.949 19.2373L125.411 19.2636L124.945 18.6313C124.809 18.4482 124.698 18.309 124.611 18.213C124.525 18.1171 124.447 18.0516 124.381 18.0145C124.316 17.9774 124.246 17.9531 124.18 17.9397C124.13 17.9325 124.05 17.9315 123.939 17.9371L123.44 17.9614L123.512 19.3574L123.079 19.3786Z" fill="white"/>
<path d="M121.666 17.8587C121.633 17.2089 121.862 16.586 122.315 16.1043C122.768 15.6216 123.39 15.3364 124.066 15.3034C125.458 15.2338 126.649 16.2688 126.72 17.6102C126.723 17.6514 126.725 17.6953 126.725 17.735C126.725 19.0222 125.672 20.1006 124.323 20.1686C122.929 20.2367 121.739 19.2006 121.666 17.8587ZM124.037 14.8026C123.226 14.8444 122.476 15.1858 121.931 15.768C121.386 16.3498 121.107 17.1027 121.149 17.8861C121.237 19.5013 122.672 20.7478 124.351 20.6668C126.027 20.5833 127.325 19.2006 127.238 17.5854V17.5839C127.153 15.9681 125.718 14.7206 124.037 14.8026Z" fill="white"/>
</svg>
