<svg width="161" height="100" viewBox="0 0 161 100" fill="none" xmlns="http://www.w3.org/2000/svg">
<path d="M66.4888 47.6867C66.1955 49.8046 64.4356 49.8046 62.8224 49.8046H61.9425L62.6757 45.71C62.6757 45.4277 62.9691 45.2865 63.2624 45.2865H63.7024C64.8756 45.2865 65.9022 45.2865 66.4888 45.8512C66.4888 46.416 66.4888 46.9808 66.4888 47.6867ZM65.7556 42.0391H59.4493C59.0093 42.0391 58.716 42.3214 58.5694 42.745L56.0762 58.2761C56.0762 58.5585 56.2228 58.8409 56.6628 58.8409H59.596C60.0359 58.8409 60.3292 58.5585 60.4759 58.1349L61.2092 53.8992C61.2092 53.4756 61.6492 53.1932 62.0891 53.1932H64.1423C68.2487 53.1932 70.5952 51.2165 71.3285 47.4043C71.6218 45.71 71.3285 44.4393 70.5952 43.451C69.422 42.6038 67.8088 42.0391 65.7556 42.0391Z" fill="white"/>
<path d="M80.2748 53.3344C79.9815 55.0287 78.6616 56.1582 76.9017 56.1582C76.0217 56.1582 75.2885 55.8758 74.8485 55.311C74.4085 54.7463 74.2618 54.0403 74.4085 53.3344C74.7018 51.6401 76.0217 50.5105 77.7816 50.5105C78.6616 50.5105 79.3948 50.7929 79.8348 51.3577C80.1281 51.7812 80.4214 52.4872 80.2748 53.3344ZM84.3812 47.6867H81.4481C81.1547 47.6867 81.008 47.8279 80.8614 48.1103L80.7148 48.9574L80.5681 48.675C79.9815 47.8279 78.5149 47.4043 77.0483 47.4043C73.6752 47.4043 70.8887 49.8046 70.3021 53.1932C70.0088 54.8875 70.4487 56.4406 71.4753 57.5701C72.3553 58.5584 73.6752 58.982 75.2884 58.982C77.9283 58.982 79.3948 57.2877 79.3948 57.2877L79.2482 58.1349C79.2482 58.4173 79.3948 58.6996 79.8348 58.6996H82.4746C82.9146 58.6996 83.2079 58.4173 83.3546 57.9937L84.9678 48.1103C84.9678 47.9691 84.8212 47.6867 84.3812 47.6867Z" fill="white"/>
<path d="M100.366 47.6865H97.2862C96.9929 47.6865 96.6995 47.8277 96.5529 48.1101L92.4465 54.0402L90.6866 48.3925C90.5399 47.9689 90.2466 47.8277 89.8066 47.8277H86.8735C86.5802 47.8277 86.2869 48.1101 86.4335 48.5337L89.8066 57.8523L86.7268 62.0881C86.4335 62.3705 86.7269 62.9352 87.1668 62.9352H90.2466C90.54 62.9352 90.8333 62.794 90.9799 62.5117L100.953 48.5337C101.099 48.1101 100.806 47.6865 100.366 47.6865Z" fill="white"/>
<path d="M111.073 47.6867C110.78 49.8046 109.02 49.8046 107.406 49.8046H106.526L107.26 45.71C107.26 45.4277 107.553 45.2865 107.846 45.2865H108.286C109.46 45.2865 110.486 45.2865 111.073 45.8512C111.219 46.416 111.219 46.9808 111.073 47.6867ZM110.34 42.0391H104.033C103.593 42.0391 103.3 42.3214 103.153 42.745L100.66 58.2761C100.66 58.5585 100.807 58.8409 101.247 58.8409H104.473C104.767 58.8409 105.06 58.6997 105.06 58.2761L105.793 53.8992C105.793 53.4756 106.233 53.1932 106.673 53.1932H108.726C112.833 53.1932 115.179 51.2165 115.913 47.4043C116.206 45.71 115.913 44.4393 115.179 43.451C114.153 42.6038 112.539 42.0391 110.34 42.0391Z" fill="white"/>
<path d="M125.005 53.3344C124.712 55.0287 123.392 56.1582 121.632 56.1582C120.752 56.1582 120.019 55.8758 119.579 55.311C119.139 54.7463 118.992 54.0403 119.139 53.3344C119.432 51.6401 120.752 50.5105 122.512 50.5105C123.392 50.5105 124.125 50.7929 124.565 51.3577C124.859 51.7812 125.152 52.4872 125.005 53.3344ZM129.112 47.6867H126.179C125.885 47.6867 125.739 47.8279 125.592 48.1103L125.445 48.9574L125.299 48.675C124.712 47.8279 123.245 47.4043 121.779 47.4043C118.406 47.4043 115.619 49.8046 115.033 53.1932C114.739 54.8875 115.179 56.4406 116.206 57.5701C117.086 58.5584 118.406 58.982 120.019 58.982C122.659 58.982 124.125 57.2877 124.125 57.2877L123.979 58.1349C123.979 58.4173 124.125 58.6996 124.565 58.6996H127.205C127.645 58.6996 127.938 58.4173 128.085 57.9937L129.698 48.1103C129.698 47.9691 129.405 47.6867 129.112 47.6867Z" fill="white"/>
<path d="M132.63 42.4626L129.99 58.2761C129.99 58.5585 130.137 58.8409 130.577 58.8409H133.217C133.657 58.8409 133.95 58.5585 134.097 58.1349L136.59 42.6038C136.59 42.3214 136.443 42.0391 136.003 42.0391H133.07C132.923 42.0391 132.777 42.3214 132.63 42.4626Z" fill="white"/>
<path d="M29.9716 61.8057L30.4116 58.8407H29.385H24.252L27.7717 37.2384C27.7717 37.2384 27.7717 37.0972 27.9184 37.0972H28.065H36.7178C39.5043 37.0972 41.5575 37.6619 42.5841 38.7915C43.0241 39.3562 43.3174 39.921 43.4641 40.4858C43.6107 41.1917 43.6107 41.8977 43.4641 42.886V43.4508L43.904 43.7332C44.344 43.8744 44.6373 44.1568 44.9306 44.4391C45.3706 44.8627 45.6639 45.4275 45.6639 46.1334C45.8106 46.8394 45.8106 47.6866 45.5173 48.6749C45.2239 49.8044 44.9306 50.6516 44.4907 51.4987C44.0507 52.2047 43.464 52.7695 42.8774 53.3342C42.2908 53.7578 41.4108 54.0402 40.6776 54.3226C39.7976 54.4637 38.9177 54.6049 37.8911 54.6049H37.1578C36.7178 54.6049 36.2779 54.7461 35.8379 55.0285C35.5446 55.3109 35.2513 55.7345 35.1046 56.1581V56.4404L34.2246 61.6645V61.8057V61.9469C34.2246 61.9469 34.2246 61.9469 34.078 61.9469H29.9716V61.8057Z" fill="white"/>
<path d="M44.4889 42.8857C44.4889 43.0269 44.4888 43.1681 44.3422 43.3093C43.1689 48.957 39.3559 50.7925 34.3695 50.7925H31.8763C31.2897 50.7925 30.7031 51.2161 30.7031 51.7808L29.3832 59.6876L29.0898 61.9466C29.0898 62.3702 29.3831 62.6526 29.6765 62.6526H34.2228C34.8095 62.6526 35.2494 62.229 35.2494 61.8054V61.5231L36.1294 56.4401V56.1578C36.2761 55.593 36.716 55.3106 37.156 55.3106H37.8893C42.289 55.3106 45.6621 53.6163 46.542 48.6746C46.982 46.5567 46.6887 44.8624 45.6621 43.7329C45.3688 43.4505 44.9288 43.1681 44.4889 42.8857Z" fill="white"/>
<path d="M43.3156 42.4626C43.169 42.4626 43.0223 42.3214 42.729 42.3214C42.5824 42.3214 42.289 42.1803 42.1424 42.1803C41.4091 42.0391 40.6758 42.0391 39.9425 42.0391H33.1963C33.0496 42.0391 32.903 42.0391 32.7563 42.1803C32.463 42.3214 32.1697 42.6038 32.1697 42.8862L30.7031 51.6401V51.9225C30.8498 51.3577 31.2897 50.9341 31.8764 50.9341H34.3696C39.3559 50.9341 43.169 48.9575 44.3422 43.451C44.3422 43.3098 44.3422 43.1686 44.4889 43.0274C44.1956 42.8862 43.9023 42.745 43.6089 42.6038C43.4623 42.4626 43.3156 42.4626 43.3156 42.4626Z" fill="white"/>
<path d="M32.1705 42.886C32.1705 42.6036 32.4638 42.3212 32.7571 42.18C32.9038 42.18 33.0505 42.0389 33.1971 42.0389H39.9433C40.6766 42.0389 41.5566 42.0389 42.1432 42.18C42.2899 42.18 42.5832 42.1801 42.7298 42.3212C42.8765 42.3212 43.0231 42.4624 43.3165 42.4624C43.4631 42.4624 43.4631 42.4624 43.6098 42.6036C43.9031 42.7448 44.1964 42.886 44.4897 43.0272C44.783 40.9093 44.4897 39.4974 43.3165 38.2267C41.9965 36.8148 39.65 36.25 36.7169 36.25H28.0641C27.4775 36.25 26.8909 36.6736 26.8909 37.2383L23.3711 58.9819C23.3711 59.4054 23.6644 59.829 24.1044 59.829H29.384L30.704 51.6399L32.1705 42.886Z" fill="white"/>
</svg>
