<svg width="89" height="30" viewBox="0 0 89 30" fill="none" xmlns="http://www.w3.org/2000/svg">
<path d="M59.7977 3.60524C59.7977 1.61469 61.4208 0 63.4194 0C65.4214 0 67.0434 1.61469 67.0434 3.60524C67.0434 5.59696 65.4214 7.20813 63.4194 7.20813C61.4208 7.20813 59.7977 5.59696 59.7977 3.60524Z" fill="white"/>
<path d="M70.2108 2.94842L77.5565 1.64051V29.6991H70.2108V2.94842Z" fill="white"/>
<path d="M80.9399 2.94842V29.6991H88.2903V1.64051L80.9399 2.94842Z" fill="white"/>
<path d="M59.747 9.17642V29.699H67.0963V9.17642H59.747Z" fill="white"/>
<path d="M45.3616 18.1539C45.3616 12.126 48.8114 9.09336 55.6015 8.87557C55.6015 8.87557 56.8279 8.82874 57.5518 8.98213V14.9807C53.2475 15.1282 52.772 16.675 52.772 20.2826V29.6991H45.3616V18.1539Z" fill="white"/>
<path d="M35.6255 9.24975C35.3624 9.93692 34.1649 13.0643 31.4774 16.298V1.64051L23.8928 3.13343V29.6991H31.4774V21.4863C33.6737 24.7649 34.7589 29.6991 34.7589 29.6991H43.8419C42.9438 25.9826 39.0138 19.1316 39.0138 19.1316C42.5425 14.6798 44.0902 9.93877 44.3374 9.15308H35.6629C35.6537 9.1762 35.6413 9.20869 35.6255 9.24975Z" fill="white"/>
<path d="M8.09426 9.95399C8.09426 11.8801 10.2458 12.0195 11.1745 12.0792C17.9858 12.5335 22.0453 15.8507 22.0453 20.9547C22.0453 25.458 18.4154 30 10.3176 30C6.56298 30 3.35917 29.6323 0.517882 28.8888V22.334C2.41521 23.1104 5.54134 23.9253 8.76162 23.9253C11.7006 23.9253 13.4485 22.9581 13.4485 21.3142C13.4485 19.3308 11.3288 19.2016 10.5159 19.152L10.5071 19.1515C1.02164 18.5087 0 12.9258 0 10.5558C0 6.44008 2.93545 1.64051 11.2204 1.64051C16.0261 1.64051 18.6167 2.38638 20.8483 3.1627L20.9601 3.19666V9.5629L20.8765 9.53948C19.9808 9.16245 18.9286 8.79244 18.9286 8.79244C17.0383 8.22923 14.3948 7.62973 12.3515 7.62973C11.1898 7.62973 8.09426 7.62973 8.09426 9.95399Z" fill="white"/>
</svg>
