<svg width="85" height="41" viewBox="0 0 85 41" fill="none" xmlns="http://www.w3.org/2000/svg">
<path d="M82.6865 32.6982V34.209H84.3906V35.0811H82.6865V38.4775C82.6865 39.258 82.9166 39.701 83.5781 39.7012C83.903 39.7012 84.093 39.6763 84.2676 39.624L84.3223 40.4951C84.0921 40.5742 83.7267 40.6523 83.2676 40.6523C82.7122 40.6523 82.2661 40.4694 81.9814 40.1699C81.6566 39.818 81.5215 39.258 81.5215 38.5156V35.0801H80.5078V34.208H81.5215V33.0352L82.6855 32.6973L82.6865 32.6982ZM65.1826 34.0625C67.3332 34.0625 67.8885 35.8587 67.8887 37.0156C67.8887 37.2506 67.8752 37.4205 67.8486 37.5508H63.249V37.5518C63.2757 39.1016 64.2907 39.7383 65.4951 39.7383C66.3465 39.7383 66.874 39.5946 67.3066 39.4131L67.5234 40.2324C67.1035 40.415 66.3733 40.6367 65.332 40.6367C63.3167 40.6367 62.1135 39.3479 62.1133 37.4463C62.1133 35.5467 63.276 34.0626 65.1826 34.0625ZM70.8916 35.208H70.918C71.338 34.5056 72.0946 34.0626 73.1494 34.0625C74.7864 34.0625 75.9227 35.3641 75.9229 37.2646C75.9229 39.5161 74.4349 40.6367 72.9736 40.6367C72.0273 40.6367 71.2683 40.2844 70.7686 39.4639H70.7422L70.6738 40.4932H69.6602C69.6868 40.0634 69.7139 39.4253 69.7139 38.8652V31.25H70.8916V35.208ZM55.7383 31.668C57.4271 31.668 58.6326 32.0584 59.4297 32.7607C60.2546 33.4756 60.7295 34.4915 60.7295 35.9111C60.7295 37.343 60.2546 38.514 59.417 39.3213C58.5516 40.1408 57.1446 40.584 55.3721 40.584C54.5184 40.584 53.829 40.545 53.2344 40.4805V31.8623C53.9528 31.7454 54.8046 31.668 55.7383 31.668ZM78.9473 40.4961H77.7559V34.1953H78.9473V40.4961ZM72.7588 34.959C71.9593 34.959 71.2021 35.5067 70.958 36.3652C70.9175 36.5089 70.8916 36.6651 70.8916 36.8477V37.9678C70.8916 38.1102 70.9039 38.2537 70.9443 38.3828C71.1618 39.1766 71.8641 39.7244 72.7305 39.7246C73.9893 39.7246 74.7188 38.748 74.7188 37.3027C74.7187 36.0401 74.0429 34.9591 72.7588 34.959ZM55.791 32.5654C55.1837 32.5654 54.7233 32.618 54.4121 32.6826V39.6211C54.7094 39.6601 55.1422 39.6738 55.6016 39.6738C58.1318 39.6738 59.4844 38.3196 59.4844 35.9502C59.4983 33.8803 58.2808 32.5654 55.791 32.5654ZM65.0879 34.8838C63.8708 34.8838 63.3556 35.9385 63.2607 36.7324H66.7393C66.7531 36.0154 66.4276 34.8838 65.0879 34.8838ZM78.3525 31.709C78.7862 31.7092 79.082 32.0219 79.082 32.4248C79.0819 32.8155 78.7971 33.127 78.3252 33.127C77.8917 33.1268 77.6095 32.8143 77.6094 32.4248C77.6094 32.0351 77.9071 31.709 78.3525 31.709ZM54.3359 0C56.331 3.11059e-06 58.5297 0.393721 60.5283 1.17871L59.3291 6.66699C57.3306 5.68834 54.9357 5.29418 52.7373 5.49121C51.3383 5.49121 50.1394 6.27658 49.9395 7.64941C49.9395 10.5889 59.3291 10.9801 59.3291 17.6475C59.3289 22.9416 54.7356 26.4689 47.3447 26.2754C44.9465 26.2754 42.3514 25.881 39.9531 24.9023L41.1523 19.4111C43.3472 20.3931 45.7454 20.9804 48.1436 20.9805C50.1387 20.9805 52.1377 20.1953 52.1377 18.4316C52.3372 17.2561 51.3375 16.4715 48.7432 15.2959C46.3448 14.1167 42.9473 12.1585 42.9473 8.43066C42.9475 3.53059 47.7442 0 54.3359 0ZM11.585 0.591797C13.1838 0.591817 14.3831 1.77115 14.583 3.14062L17.3809 17.8477L24.5693 0.591797H31.5605L20.7754 26.082H13.584L8.19043 5.69238C7.93444 4.75456 7.39118 3.92495 6.5918 3.53418C4.59677 2.55215 2.39821 1.77113 0 1.37695V0.591797H11.585ZM35.5576 26.082H28.7656L34.3584 0.591797H41.1504L35.5576 26.082ZM83.0938 26.082H76.9023L76.1025 22.3574H67.5117L66.1162 26.082H59.125L69.1113 2.55273C69.511 1.37694 70.71 0.591797 71.9092 0.591797H77.7012L83.0938 26.082ZM69.3125 17.0605H74.9053L72.9102 7.4541L69.3125 17.0605Z" fill="white"/>
</svg>
